<svg width="480" height="480" viewBox="0 0 480 480" fill="none" xmlns="http://www.w3.org/2000/svg">
<rect width="480" height="480" fill="white"/>
<g clip-path="url(#clip0_172_6)">
<path fill-rule="evenodd" clip-rule="evenodd" d="M142.093 80.3434C142.151 80.4783 143.279 81.5615 144.598 82.7504C145.917 83.939 149.571 87.348 152.717 90.3261C155.864 93.3038 159.6 96.8293 161.021 98.1602C162.442 99.491 163.522 100.65 163.42 100.735C163.054 101.041 151.321 103.588 146.812 104.34C140.887 105.329 131.643 105.668 126.334 105.091C124.103 104.848 119.71 103.995 116.57 103.195C113.43 102.395 110.707 101.792 110.519 101.854C109.959 102.041 114.45 105.889 116.976 107.386C120.319 109.368 124.577 110.664 128.452 110.879C130.228 110.977 131.681 111.18 131.681 111.329C131.681 111.71 124.335 114.796 120.794 115.903C118.011 116.773 114.936 117.38 111.567 117.725C108.896 117.998 103.231 117.222 99.795 116.112C95.2939 114.657 91.5816 112.529 88.5331 109.656C87.1466 108.35 85.8833 107.281 85.7257 107.281C84.9665 107.281 86.3258 116.302 87.6444 120.016C88.3899 122.115 91.5299 126.173 93.9026 128.103C97.1721 130.764 102.586 133.07 105.592 133.083C106.162 133.086 106.534 133.24 106.419 133.426C106.304 133.613 102.987 135.427 99.048 137.459C91.0018 141.61 86.4542 144.328 82.2078 147.524C79.0723 149.884 72.5307 156.589 72.8536 157.111C72.9632 157.288 74.328 156.254 75.8866 154.813C80.8965 150.183 88.9826 145.261 96.4498 142.298C99.6285 141.037 100.108 140.942 98.8247 141.828C97.6179 142.661 89.6551 149.346 84.8853 153.532C74.9296 162.267 67.3118 167.041 61.3323 168.291C59.996 168.57 58.8312 168.87 58.7434 168.957C58.4175 169.283 61.8424 169.726 64.6967 169.726C68.192 169.728 71.4338 168.937 75.1765 167.171C78.1515 165.768 78.8763 165.721 77.0779 167.049C75.7212 168.051 70.8651 174.177 68.4005 177.996C64.6686 183.778 60.9935 192.777 59.4903 199.815L58.8209 202.949L58.8227 208.663C58.8249 214.782 59.4763 219.271 60.8739 222.796L61.6287 224.7L61.4109 226.359C60.5757 232.729 60.4835 234.782 60.8197 239.531C61.2135 245.091 61.9239 248.259 63.7626 252.649L64.9683 255.528L64.1172 256.433C63.6493 256.93 61.9689 258.204 60.3831 259.262C58.7972 260.321 57.5 261.309 57.5 261.46C57.5 262.027 63.23 260.488 65.2288 259.383L66.1297 258.885L67.9274 261.147C68.9161 262.392 70.9146 264.33 72.3687 265.454L75.0122 267.498L75.4359 268.772C75.6692 269.473 76.3147 271.539 76.8705 273.364C79.1417 280.819 83.0349 286.102 89.3343 290.279C91.2442 291.546 95.4504 293.273 95.7925 292.931C95.8796 292.844 95.4925 292.388 94.9326 291.916C91.91 289.372 91.3173 288.783 90.3068 287.316C89.0524 285.495 89.3377 285.303 91.3114 286.641C92.0632 287.15 93.9528 288.163 95.5109 288.892L98.3435 290.216L99.9592 293.577C104.601 303.229 112.781 309.309 121.127 309.309H123.562L123.563 312.534C123.565 317.194 124.206 323.554 125.207 328.848C126.753 337.017 130.415 344.569 134.883 348.802C136.602 350.43 141.07 353.143 142.523 353.441L143.585 353.659L143.375 360.516C143.248 364.661 142.935 368.394 142.583 369.954C140.758 378.035 137.502 384.69 132.544 390.468C126.442 397.579 118.056 400.672 110.273 398.68C106.527 397.721 106.929 398.775 111.007 400.603C115.009 402.396 118.809 402.818 122.497 401.877C123.996 401.495 125.267 401.223 125.322 401.274C125.377 401.325 124.836 402.598 124.12 404.104C122.659 407.179 121.716 411.434 121.716 414.962V417.324L118.726 420.36C113.214 425.956 107.977 433.734 106.124 439.078L105.293 441.474L105.307 446.083L105.322 450.691L106.141 452.748C107.774 456.848 111.269 459.537 115.541 459.977L117.57 460.186L116.655 461.522C114.271 465 110.276 474.279 109.367 478.449L109.103 479.663L111.962 479.555L114.821 479.447L115.876 475.404C117.023 471.006 117.631 469.841 117.699 471.908C117.777 474.263 117.99 475.352 118.793 477.496L119.592 479.631H122.894H126.195L125.473 478.617C124.616 477.413 123.688 474.433 123.178 471.243C122.802 468.892 123.192 463.776 123.985 460.645C124.488 458.661 128.016 451.244 128.457 451.244C128.65 451.244 128.707 451.507 128.583 451.828C128.46 452.148 128.08 454.43 127.739 456.897C126.902 462.947 126.963 471.695 127.872 476.129L128.552 479.447L172.895 479.54L217.237 479.634L217.259 475.56C217.271 473.319 217.379 471.327 217.498 471.134C217.811 470.629 218.41 470.702 218.41 471.244C218.41 471.498 218.943 473.488 219.595 475.668L220.78 479.631H244.887H268.994L269.117 479.17C269.185 478.917 269.636 477.465 270.12 475.944L271.001 473.18L271.114 475.159C271.176 476.248 271.051 477.643 270.836 478.26C270.62 478.877 270.494 479.432 270.555 479.493C270.66 479.598 330.04 479.691 370.243 479.65L388.66 479.631L388.407 465.53C388.267 457.774 388.053 450.392 387.93 449.124C387.694 446.692 388.272 445.819 388.663 448.018C388.78 448.677 389.289 451.539 389.795 454.378C391.065 461.511 391.973 469.94 391.812 473.115L391.678 475.773L390.722 477.702L389.767 479.631H393.785H397.803L397.574 475.299C397.448 472.917 397.28 470.76 397.201 470.507C396.972 469.768 397.71 469.976 398.135 470.771C398.839 472.085 399.978 476.107 399.983 477.297C399.985 477.939 400.088 478.727 400.211 479.048L400.435 479.631L405.655 479.63L410.875 479.629L412.005 478.94C413.644 477.941 415.368 475.02 416.294 471.673L417.101 468.756L417.082 462.488L417.062 456.221L415.931 451.963C414.24 445.595 411.79 439.817 408.526 434.5L407.187 432.318L407.739 432.147C408.748 431.835 412.173 427.862 413.089 425.943C415.557 420.771 415.101 411.987 412.001 404.986C410.251 401.031 405.648 394.095 401.037 388.462C400.008 387.204 398.176 384.931 396.967 383.41C395.757 381.889 394.532 380.354 394.243 379.998L393.717 379.351L395.379 377.096C396.39 375.724 397.365 373.813 397.868 372.213L398.696 369.585L398.655 364.608L398.614 359.631L397.612 355.638C396.165 349.862 393.204 341.41 391.104 337.057C390.104 334.983 389.285 333.241 389.285 333.187C389.285 333.132 391.07 333.078 393.252 333.067L397.219 333.046L399.852 332.105C401.299 331.586 402.86 330.899 403.32 330.578L404.156 329.993L402.727 329.15L401.298 328.308L403.991 327.683C408.17 326.713 412.505 317.065 412.72 316.374C413.372 314.274 421.081 292.884 421.971 284.284L422.214 281.932L421.711 282.23C421.435 282.394 420.71 282.895 420.101 283.344C417.879 284.98 410.48 288.33 408.035 288.808C407.567 288.899 406.467 289.233 405.589 289.549C404.712 289.865 402.623 290.294 400.947 290.502C396.065 291.108 392.68 290.148 390.048 287.411C388.687 285.996 388.696 285.373 390.066 286.106C391.738 287 394.708 287.584 398.696 287.803C400.928 287.926 402.672 287.942 402.571 287.837C402.469 287.733 401.141 287.115 399.618 286.464C394.761 284.387 388.555 280.853 388.548 280.16C388.547 280.046 389.102 279.687 389.781 279.364C391.765 278.419 395.544 274.687 397.428 271.811C400.649 266.893 402.571 259.941 402.571 253.201V249.525L400.818 251.563C397.748 255.13 393.724 257.727 388.776 259.333C387.177 259.852 385.498 260.276 385.044 260.276H384.22L383.966 257.788C383.613 254.319 381.463 248.142 379.452 244.821C376.927 240.65 374.275 237.59 367.99 231.592L362.313 226.175L362.878 224.332C363.592 222 363.603 218.145 362.908 213.546C361.597 204.875 359.085 199.26 348.933 182.304C341.13 169.272 337.414 162.511 331.071 149.807C325.478 138.605 322.187 132.454 320.153 129.401C315.108 121.825 309.156 115.467 303.036 111.115C298.482 107.876 295.574 106.216 285.183 100.926C280.601 98.5933 274.373 95.0627 271.343 93.08C268.313 91.0969 264.755 88.9664 263.435 88.3452L261.036 87.216L257.708 87.07C254.054 86.9097 247.79 87.6068 238.416 89.2175L232.403 90.2505L229.189 89.1596C227.422 88.5598 225.228 87.8199 224.315 87.5154C223.402 87.2105 220.993 86.878 218.964 86.7762L215.273 86.5908L211.951 87.4811C207.276 88.7338 194.94 92.3681 190.525 93.7937L186.812 94.9919L181.991 92.6663C172.658 88.1642 160.982 83.8929 151.886 81.6533C147.159 80.4897 141.847 79.779 142.093 80.3434ZM166.373 104.196C151.037 108.235 132.295 116.251 126.514 121.242L125.222 122.357L128.913 120.579C132.716 118.746 138.118 116.497 138.721 116.497C139.415 116.497 138.999 117.117 136.385 119.979L133.711 122.907L135.639 121.822C136.699 121.225 140.099 119.035 143.193 116.954C149.322 112.832 156.193 109.245 164.527 105.817C169.793 103.651 170.372 103.143 166.373 104.196ZM216.388 116.177C220.106 119.101 225.868 125.691 233.049 135.231C237.218 140.77 240.687 145.243 240.758 145.172C241.006 144.925 239.409 139.157 238.434 136.774C235.756 130.233 228.719 123.033 219.427 117.327C215.368 114.834 214.044 114.334 216.388 116.177ZM253.025 117.559C257.184 121.219 258.844 122.94 263.86 128.787C271.937 138.204 273.903 140.45 273.991 140.362C274.038 140.314 273.857 139.426 273.587 138.388C271.465 130.213 264.626 122.868 252.974 116.249C251.787 115.574 250.665 115.023 250.481 115.023C250.296 115.023 251.441 116.164 253.025 117.559ZM231.696 115.533C231.696 115.618 233.315 116.725 235.294 117.992C239.796 120.874 244.304 124.283 245.322 125.577C246.659 127.274 246.584 126.243 245.216 124.107C242.485 119.841 240.173 117.967 235.926 116.573C233.315 115.716 231.696 115.318 231.696 115.533ZM269.378 124.885C274.043 129.664 275.867 131.935 282.073 140.68L283.549 142.76L283.66 141.286C283.722 140.475 283.447 138.506 283.05 136.91C282.653 135.315 282.385 133.95 282.454 133.879C282.774 133.547 288.535 137.199 291.003 139.297C292.515 140.583 293.845 141.543 293.957 141.431C294.37 141.018 291.717 135.222 290.011 132.808C289.045 131.441 287.108 129.223 285.708 127.88C283.277 125.547 278.628 122.213 278.284 122.555C278.195 122.645 278.646 123.825 279.286 125.18C279.927 126.534 280.364 127.728 280.258 127.834C280.153 127.939 277.331 126.676 273.987 125.027C270.644 123.377 267.612 122.027 267.249 122.027C266.799 122.027 267.474 122.934 269.378 124.885ZM118.876 124.055C118.442 124.359 116.665 125.109 114.927 125.721C113.189 126.334 110.56 127.399 109.084 128.088L106.4 129.34L108.088 129.37C110.984 129.422 115.504 127.418 118.764 124.635C120.133 123.466 120.199 123.13 118.876 124.055ZM297.763 125.246C297.766 125.402 298.689 126.608 299.815 127.926C300.941 129.244 303.263 132.119 304.977 134.315C306.69 136.512 308.092 138.125 308.092 137.901C308.092 137.294 305.571 132.399 304.323 130.582C303.724 129.71 302.662 128.426 301.963 127.727C300.682 126.448 297.753 124.718 297.763 125.246ZM188.202 127.465C188.714 128.023 189.51 128.894 189.97 129.401C193.156 132.912 196.368 138.868 199.412 146.912C200.562 149.954 201.649 152.691 201.826 152.995C202.47 154.099 202.122 149.01 201.209 143.988L200.946 142.538L202.119 143.373C202.99 143.992 207.577 149.13 208.707 150.753C208.766 150.837 208.899 150.822 209.002 150.718C209.2 150.521 207.49 146.474 206.149 143.963C203.29 138.608 196.875 132.231 189.893 127.802C187.348 126.187 186.957 126.11 188.202 127.465ZM236.858 130.405C237.702 131.362 240 133.661 241.964 135.513C243.929 137.365 246.598 140.314 247.897 142.067C249.195 143.819 250.324 145.253 250.405 145.253C250.641 145.253 250.136 142.644 249.514 140.645C248.611 137.748 246.921 134.647 245.269 132.857C243.364 130.792 239.108 128.663 236.885 128.663H235.324L236.858 130.405ZM205.35 134.101C207.836 138.475 210.234 141.952 212.405 144.332C213.7 145.751 215.327 147.742 216.02 148.756C216.713 149.769 217.613 151.014 218.021 151.521L218.763 152.442L218.771 151.752C218.783 150.674 216.36 143.713 215.111 141.243C213.48 138.015 212.163 136.707 208.225 134.403C206.293 133.274 204.633 132.35 204.534 132.35C204.435 132.35 204.802 133.138 205.35 134.101ZM248.673 132.489C248.673 132.839 252.871 138.8 255.017 141.499C256.196 142.982 257.161 144.351 257.161 144.54C257.161 144.729 257.323 144.885 257.521 144.885C258.321 144.885 254.674 137.485 253.041 135.795C251.874 134.587 248.673 132.165 248.673 132.489ZM155.854 133.41C153.389 134.314 150.014 136.04 150.25 136.276C150.355 136.38 150.813 136.266 151.268 136.022C153.779 134.68 164.001 135.582 170.697 137.737C172.344 138.267 169.228 136.211 166.004 134.641L162.497 132.933L160.099 132.834C158.475 132.767 157.104 132.953 155.854 133.41ZM295.049 134.562C297.556 139.201 299.394 142.304 299.635 142.304C299.776 142.304 299.638 141.433 299.329 140.368C298.687 138.158 296.883 135.259 295.142 133.64L293.953 132.534L295.049 134.562ZM124.484 136.787C122.86 137.581 119.622 139.131 117.288 140.232C108.401 144.422 100.645 149.799 94.5303 156.007C90.1677 160.437 88.194 162.834 85.1027 167.458C81.4804 172.876 78.8922 179.323 78.4013 184.147L78.1766 186.359L78.5966 185.438C78.8272 184.931 79.8443 182.644 80.8563 180.356C81.8683 178.068 83.2563 175.267 83.9405 174.132C85.4352 171.652 88.5327 167.276 88.6771 167.44C88.7335 167.505 88.5468 168.885 88.2615 170.507C87.9762 172.129 87.7891 174.451 87.8452 175.668L87.9474 177.88L88.7808 175.375C90.9265 168.924 94.5809 163.22 100.466 157.137C104.863 152.592 108.626 149.501 117.572 143.088C124.87 137.856 128.236 135.287 127.747 135.321C127.576 135.333 126.108 135.993 124.484 136.787ZM189.482 142.949C193.011 150.994 194.583 155.967 195.601 162.304C195.854 163.875 196.19 165.161 196.348 165.161C196.506 165.161 196.635 162.926 196.635 160.194V155.228L195.849 151.623C194.708 146.398 193.455 144.235 190.371 142.176C189.002 141.261 188.813 141.425 189.482 142.949ZM128.888 146.684C128.699 146.857 126.966 147.836 125.038 148.862C114.262 154.592 110.916 156.768 106.819 160.709C101.882 165.459 98.2095 170.813 95.0205 177.911C93.4424 181.424 92.5448 184.273 91.4291 189.309L90.6124 192.995L90.4928 200C90.3625 207.637 90.6261 207.721 91.6469 200.368C92.9637 190.886 95.4799 183.379 99.516 176.893C100.863 174.729 102.006 172.999 102.055 173.048C102.105 173.098 101.899 174.427 101.597 176.003C101.043 178.896 100.922 185.795 101.39 187.834L101.644 188.94L103.055 186.175C105.759 180.88 112.676 169.741 115.876 165.53C119.389 160.907 120.077 160.103 124.15 155.865C125.653 154.3 126.883 152.925 126.883 152.808C126.883 152.484 117.67 158.794 112.68 162.534C108.395 165.746 107.157 166.413 108.663 164.699C109.063 164.243 109.861 163.165 110.438 162.302C112.633 159.015 118.287 154.29 124.167 150.825C127.026 149.141 129.777 146.931 129.442 146.587C129.327 146.468 129.078 146.512 128.888 146.684ZM318.794 146.514C318.794 147.908 327.835 166.796 329.717 169.332L330.315 170.138L330.068 169.032C329.535 166.65 327.099 160.374 325.362 156.909C322.69 151.578 318.794 145.412 318.794 146.514ZM176.706 149.402C176.706 154.994 175.354 167.171 174.272 171.321C173.977 172.452 173.808 173.449 173.896 173.536C174.285 173.925 176.777 168.69 177.445 166.079L178.183 163.2V158.867C178.183 156.484 177.937 153.251 177.636 151.683C177.061 148.679 176.706 147.809 176.706 149.402ZM149.562 155.296C140.152 166.224 139.075 167.715 137.61 171.853L136.527 174.909L140.286 171.049C142.353 168.926 145.018 166.06 146.208 164.68C147.398 163.3 148.413 162.222 148.463 162.284C148.513 162.346 148.434 163.392 148.289 164.608C148.143 165.825 148.082 166.888 148.154 166.972C148.504 167.378 149.901 165.49 151.411 162.57L153.086 159.33V155.609C153.086 153.563 152.954 151.889 152.791 151.889C152.628 151.889 151.175 153.422 149.562 155.296ZM310.146 156.913C310.871 158.915 312.292 162.709 313.304 165.345C314.316 167.981 315.507 171.216 315.95 172.534L316.756 174.931L316.875 173.938C317.075 172.267 315.511 164.485 314.402 161.632C313.416 159.097 310.721 154.842 309.416 153.76C309.008 153.421 309.23 154.382 310.146 156.913ZM161.779 155.299C161.7 155.553 161.275 157.004 160.833 158.525C160.391 160.046 159.536 162.572 158.933 164.138C158.33 165.705 157.851 167.075 157.868 167.184C157.885 167.292 157.64 167.918 157.323 168.575L156.747 169.769L158.627 167.742C161.998 164.105 163.583 159.811 162.898 156.165C162.652 154.859 162.057 154.398 161.779 155.299ZM135.495 159.697C133.493 162.196 131.412 164.82 130.87 165.53C130.327 166.239 129.45 167.318 128.921 167.926L127.958 169.032L128.189 167.479C128.571 164.907 128.012 164.954 126.431 167.626C122.92 173.559 120.913 179.333 120.431 184.885L120.206 187.465L121.238 185.546C123.601 181.152 124.428 179.785 128.6 173.383C135.247 163.183 139.678 155.7 139.297 155.319C139.207 155.229 137.496 157.199 135.495 159.697ZM186.185 156.636C186.046 157.32 185.933 158.564 185.933 159.401C185.932 161.86 184.616 169.21 183.549 172.703C183.006 174.481 181.675 178.24 180.591 181.056C179.507 183.871 178.696 186.175 178.788 186.175C179.146 186.175 180.877 184.039 182.43 181.68C184.578 178.419 186.089 175.385 186.903 172.7L187.568 170.507L187.529 165.53C187.508 162.792 187.254 159.392 186.964 157.972L186.437 155.392L186.185 156.636ZM302.011 160.06C302.443 161.469 307.766 173.025 308.352 173.825L308.892 174.562L308.645 172.534C308.306 169.738 307.515 166.356 306.808 164.676C306.182 163.188 303.638 160.21 302.452 159.575L301.748 159.199L302.011 160.06ZM245.732 159.785C245.721 160.114 247.864 167.128 250.248 174.562C251.612 178.816 256.618 189.138 259.278 193.18C262.012 197.334 267.341 203.779 267.725 203.396C267.819 203.301 266.98 201.918 265.859 200.321C262.338 195.309 257.823 187.952 256.376 184.87C255.611 183.24 254 179.01 252.797 175.469C251.593 171.929 250.259 168.161 249.831 167.097C248.359 163.435 245.766 158.809 245.732 159.785ZM202.752 166.34C203.042 169.629 203.953 173.8 204.982 176.542C206.042 179.369 209.424 185.123 211.202 187.124L212.487 188.571L211.798 186.51C211.419 185.376 210.493 183.053 209.74 181.349C208.12 177.679 204.75 169.098 203.855 166.364C202.952 163.608 202.511 163.599 202.752 166.34ZM224.136 165.806C224.284 166.161 224.688 167.198 225.034 168.11C226.351 171.579 228.974 175.16 234.218 180.647C237.127 183.691 239.854 186.367 240.277 186.593L241.047 187.005L240.006 185.207C239.433 184.219 238.181 182.249 237.224 180.829C236.267 179.41 234.693 177.004 233.728 175.484C232.762 173.963 230.301 171.018 228.258 168.94C224.667 165.287 223.572 164.454 224.136 165.806ZM118.093 166.901C116.731 167.849 114.156 171.753 113.041 174.562L112.015 177.143L111.885 180.645L111.754 184.147L112.608 181.567C113.693 178.29 118.327 167.766 119.061 166.912C119.75 166.112 119.235 166.106 118.093 166.901ZM276.689 168.479C279.454 176.004 282.945 182.73 286.178 186.761C287.139 187.959 287.968 188.999 288.021 189.07C288.073 189.142 288.282 189.142 288.485 189.07C288.918 188.917 286.845 182.356 285.59 179.908C284.151 177.099 281.559 173.59 277.182 168.52L276.351 167.557L276.689 168.479ZM195.024 171.618C194.255 173.62 195.301 178.935 196.842 180.851L197.417 181.567L197.194 179.723C196.862 176.976 195.796 171.656 195.509 171.312C195.37 171.146 195.152 171.284 195.024 171.618ZM74.2424 176.945C69.1804 182.397 66.0958 188.518 63.7264 197.814L62.5118 202.58L62.4971 208.848C62.4842 214.378 63.1193 220.5 63.6511 219.969C64.0102 219.61 65.334 213.296 66.0024 208.752C67.8802 195.989 70.4736 186.683 74.3166 178.92C75.3972 176.737 76.249 174.941 76.2095 174.927C76.17 174.914 75.2846 175.822 74.2424 176.945ZM270.078 175.805C270.078 176.43 271.892 181.667 273.233 184.914C275.454 190.291 279.211 197.549 281.71 201.29C284.117 204.893 288.464 209.553 290.746 210.977L292.037 211.783L290.529 209.947C288.088 206.975 283.594 200.243 281.797 196.866C280.88 195.143 278.596 190.746 276.721 187.097C273.23 180.299 270.546 175.484 270.247 175.484C270.154 175.484 270.078 175.629 270.078 175.805ZM163.965 179.262C163.871 179.516 163.034 182.792 162.104 186.544C159.611 196.597 156.049 207.208 153.397 212.474C152.768 213.724 151.256 216.204 150.037 217.985C148.819 219.766 147.904 221.306 148.005 221.406C148.257 221.658 152.126 217.442 154.117 214.746C155.818 212.443 157.932 208.453 159.292 204.977C161.646 198.961 163.897 188.206 164.251 181.29C164.375 178.849 164.304 178.343 163.965 179.262ZM340.403 180.553C340.699 181.516 341.112 182.924 341.321 183.683C341.694 185.033 346.374 196.14 346.717 196.491C346.937 196.716 346.537 193.242 346.047 190.668C345.841 189.591 345.248 187.766 344.729 186.613C343.563 184.026 340.487 178.802 340.129 178.802C339.984 178.802 340.108 179.59 340.403 180.553ZM333.949 181.935C333.929 182.686 335.036 190.107 335.433 191.889C336.919 198.554 339.88 204.526 346.125 213.456C348.877 217.391 353.405 225.902 356.717 233.364C359.798 240.306 364.421 252.249 365.137 255.115C365.467 256.433 365.866 257.648 366.024 257.815C366.576 258.401 366.822 254.008 366.395 251.192C365.827 247.45 364.094 241.359 362.51 237.536C360.628 232.994 356.511 226.432 350.054 217.683C345.47 211.472 342.905 206.14 338.533 193.733C336.235 187.209 333.964 181.365 333.949 181.935ZM189.983 184.896C189.066 185.999 186.824 186.856 182.843 187.624C180.665 188.043 178.485 188.387 177.998 188.387H177.113L175.584 191.323C172.599 197.053 168.377 203.063 160.74 212.45C157.382 216.577 152.686 220.774 147.855 223.964C147.109 224.456 144.285 227.063 141.581 229.757C138.396 232.928 135.71 235.239 133.96 236.313L131.255 237.972L131.47 241.106C131.854 246.704 134.025 253.546 136.609 257.298C137.349 258.373 137.955 259.488 137.955 259.776V260.298L136.94 259.601C136.382 259.217 135.095 258.391 134.08 257.766C129.266 254.802 124.085 247.727 122.057 241.348C121.66 240.1 121.118 238.694 120.854 238.224L120.373 237.37L119.728 240.04C119.373 241.509 118.894 244.117 118.664 245.836L118.245 248.963L119.742 250.288C120.566 251.017 122.008 251.837 122.946 252.112C123.885 252.386 125.522 253.218 126.584 253.959C130.452 256.658 137.897 266.111 140.422 271.528L141.45 273.733L141.429 276.129C141.398 279.786 139.039 284.228 134.967 288.295L133.097 290.163L133.357 291.717C133.85 294.664 137.272 300.742 140.441 304.302C141.329 305.3 142.219 306.42 142.417 306.791L142.779 307.465H142.29C141.443 307.465 136 303.244 133.921 300.975C130.964 297.748 129.332 293.667 129.976 291.105C130.103 290.599 131.106 289.065 132.204 287.696L134.202 285.209L132.999 283.71C130.866 281.052 129.341 278.612 127.225 274.47C126.083 272.234 124.922 270.415 124.639 270.415H124.123L124.002 273.121L123.879 275.828L124.63 278.298C125.343 280.643 127.579 284.596 129.171 286.328C129.67 286.87 129.825 287.379 129.655 287.914L129.405 288.702L128.898 288.283C128.62 288.051 128.238 287.957 128.05 288.074C127.862 288.19 127.251 287.925 126.692 287.486L125.676 286.688L125.943 289.243C126.089 290.648 126.704 294.783 127.308 298.433C130.596 318.297 134.01 325.634 145.655 337.857C152.159 344.684 157.609 351.612 159.411 355.344C160.332 357.253 161.525 359.036 162.538 360.02L164.176 361.61L166.238 362.071L168.3 362.532L170.696 362.122L173.091 361.712L176.283 359.775C181.115 356.844 192.251 349.271 202.171 342.171C211.868 335.232 235.196 317.677 239.372 314.178C240.447 313.276 241.402 312.614 241.494 312.705C241.792 313.004 239.79 317.497 237.426 321.833C236.151 324.171 234.116 327.991 232.903 330.322C228.896 338.021 223.637 347.574 218.636 356.236C217.441 358.306 215.557 361.13 214.45 362.511C211.851 365.752 205.913 370.507 204.464 370.507C204.126 370.507 203.901 370.075 199.796 361.55C198.449 358.753 197.091 356.366 196.779 356.246C196.466 356.127 195.435 356.39 194.486 356.831C193.537 357.272 191.764 357.943 190.546 358.322L188.332 359.011L190.288 359.045C194.023 359.109 194.439 359.591 197.942 367.922C203.022 380.003 209.226 393.429 210.44 394.966L210.978 395.647L213.479 394.647C215.917 393.673 218.545 393.375 220.166 393.888L220.926 394.129L221.974 392.668C223.835 390.076 228.193 387.834 231.371 387.834H232.362L232.754 386.712C233.743 383.876 236.673 381.626 240.49 380.771L242.456 380.331L244.18 378.429C246.238 376.16 248.617 374.503 250.887 373.758L252.548 373.213L252.78 369.693C252.908 367.757 253.305 365.292 253.663 364.215C255.275 359.367 258.982 352.665 262.87 347.567C263.993 346.095 264.912 344.707 264.912 344.483C264.912 344.26 264.554 343.761 264.118 343.375C262.969 342.359 261.38 338.63 260.898 335.822C260.019 330.687 260.606 324.229 262.493 318.293L263.399 315.444L262.473 311.916C261.267 307.318 260.575 301.683 260.258 293.873C260.116 290.399 259.874 287.557 259.72 287.557C259.286 287.557 257.057 290.773 255.504 293.64C253.62 297.117 250.329 301.79 245.816 307.396C244.657 308.836 245.102 307.215 246.783 303.867C248.487 300.476 253.65 286.645 255.142 281.474C255.857 278.997 258.113 274.286 258.584 274.286C258.752 274.286 259.087 274.942 259.327 275.744C260.492 279.628 264.748 281.855 266.9 279.706L267.747 278.86L268.007 275.415C268.28 271.803 268.704 270.572 270.136 269.241C272.891 266.679 276.963 267.389 277.824 270.581C278.045 271.401 278.146 272.736 278.048 273.547C277.868 275.039 278.383 275.588 278.826 274.378C279.247 273.23 281.778 269.708 282.999 268.571C283.652 267.963 285.886 265.474 287.961 263.041C296.632 252.876 298.496 249.159 298.496 242.027C298.496 234.728 295.976 229.894 287.866 221.641L285.62 219.355H284.332C282.311 219.355 277.84 220.401 275.722 221.37C272.989 222.62 271.031 224.053 267.932 227.07L265.232 229.699L264.171 231.992C262.738 235.092 262.035 238.796 261.201 247.641C260.814 251.742 260.304 255.89 260.067 256.858C259.178 260.486 257.484 263.018 253.929 266.03C251.536 268.058 250.372 268.621 251.304 267.3C251.582 266.905 252.269 265.94 252.829 265.154C254.253 263.16 256.648 257.143 257.329 253.851C257.926 250.961 258.036 245.632 257.53 244.055L257.235 243.133L257.198 243.901C257.149 244.929 254.106 254.125 252.954 256.727C252.448 257.868 252.1 258.802 252.18 258.802C252.508 258.802 250.484 263.78 249.227 266.063C247.571 269.073 244.266 273.529 242.032 275.765C239.994 277.805 235.756 281.044 235.482 280.771C235.372 280.662 235.952 279.696 236.77 278.627C239.659 274.849 241.247 270.623 242.214 264.147C242.777 260.372 242.864 256.893 242.444 254.932L242.208 253.828L241.068 256.052C238.538 260.99 233.158 266.91 229.579 268.695C227.576 269.693 225.422 270.421 225.422 270.099C225.422 270.019 226.596 269.062 228.032 267.973C230.965 265.745 232.14 264.168 234.492 259.299C237.033 254.038 238.306 247.359 238.33 239.156C238.34 235.555 237.79 229.664 237.2 227.058L236.815 225.36L233.794 224.767C231.974 224.409 229.6 223.587 227.821 222.698C224.055 220.816 215.997 214.732 213.581 211.945C212.119 210.26 207.132 203.024 203.777 197.721L203.353 197.05L203.82 199.337C204.769 203.985 207.694 208.849 212.778 214.232C214.048 215.578 215.088 216.784 215.088 216.911C215.088 218.245 210.138 214.844 205.818 210.54C200.556 205.299 195.59 197.105 192.167 188.018C190.774 184.319 190.631 184.116 189.983 184.896ZM218.041 185.306C218.041 186.008 221.523 191.075 223.905 193.84C226.922 197.341 231.734 201.586 239.729 207.798C243.329 210.595 248.35 214.71 250.887 216.943L255.501 221.004L253.872 218.981C251.917 216.552 243.282 208.037 240.42 205.714C239.295 204.802 238.367 203.943 238.357 203.806C238.338 203.54 240.754 204.475 245.536 206.584C250.32 208.694 257.503 210.547 262.697 211.011L264.727 211.192L262.882 210.656C254.849 208.322 249.826 206.419 244.429 203.664C232.607 197.631 227.723 194.325 221.086 187.865C219.411 186.235 218.041 185.083 218.041 185.306ZM205.493 187.38C205.493 187.699 207.481 192.38 208.347 194.1C209.257 195.909 213.151 202.027 213.391 202.027C213.623 202.027 212.212 198.092 211.398 196.468C209.618 192.92 205.493 186.572 205.493 187.38ZM80.8176 192.994C79.1317 196.82 78.8435 202.517 80.0732 207.696L80.8718 211.06L81.1874 209.876C81.3608 209.224 81.4582 204.911 81.4036 200.29L81.3043 191.889L80.8176 192.994ZM119.946 196.032C119.316 197.403 118.362 200.184 117.826 202.212L116.852 205.898L116.793 211.244L116.734 216.59L117.423 219.989C117.803 221.859 118.301 223.644 118.531 223.956L118.948 224.524L118.976 217.055C119.005 209.607 119.668 202.308 120.841 196.551C121.145 195.06 121.325 193.772 121.243 193.689C121.159 193.606 120.576 194.661 119.946 196.032ZM350.588 199.319L350.72 204.813L354.28 211.07C356.238 214.512 358.352 218.322 358.977 219.539L360.113 221.751L360.121 219.256C360.14 213.278 357.455 205.09 353.245 198.285C352.159 196.53 351.271 194.923 351.271 194.712C351.271 194.502 351.088 194.216 350.864 194.077L350.456 193.825L350.588 199.319ZM322.485 196.667C322.485 196.761 322.81 198.23 323.207 199.931C324.233 204.328 327.39 211.201 329.674 214.009L330.273 214.746L330.088 214.009C328.375 207.203 326.952 203.53 324.3 199.071C322.914 196.74 322.485 196.172 322.485 196.667ZM270.08 199.676C270.085 200.8 275.123 207.099 278.438 210.124C279.58 211.168 281.281 212.406 282.217 212.877C284.238 213.894 288.595 214.932 290.818 214.927L292.406 214.924L288.219 212.903C283.644 210.694 277.275 206.156 272.76 201.888C271.285 200.494 270.079 199.498 270.08 199.676ZM219.519 200.089C219.524 200.844 222.248 207.545 223.642 210.23L225.221 213.272L228.182 216.249C230.541 218.622 234.028 221.198 234.88 221.198C235.238 221.198 234.913 220.003 233.725 216.956C231.649 211.63 230.975 210.568 228.02 207.967C226.497 206.627 223.961 204.243 222.384 202.67C220.807 201.097 219.518 199.935 219.519 200.089ZM181.873 204.397C174.394 205.97 169.192 208.913 159.401 217.111C154.478 221.233 146.508 229.511 143.647 233.473L141.641 236.252L142.26 238.83L142.879 241.407L146.463 241.864L150.047 242.32L151.735 241.504L153.423 240.687L155.234 238.224C156.231 236.869 158.983 232.88 161.35 229.359C167.615 220.044 171.87 215.167 176.891 211.547C180.905 208.652 186.996 206.208 191.934 205.509C193.929 205.227 194.433 204.809 193.218 204.444C191.482 203.922 184.272 203.892 181.873 204.397ZM73.7944 205.991C73.126 207.262 71.5663 211.475 70.8253 214.011C69.8129 217.475 69.3261 221.056 69.3173 225.103L69.3099 228.455L70.1565 230.055C70.6223 230.934 71.1703 231.71 71.3741 231.778C71.6114 231.857 71.7487 229.811 71.7564 226.089L71.7678 220.276L72.5794 215.115C73.0256 212.276 73.6072 208.917 73.8711 207.65C74.3738 205.24 74.3586 204.917 73.7944 205.991ZM142.955 211.502C139.806 217.149 134.422 227.978 134.194 229.124L134.048 229.862L133.533 228.94L133.018 228.018L133.062 223.963C133.111 219.522 132.815 219.445 131.84 223.644C131.208 226.367 130.794 234.47 131.287 234.47C132.347 234.47 137.924 226.332 140.383 221.198C143.286 215.135 146.393 207.016 145.971 206.594C145.872 206.496 144.515 208.704 142.955 211.502ZM306.984 213.917C310.146 222.782 313.21 229.389 317.969 237.604C320.975 242.792 325.544 249.449 325.726 248.905C325.931 248.291 324.299 240.969 323.331 238.156C322.807 236.636 321.468 233.401 320.354 230.968C318.399 226.694 314.055 218.249 313.813 218.249C313.653 218.249 314.546 221.489 315.072 222.816C315.583 224.108 315.293 224.544 314.572 223.567C314.284 223.177 312.183 219.747 309.905 215.945C307.626 212.143 305.645 209.032 305.501 209.032C305.358 209.032 306.025 211.23 306.984 213.917ZM333.953 209.403C333.908 210.304 337.115 221.278 339.28 227.63C340.383 230.864 341.213 233.581 341.125 233.668C340.872 233.921 337.045 230.548 333.02 226.523C330.981 224.484 328.995 222.576 328.606 222.283L327.9 221.751L328.389 222.673C330.099 225.892 334.115 232.301 336.591 235.76C339.609 239.976 349.069 251.539 349.307 251.302C349.429 251.18 346.57 243.453 345.091 239.904C344.773 239.142 344.623 238.408 344.758 238.273C344.892 238.139 347.077 240.138 349.613 242.716C352.149 245.294 354.224 247.309 354.224 247.193C354.224 246.746 351.806 242.211 349.504 238.341C344.556 230.023 342.55 226.321 338.32 217.696C335.934 212.829 333.969 209.098 333.953 209.403ZM109.423 211.152C109.171 211.595 108.47 214.907 108.058 217.602C107.534 221.036 107.525 230.331 108.043 234.03C108.996 240.843 111.256 246.809 114.326 250.615C115.193 251.689 115.96 252.509 116.033 252.436C116.105 252.364 115.58 250.822 114.867 249.009C111.5 240.464 109.338 227.045 109.594 216.281C109.664 213.307 109.69 210.875 109.651 210.875C109.613 210.875 109.51 211 109.423 211.152ZM259.745 214.384C259.745 214.423 260.753 215.161 261.984 216.025C263.216 216.888 265.002 218.266 265.952 219.088C267.898 220.771 268.128 220.557 267.405 217.73L266.941 215.921L265.589 215.456C264.402 215.048 259.745 214.193 259.745 214.384ZM191.71 219.814C189.033 223.235 183.961 227.823 182.846 227.831C182.671 227.833 182.594 226.673 182.674 225.254L182.82 222.674L181.147 224.291L179.474 225.909L177.718 226.157C175.494 226.472 171.581 227.796 168.956 229.122C165.713 230.76 162.865 233.233 160.824 236.182C157.767 240.599 156.597 244.203 157.491 246.451L157.784 247.189L158.756 244.13C159.832 240.745 160.688 238.894 161.177 238.894C161.532 238.894 163.789 241.357 163.789 241.744C163.789 242.195 159.68 248.029 157.804 250.243C157.239 250.909 156.777 251.69 156.777 251.978V252.502L158.333 251.953C159.19 251.651 160.601 250.988 161.47 250.479L163.051 249.554V252.27C163.051 254.898 163.996 262.818 164.352 263.174C164.448 263.27 164.527 263.187 164.527 262.989C164.527 262.791 165.109 261.665 165.819 260.486C166.529 259.308 167.111 258.097 167.111 257.795C167.111 257.011 169.675 248.878 170.338 247.557C171.154 245.932 173.36 243.318 173.915 243.318C174.228 243.318 174.482 244.068 174.639 245.458C174.924 247.978 176.414 251.293 178.694 254.482C180.134 256.495 181.19 257.483 183.834 259.29L184.503 259.747L180.775 261.544C175.257 264.204 175.395 264.324 182.427 262.99L185.379 262.43L188.566 260.72L191.753 259.01L192.388 259.536C192.736 259.825 193.192 260.483 193.401 260.999L193.779 261.935L194.128 260.672L194.476 259.409L194.026 258.569L193.576 257.729L194.192 256.791C194.53 256.274 194.957 255.852 195.139 255.852C195.322 255.852 195.662 255.23 195.895 254.47C196.484 252.549 201.86 241.843 202.234 241.843C202.809 241.843 202.542 245.036 201.768 247.404C201.343 248.705 200.165 251.369 199.15 253.324C197.206 257.069 197.039 258.173 198.386 258.366L199.206 258.483L200.115 256.43C201.132 254.132 201.636 253.942 203.577 255.125C205.405 256.237 205.631 255.672 204.183 253.614L202.89 251.777L203.546 250.877C203.906 250.382 204.296 249.972 204.413 249.965C204.53 249.959 205.443 250.535 206.443 251.245C207.442 251.955 208.32 252.358 208.392 252.141C208.465 251.923 207.989 250.886 207.335 249.836L206.146 247.926L206.978 246.359L207.81 244.792L209.696 244.791L211.582 244.789L210.153 243.478L208.724 242.167L208.982 239.895C209.291 237.161 209.998 235.867 211.85 234.643C212.616 234.137 213.243 233.492 213.243 233.211C213.243 232.93 212.413 232.402 211.398 232.038C210.383 231.673 209.553 231.283 209.554 231.171C209.554 231.059 210.022 230.655 210.594 230.272C212.116 229.254 217.648 220.682 217.122 220.157C217.05 220.085 216.106 220.678 215.025 221.475C211.962 223.733 205.438 226.796 204.88 226.238C204.784 226.142 205.143 225.201 205.677 224.147C206.212 223.093 206.562 222.143 206.455 222.036C206.347 221.929 204.946 222.37 203.341 223.016C198.85 224.825 194.769 225.646 193.222 225.053L192.702 224.854L193.393 221.667C193.774 219.914 194.036 218.16 193.976 217.769L193.868 217.057L191.71 219.814ZM75.8316 221.212C75.2473 229.65 75.1289 233.355 75.3791 235.358C75.5267 236.538 75.7862 237.36 75.9556 237.185C76.1253 237.01 76.6092 235.835 77.031 234.574C78.195 231.096 77.9455 223.127 76.5468 219.091L76.0729 217.724L75.8316 221.212ZM243.881 219.981C243.875 220.867 247.323 233.746 247.946 235.163C248.158 235.645 248.398 235.974 248.478 235.893C248.812 235.56 247.562 227.126 246.898 225.236C246.216 223.291 245.086 220.927 244.264 219.723L243.887 219.17L243.881 219.981ZM303.663 224.929C303.662 226.277 306.003 233.26 307.336 235.889C308.688 238.553 315.032 247.567 315.34 247.26C315.501 247.1 312.098 239.717 310.039 235.76C307.408 230.702 303.663 224.342 303.663 224.929ZM281.519 225.517C279.368 225.897 275.268 228.264 272.789 230.557C269.009 234.053 266.769 238.625 266.761 242.865L266.757 244.808L267.72 246.262C268.25 247.062 269.26 248.156 269.966 248.693C271.666 249.988 272.661 251.688 272.648 253.272L272.637 254.562L271.887 253.662L271.137 252.761L270.285 253.293C269.816 253.585 268.498 254.683 267.357 255.733C265.105 257.803 264.861 258.585 265.848 260.562C266.585 262.037 266.32 262.986 264.324 266.023C263.429 267.383 262.697 268.638 262.697 268.81C262.697 269.421 263.698 269.111 265.31 267.999C266.207 267.38 268.926 265.504 271.352 263.829L275.763 260.784L276.641 259.148L277.518 257.511L277.373 255.394L277.228 253.276L275.869 250.631C275.122 249.175 274.551 247.945 274.601 247.896C274.651 247.847 275.273 247.704 275.983 247.578L277.275 247.349L278.455 248.081C279.103 248.483 279.922 249.253 280.275 249.79L280.916 250.767L280.893 253.586L280.871 256.405L279.938 259.169C279.425 260.689 279.061 262.025 279.131 262.136C279.2 262.248 280.628 261.05 282.304 259.474C285.149 256.798 286.008 255.372 283.972 256.705C282.858 257.434 282.558 257.168 283.069 255.907C283.287 255.37 283.484 253.514 283.507 251.782L283.549 248.634L282.898 247.64C281.9 246.116 279.516 245.09 276.372 244.834L273.61 244.608L272.502 242.958L271.394 241.309L271.247 238.995L271.1 236.682H271.546C272.158 236.682 275.983 238.994 275.983 239.364C275.983 239.751 280.405 241.842 281.222 241.843L281.848 241.843L281.288 239.908C279.865 234.997 278.482 230.959 278.154 230.756C277.604 230.417 278.49 229.86 281.052 228.937L283.352 228.108L284.447 228.561C285.807 229.124 288.69 232.134 290.552 234.935C291.325 236.099 292.194 237.051 292.484 237.051H293.01L292.773 236.221C292.642 235.765 291.89 234.02 291.101 232.344C288.173 226.122 286.169 224.694 281.519 225.517ZM322.121 226.073C322.105 227.963 326.265 236.548 329.671 241.655C331.618 244.574 337.104 250.588 337.479 250.214C337.682 250.011 335.357 246.238 327.652 234.262C325.114 230.318 322.833 226.719 322.583 226.264L322.126 225.438L322.121 226.073ZM175.046 228.167C170.578 229.891 165.631 232.868 164.186 234.702C163.226 235.921 163.22 236.313 164.158 236.313C164.564 236.313 164.896 236.46 164.896 236.64C164.896 236.82 165.436 237.052 166.096 237.156L167.295 237.345L169.141 235.589C170.155 234.623 172.148 232.989 173.569 231.957C180.192 227.149 180.636 226.01 175.046 228.167ZM99.9751 232.258C99.9489 235.118 101.042 239.71 102.477 242.765C103.562 245.078 106.192 249.366 106.395 249.155C106.621 248.92 101.667 233.487 100.676 231.336L99.9965 229.862L99.9751 232.258ZM64.7513 233.456C64.0984 238.885 64.8937 247.768 66.3829 251.68L66.7568 252.662L67.2609 252.137C68.023 251.344 68.9408 248.281 68.9408 246.531C68.9408 245.676 68.5194 243.484 68.0042 241.659C67.489 239.834 66.7409 237.18 66.3423 235.76C65.9433 234.341 65.6175 232.806 65.6182 232.35C65.6204 230.733 64.9805 231.55 64.7513 233.456ZM70.8577 235.806C70.9729 238.071 71.2619 239.589 71.7966 240.737L72.5691 242.396L72.5724 238.894C72.5753 235.331 72.0465 232.985 71.1748 232.694L70.6913 232.534L70.8577 235.806ZM367.451 235.945C367.644 236.451 368.415 238.193 369.165 239.815C371.966 245.879 373.956 252.236 374.462 256.743L374.707 258.924L376.552 259.571C377.567 259.928 378.688 260.232 379.043 260.248L379.689 260.276V257.596C379.689 252.896 377.754 247.547 374.325 242.765C372.307 239.95 366.956 234.641 367.451 235.945ZM192.344 238.362C192.003 238.88 191.65 240.089 191.558 241.049L191.39 242.794L191.983 243.286C192.387 243.62 193.243 243.723 194.661 243.605C197.038 243.408 197.743 242.779 197.743 240.853V239.636L196.211 238.527C194.32 237.159 193.165 237.11 192.344 238.362ZM180.672 240.194C179.485 241.38 179.206 242.445 179.902 243.14C180.986 244.222 183.066 243.373 183.752 241.57L184.108 240.634L183.487 239.948C182.639 239.013 181.78 239.087 180.672 240.194ZM304.611 241.106C304.974 244.536 306.244 249.873 307.338 252.558C308.621 255.707 312.203 261.902 315.383 266.471C317.69 269.787 318.717 270.732 317.539 268.457C317.224 267.849 316.315 265.719 315.518 263.722C311.65 254.027 306.086 241.422 305.028 239.953L304.397 239.078L304.611 241.106ZM244.244 245.161V249.733L244.706 249.268C245.304 248.666 245.268 241.613 244.664 241.009L244.244 240.59V245.161ZM291.557 243.41C291.163 244.475 290.712 245.76 290.557 246.267C290.06 247.889 286.818 254.174 285.846 255.4C285.641 255.659 285.556 255.953 285.658 256.054C285.994 256.39 288.921 253.264 290.376 251.017C291.971 248.551 292.783 246.304 293.126 243.41L293.355 241.474H292.815C292.501 241.474 291.975 242.284 291.557 243.41ZM92.9297 245.948V250.201L93.7066 252.566C94.134 253.866 94.7381 255.423 95.0492 256.025C95.8427 257.559 99.664 263.258 99.8046 263.117C99.8688 263.053 99.4211 261.683 98.81 260.072C98.1992 258.461 97.202 255.235 96.5945 252.903C95.0566 247 93.6649 242.461 93.2663 242.046C93.0626 241.834 92.9297 243.376 92.9297 245.948ZM77.3189 245.084C75.2141 249.372 74.6661 253.428 75.7168 256.939C76.4043 259.236 77.0605 259.306 77.0579 257.081C77.0568 256.101 77.3085 253.474 77.6171 251.244C77.9256 249.014 78.3087 246.235 78.4685 245.069C78.6283 243.903 78.6674 242.956 78.5556 242.965C78.4434 242.973 77.8869 243.927 77.3189 245.084ZM181.251 247.376C180.258 247.776 179.83 248.571 179.52 250.599L179.281 252.166H179.902C180.244 252.166 180.827 251.891 181.198 251.556L181.873 250.945V252.413V253.88L182.744 254.698C183.992 255.869 187.156 256.99 188.47 256.728C189.721 256.478 189.98 255.839 189.987 252.979L189.992 251.026L189.086 250.121L188.181 249.216H186.644H185.108L183.846 248.11C182.476 246.909 182.438 246.898 181.251 247.376ZM87.3938 251.308C87.3938 256.422 89.2938 261.975 93.1501 268.134C94.5078 270.302 95.271 270.799 94.2975 268.882C93.7306 267.766 91.0844 258.91 91.0844 258.13C91.0844 257.644 87.8389 248.801 87.557 248.519C87.4673 248.429 87.3938 249.685 87.3938 251.308ZM69.2143 255.017C68.0274 256.327 68.4489 259.1 70.1381 261.1L70.9895 262.109L70.7241 259.441C70.578 257.974 70.3233 256.219 70.1576 255.541L69.8569 254.308L69.2143 255.017ZM321.747 255.392C321.747 256.305 324.213 263 325.175 264.7C327.737 269.226 333.884 277.759 333.01 275.576C332.848 275.17 332.319 273.782 331.834 272.49C330.409 268.69 327.825 263.816 324.852 259.318C322.223 255.342 321.747 254.739 321.747 255.392ZM112.129 255.76C112.133 255.912 112.529 257.364 113.009 258.986C114.136 262.797 115.44 265.689 116.704 267.184L117.713 268.376L118.608 267.314C119.498 266.257 119.798 265.069 119.174 265.069C118.994 265.069 118.743 264.53 118.617 263.871C118.188 261.625 116.661 258.989 114.774 257.235C113.022 255.606 112.11 255.097 112.129 255.76ZM119.374 256.172L118.693 256.44L119.956 258.082L121.22 259.723L122.114 259.67C122.606 259.64 124.295 259.557 125.868 259.486C127.441 259.414 128.728 259.253 128.728 259.128C128.729 258.725 125.855 256.899 124.411 256.385C122.895 255.844 120.469 255.742 119.374 256.172ZM335.197 258.304C335.479 258.882 336.451 261.097 337.355 263.226C342.246 274.736 350.793 290.468 353.47 292.889L354.214 293.561L352.516 289.73C351.582 287.623 349.826 283.659 348.614 280.921C344.455 271.529 342.111 267.09 338.963 262.642C337.23 260.192 335.557 257.978 335.247 257.72L334.683 257.253L335.197 258.304ZM350.807 261.014C351.224 261.723 352.825 264.513 354.367 267.213C355.908 269.914 357.42 272.481 357.726 272.917C358.033 273.355 358.284 273.845 358.284 274.006C358.284 274.568 355.126 272.703 351.143 269.79C348.941 268.18 347.067 266.934 346.978 267.023C346.89 267.111 348.548 269.487 350.664 272.301C356.299 279.797 362.959 286.924 367.137 289.928L367.686 290.322L367.137 289.512C366.018 287.863 364.33 285.469 362.767 283.318C361.883 282.101 360.928 280.659 360.646 280.113L360.132 279.119L362.437 280.427C365.329 282.067 373.31 286.083 373.679 286.083C373.829 286.083 372.531 284.631 370.794 282.857C367.459 279.453 361.958 273.194 356.926 267.078C355.266 265.06 353.04 262.58 351.979 261.567L350.049 259.723L350.807 261.014ZM122.916 261.463C122.459 261.683 122.085 262.069 122.085 262.319V262.775L126.053 262.959C128.235 263.06 130.416 263.27 130.9 263.425L131.78 263.706L131.613 263.206C131.521 262.931 130.725 262.325 129.845 261.859L128.243 261.014L125.995 261.039C124.758 261.052 123.373 261.244 122.916 261.463ZM303.494 263.041C303.767 265.309 305.59 274.543 306.837 279.967C307.346 282.179 308.247 286.659 308.838 289.921C310.308 298.024 311.574 302.149 313.996 306.728C315.922 310.369 315.315 306.678 311.182 289.605C309.754 283.708 309.664 282.902 310.585 284.284C310.939 284.816 312.321 286.889 313.656 288.892C315.836 292.162 318.147 295.366 320.557 298.46L321.398 299.539L321.158 298.617C321.027 298.11 319.943 295.434 318.75 292.669C317.556 289.904 316.58 287.553 316.58 287.444C316.58 287.105 310.366 273.905 308.476 270.23C306.803 266.975 304.571 263.046 303.662 261.751L303.273 261.198L303.494 263.041ZM169.602 264.954C168.999 265.112 168.655 266.175 169.207 266.175C169.816 266.175 171.908 265.261 171.908 264.995C171.908 264.687 170.708 264.666 169.602 264.954ZM86.6638 267.865C86.6779 269.12 88.0437 274.779 88.8494 276.92C90.247 280.635 95.1212 287.189 96.4864 287.189C97.1403 287.189 97.1902 287.482 95.656 282.295C94.0509 276.87 93.7634 276.285 91.121 273.058C89.9843 271.67 88.6077 269.868 88.0615 269.053C86.7668 267.12 86.6542 267.025 86.6638 267.865ZM368.248 267.843C368.248 268.168 370.297 271.786 371.425 273.452C374.066 277.356 377.409 280.37 381.719 282.733L383.933 283.947L381.879 281.789C380.75 280.602 379.359 278.993 378.789 278.213C376.659 275.3 368.248 267.025 368.248 267.843ZM109.906 268.301C109.906 268.457 110.312 269.18 110.807 269.908C111.776 271.332 113.58 272.366 115.695 272.709L117.018 272.923L116.848 272.415C116.754 272.134 115.369 271.216 113.768 270.374C112.167 269.531 110.796 268.656 110.721 268.43C110.566 267.967 109.906 267.863 109.906 268.301ZM133.329 270.013L132.703 270.968L133.308 271.889C133.716 272.512 134.25 272.811 134.954 272.811C135.961 272.811 137.217 271.855 137.217 271.088C137.217 270.506 136.029 269.576 134.94 269.305L133.955 269.059L133.329 270.013ZM272.113 270.377C271.626 270.862 270.928 272.231 270.561 273.418L269.894 275.576L269.904 280.184L269.915 284.792L271.29 287.624C273.119 291.39 274.945 292.783 277.284 292.196C278.855 291.803 280.984 289.545 282.09 287.101L283.134 284.792L283.291 281.645C283.432 278.794 282.729 274.265 282.037 273.574C281.927 273.464 281.521 273.787 281.133 274.291L280.428 275.207L280.42 279.093C280.412 283.078 279.743 286.646 278.71 288.225L278.152 289.077L277.16 288.962L276.168 288.848L275.074 286.82L273.981 284.792L273.835 281.272L273.689 277.751L274.467 274.981C274.895 273.457 275.245 271.799 275.245 271.294C275.245 269.402 273.577 268.913 272.113 270.377ZM314.497 271.094C314.629 271.467 314.843 272.214 314.972 272.753C315.463 274.807 319.911 283.529 322.977 288.451C324.736 291.275 326.175 293.419 326.175 293.216C326.175 291.82 319.48 278.102 316.719 273.839C314.786 270.854 314.123 270.035 314.497 271.094ZM290.557 272.442C290.661 273.152 290.911 275.143 291.113 276.866C291.507 280.235 292.492 283.871 293.011 283.871C293.186 283.871 293.329 282.564 293.329 280.965V278.06L292.388 275.561C291.87 274.187 291.204 272.633 290.908 272.107L290.369 271.152L290.557 272.442ZM108.801 273.45C108.802 273.605 109.128 274.267 109.527 274.92C110.564 276.62 113.017 278.272 114.827 278.491C117.842 278.855 119.68 278.993 119.223 278.821C118.968 278.725 118.853 278.495 118.968 278.309C119.083 278.124 118.906 277.972 118.575 277.972C117.546 277.972 112.535 275.734 110.623 274.42C109.62 273.731 108.8 273.295 108.801 273.45ZM390.767 274.675C390.059 275.069 389.111 275.392 388.659 275.392C386.891 275.392 382.272 276.237 382.272 276.561C382.272 277.229 384.93 278.04 386.3 277.79C387.719 277.531 389.892 276.343 391.684 274.846C392.993 273.751 392.568 273.672 390.767 274.675ZM132.667 278.123C132.329 279.005 135.167 281.659 136.45 281.659C138.445 281.659 138.986 279.762 137.334 278.558C136.802 278.17 135.586 277.778 134.633 277.687L132.899 277.52L132.667 278.123ZM102.894 279.972C102.894 280.111 103.322 281.749 103.845 283.614C105.012 287.777 108.3 295.326 110.467 298.817C113.307 303.394 118.392 307.442 122.193 308.152L123.86 308.463L124.08 307.365C124.201 306.761 124.294 304.505 124.287 302.35L124.273 298.433L123.449 297.428C122.655 296.459 115.428 291.504 115.176 291.756C114.682 292.249 118.595 298.544 121.31 301.623C122.143 302.567 122.824 303.432 122.824 303.547C122.824 304.07 121.164 303.044 119.158 301.28C115.597 298.15 113.255 295.107 105.223 283.178C103.942 281.276 102.894 279.833 102.894 279.972ZM325.455 282.814C325.426 283.203 330.568 293.04 332.752 296.774C335.002 300.62 339.274 309.355 339.664 310.907C339.8 311.448 340.059 311.889 340.24 311.889C340.722 311.889 340.751 312.003 338.392 304.725C336.051 297.505 334.472 294.024 331.692 289.954C330.014 287.498 325.492 282.32 325.455 282.814ZM296.919 287.281C297.676 296.409 300.814 310.783 302.05 310.783C302.188 310.783 302.194 308.544 302.062 305.806C301.931 303.069 301.898 300.829 301.989 300.829C302.081 300.829 302.609 301.618 303.163 302.58C305.338 306.357 309.045 311.497 309.607 311.514C309.73 311.518 308.854 309.115 307.66 306.175C305.611 301.125 302.925 292.679 302.925 291.285C302.925 290.763 297.445 285.345 296.917 285.345C296.83 285.345 296.831 286.216 296.919 287.281ZM287.787 298.832C287.78 306.794 287.274 311.774 286.12 315.244C285.781 316.264 285.439 317.034 285.359 316.954C285.28 316.875 284.895 314.694 284.505 312.107C284.114 309.52 283.711 307.32 283.607 307.216C283.504 307.113 283.316 307.832 283.188 308.814C281.752 319.884 279.892 326.241 275.558 334.883C274.961 336.073 274.548 337.122 274.639 337.213C274.916 337.49 278.567 332.917 280.689 329.638C281.785 327.943 283.112 325.538 283.639 324.292C284.165 323.046 284.742 321.862 284.92 321.661C285.106 321.449 285.197 324.143 285.134 328.02C285.074 331.72 285.109 334.747 285.212 334.747C285.59 334.746 288.46 329.636 289.399 327.291C289.933 325.959 290.655 323.732 291.003 322.342L291.637 319.815L291.613 313.917L291.588 308.018L290.426 301.751C289.259 295.46 288.388 291.716 288.001 291.329C287.887 291.215 287.79 294.591 287.787 298.832ZM337.773 294.47C340.391 300.516 343.265 306.669 344.878 309.677C346.693 313.063 351.474 320 351.992 320C352.166 320 351.434 317.967 350.364 315.484C348.375 310.865 346.086 304.885 346.307 304.885C346.375 304.885 348.32 306.262 350.63 307.946C354.662 310.887 357.843 312.82 358.147 312.517C358.36 312.305 337.328 291.613 336.901 291.613C336.701 291.613 337.094 292.898 337.773 294.47ZM268.278 295.772C267.604 297.147 266.822 299.138 266.54 300.196C265.995 302.241 265.879 307.896 266.356 309.118L266.642 309.849L266.903 308.381C267.046 307.573 267.748 304.134 268.463 300.738C269.179 297.341 269.705 294.272 269.634 293.917C269.553 293.514 269.045 294.208 268.278 295.772ZM374.325 294.516C376.021 296.335 378.677 297.398 382.647 297.846L386.148 298.242L389.469 297.65C391.296 297.324 392.923 296.936 393.085 296.788C393.247 296.639 391.586 296.416 389.395 296.293C386.011 296.102 376.11 294.37 373.91 293.585L373.231 293.342L374.325 294.516ZM361.117 295.945C363.997 300.473 366.242 303.691 368.127 305.991C370.123 308.427 372.677 310.731 372.677 310.097C372.677 309.526 370.16 305.252 368.418 302.866C366.787 300.631 360.456 293.825 360.009 293.825C359.877 293.825 360.375 294.778 361.117 295.945ZM272.956 301.031C271.234 306.115 271.007 307.021 270.091 312.442C269.282 317.232 269.135 322.521 269.737 325.161C270.136 326.912 271.683 329.585 272.298 329.585C272.505 329.585 272.664 328.356 272.667 326.728C272.672 324.101 273.063 318.165 274.158 304.125C274.742 296.634 274.583 296.224 272.956 301.031ZM149.027 299.725C148.113 299.836 147.141 300.068 146.865 300.24L146.364 300.553L146.865 300.87C147.442 301.234 150.293 301.293 151.518 300.966C151.975 300.843 152.348 300.533 152.348 300.276C152.348 299.675 151.119 299.47 149.027 299.725ZM373.156 304.579C374.448 306.673 376.466 310.184 377.642 312.38L379.779 316.374L381.291 317.468C383.352 318.959 385.215 319.735 388.916 320.643C392.268 321.465 395.123 322.005 394.821 321.759C394.719 321.676 392.477 319.625 389.838 317.2C379.409 307.616 372.978 302.017 371.281 301.043C371.021 300.893 371.865 302.485 373.156 304.579ZM328.448 305.49C328.61 306.836 328.99 308.899 329.291 310.074C329.909 312.486 332.035 318.156 332.321 318.156C332.555 318.156 332.122 313.745 331.671 311.521C331.263 309.512 328.777 303.041 328.413 303.041C328.27 303.041 328.285 304.143 328.448 305.49ZM323.746 312.757C324.109 313.878 325.786 322.136 326.416 325.898C326.787 328.119 326.988 331.425 326.964 334.931L326.927 340.461L327.817 342.619C328.82 345.051 332.487 351.321 332.911 351.33C333.37 351.34 333.215 344.109 332.639 338.689C331.832 331.098 330.221 325.152 327.145 318.422C325.953 315.814 323.31 311.41 323.746 312.757ZM340.2 312.404C340.2 313.118 341.821 317.489 341.95 317.122C342.108 316.674 340.646 312.258 340.339 312.258C340.262 312.258 340.2 312.324 340.2 312.404ZM297.605 319.723C298.496 325.654 299.23 336.123 298.993 339.539C298.344 348.912 297.197 353.755 292.802 365.684C291.875 368.202 291.176 370.322 291.249 370.395C291.753 370.898 300.507 360.352 302.22 357.18L302.687 356.313L303.004 357.522C303.178 358.187 303.273 362.454 303.215 367.003L303.109 375.274L303.527 374.826C304.192 374.111 305.806 368.775 306.448 365.161C307.543 359.008 307.129 346.173 305.633 339.908L305.413 338.986L304.577 342.889C303.788 346.572 301.483 352.442 300.827 352.443C300.661 352.443 300.579 347.782 300.644 342.086L300.763 331.728L299.99 326.406C299.565 323.478 298.809 319.803 298.308 318.237C297.808 316.672 297.396 315.101 297.394 314.746C297.391 314.392 297.247 314.101 297.074 314.101C296.902 314.101 297.14 316.631 297.605 319.723ZM173.385 316.541C171.556 317.344 167.259 318.118 165.679 317.929C164.944 317.841 162.931 317.525 161.206 317.227C159.48 316.928 157.062 316.684 155.833 316.683L153.596 316.682L152.696 318.617L151.795 320.553H149.118H146.442L146.443 321.165C146.445 323.493 149.368 329.714 150.293 329.359C150.614 329.237 151.379 329.918 152.325 331.171L153.844 333.18L155.956 334.118C159.26 335.585 158.973 335.65 162.794 332.58C164.177 331.47 167.107 327.623 167.11 326.914C167.111 326.527 163.426 327.968 162.313 328.79C159.114 331.15 157.214 331.192 153.367 328.985L150.879 327.557L150.875 326.798C150.874 326.381 151.108 325.717 151.396 325.324L151.919 324.608L153.149 325.077L154.378 325.546L155.67 324.084C158.01 321.435 160.143 320.75 168.253 320.045C172.389 319.685 174.854 318.81 175.587 317.442C176.445 315.841 175.685 315.53 173.385 316.541ZM304.238 317.296C304.664 319.182 307.409 327.181 307.754 327.539C308.219 328.022 308.185 326.377 307.68 323.981C307.268 322.031 304.963 316.844 304.334 316.456C304.148 316.341 304.106 316.709 304.238 317.296ZM357.774 319.798C357.983 320.342 364.716 326.636 365.089 326.636C365.406 326.636 364.252 324.466 363.198 323.082C362.281 321.876 360.005 320.215 358.472 319.633L357.581 319.294L357.774 319.798ZM333.634 322.613L333.75 325.411L336.223 330.355C339.159 336.221 344.374 344.34 344.88 343.834C345.015 343.7 344.14 341.692 341.405 335.852C340.598 334.129 338.828 330.23 337.471 327.189C336.115 324.147 334.671 321.244 334.262 320.737L333.518 319.815L333.634 322.613ZM366.772 321.083C366.772 321.241 369.408 324.102 372.63 327.441C375.852 330.778 379.72 335.163 381.225 337.184C383.974 340.873 388.341 348.227 388.914 350.132L389.221 351.152L389.253 349.441C389.3 346.909 388.265 341.956 387.009 338.701C385.153 333.893 379.477 327.165 375.127 324.618C372.917 323.325 366.772 320.724 366.772 321.083ZM264.554 322.649C264.548 323.396 264.359 324.474 264.136 325.045C263.087 327.721 263.902 337.518 265.489 341.313L266.019 342.579L266.556 342.134C266.851 341.889 267.867 340.368 268.814 338.756L270.535 335.823L269.98 335.192C268.552 333.572 266.344 328.19 265.637 324.608C265.069 321.73 264.569 320.825 264.554 322.649ZM129.098 323.956C129.098 324.128 129.36 326.157 129.681 328.465C130.445 333.947 131.681 338.12 133.913 342.745L135.728 346.503L138.013 348.944C139.97 351.033 141.797 352.442 142.55 352.442C142.964 352.442 142.732 350.653 142.066 348.721C141.027 345.706 138.87 341.61 136.162 337.511C134.106 334.399 129.836 325.58 129.836 324.446C129.836 324.255 129.67 323.996 129.467 323.871C129.264 323.745 129.098 323.784 129.098 323.956ZM311.185 324.608C311.368 326.033 314.377 339.674 314.546 339.842C314.616 339.912 314.788 339.051 314.929 337.929L315.184 335.888L314.409 332.291C313.971 330.26 313.07 327.566 312.338 326.099L311.043 323.502L311.185 324.608ZM345.367 329.28C345.367 329.666 347.336 334.312 348.359 336.339C349.796 339.188 354.957 347.04 355.22 346.778C355.519 346.479 353.567 340.415 352.475 338.249C351.173 335.668 345.367 328.342 345.367 329.28ZM319.407 333.18C319.51 334.751 320.015 339.769 320.53 344.332C321.045 348.894 321.571 355.696 321.699 359.447L321.931 366.267L322.563 365.114C325.373 359.988 325.697 350.061 323.355 340.855C322.836 338.813 319.597 330.322 319.338 330.322C319.273 330.322 319.304 331.608 319.407 333.18ZM369.355 332.404C369.355 332.597 369.508 332.913 369.695 333.106C369.881 333.298 371.36 336.608 372.981 340.461C374.601 344.313 376.367 348.443 376.904 349.638C378.386 352.933 384.88 365.851 385.249 366.238C385.731 366.743 387.771 362.125 388.186 359.59C388.382 358.396 388.543 356.531 388.544 355.445L388.547 353.472L387.25 351.021C385.904 348.478 381.863 343.115 379.196 340.332C378.35 339.451 376.082 337.471 374.153 335.933C372.225 334.395 370.356 332.892 370.001 332.594C369.646 332.295 369.355 332.21 369.355 332.404ZM353.873 335.659C353.863 335.856 355.167 338.926 356.771 342.479C358.376 346.033 360.556 351.014 361.618 353.548C364.124 359.531 368.981 369.401 369.419 369.401C370.138 369.401 368.729 361.165 367.346 357.281C367.03 356.394 366.772 355.511 366.772 355.321C366.772 354.708 371.216 358.437 373.887 361.29C376.594 364.18 381.139 369.77 382.582 371.981L383.424 373.272L383.174 371.981C382.774 369.914 379.583 363.531 377.618 360.869C374.824 357.084 353.913 334.882 353.873 335.659ZM277.726 339.078C274.651 343.226 272.544 346.559 270.094 351.152L268.127 354.839L269.684 353.364C271.301 351.832 275.626 345.55 277.947 341.365C279.184 339.133 280.554 335.852 280.248 335.852C280.176 335.852 279.041 337.304 277.726 339.078ZM290.796 338.973C290.541 340.487 289.599 344.304 288.701 347.455C286.457 355.339 284.22 365.217 284.595 365.591C284.832 365.828 286.753 362.545 287.918 359.915C290.673 353.694 291.496 349.894 291.755 342.212C291.973 335.719 291.571 334.362 290.796 338.973ZM143.875 339.62C143.867 339.766 144.773 342.731 145.89 346.208C147.006 349.685 147.92 352.727 147.92 352.969C147.92 353.21 148.168 353.729 148.47 354.123L149.021 354.839L148.828 352.627C148.407 347.808 146.778 342.729 144.978 340.626C144.38 339.927 143.883 339.474 143.875 339.62ZM312.349 349.309C312.478 351.133 312.815 354.368 313.098 356.497C313.381 358.627 313.9 362.567 314.251 365.253C314.603 367.94 315.01 370.138 315.155 370.138C315.665 370.138 315.94 365.919 315.742 361.138L315.542 356.313L314.214 351.761C313.483 349.257 312.712 346.934 312.501 346.6L312.116 345.991L312.349 349.309ZM341.001 351.981C344.956 358.33 349.441 362.801 358.468 369.397C364.645 373.911 371.269 379.608 374.141 382.876C375.86 384.832 377.33 386.241 377.407 386.009C377.618 385.378 373.626 378.44 371.353 375.484C370.261 374.064 368.078 371.477 366.502 369.734C362.844 365.692 351.258 354.654 350.672 354.654C350.486 354.654 352.514 358.537 354.389 361.77C354.954 362.744 355.329 363.627 355.223 363.733C355.023 363.933 351.099 360.345 344.015 353.483C341.75 351.288 339.796 349.493 339.673 349.493C339.551 349.493 340.148 350.613 341.001 351.981ZM262.339 352.683C261.911 353.463 260.92 355.162 260.138 356.459C258.699 358.845 258.116 360.957 257.711 365.253C257.471 367.797 257.562 367.882 259.522 366.948C260.991 366.249 261.07 366.022 261.627 360.913C261.852 358.838 262.339 355.877 262.707 354.332C263.075 352.788 263.319 351.466 263.247 351.394C263.176 351.323 262.767 351.903 262.339 352.683ZM275.039 358.064L273.245 361.843L273.097 364.529C272.836 369.257 273.706 373.176 274.24 369.681C274.724 366.516 275.754 361.511 276.564 358.393C277.557 354.566 277.597 354.286 277.146 354.286C276.974 354.286 276.025 355.986 275.039 358.064ZM392.073 356.732C391.609 361.138 391.111 363.019 389.662 365.836C388.845 367.424 388.177 368.892 388.177 369.098C388.177 369.785 392.175 375.609 392.92 376.007L393.654 376.4L394.223 374.836C396.131 369.584 395.967 363.892 393.723 357.429C392.653 354.347 392.338 354.215 392.073 356.732ZM265.671 361.751C263.892 365.379 263.292 368.716 263.498 373.836L263.641 377.385L264.821 379.779C265.47 381.096 266.322 382.464 266.714 382.818L267.428 383.463L267.369 371.087C267.337 364.279 267.277 358.71 267.236 358.71C267.195 358.71 266.491 360.078 265.671 361.751ZM332.819 361.817V363.597L333.995 365.669C335.344 368.044 339.423 372.302 341.255 373.246C342.114 373.689 342.403 373.734 342.195 373.394C339.606 369.155 335.05 362.623 333.121 360.387C332.954 360.194 332.819 360.838 332.819 361.817ZM148.894 363.686C148.036 369.142 145.389 377.077 142.551 382.708L141.23 385.328L142.083 384.731C143.308 383.876 147.357 378.729 148.343 376.774L149.18 375.115L149.328 369.401C149.409 366.258 149.41 363.272 149.33 362.765L149.184 361.843L148.894 363.686ZM155.67 368.345C155.67 375.313 157.749 389.202 158.993 390.541C159.151 390.711 159.459 390.297 159.677 389.619C160.937 385.706 161.252 377.405 160.283 373.64C159.61 371.022 156.607 364.608 156.055 364.608C155.813 364.608 155.67 365.996 155.67 368.345ZM177.963 367.834C178.445 369.395 179.304 375.904 179.654 380.645C180.047 385.98 180.578 390.385 181.097 392.627L181.396 393.917L181.727 392.811C181.909 392.203 182.046 388.553 182.032 384.7L182.007 377.696L181.199 374.824C180.365 371.858 178.406 367.189 177.996 367.189C177.868 367.189 177.853 367.479 177.963 367.834ZM309.7 370.599C309.832 372.475 310.182 375.502 310.477 377.327L311.015 380.645L311.806 381.288C312.241 381.642 312.743 381.841 312.921 381.731C313.419 381.424 313.039 375.378 312.37 372.962C311.573 370.082 310.303 367.189 309.837 367.189C309.589 367.189 309.542 368.36 309.7 370.599ZM166.24 371.101C166.11 372.047 166.019 376.49 166.039 380.973L166.074 389.124L166.945 385.622C167.979 381.459 168.109 376.722 167.303 372.513C167.002 370.944 166.693 369.598 166.616 369.521C166.539 369.444 166.369 370.155 166.24 371.101ZM258.73 370.67L257.53 371.797V372.965C257.53 373.608 257.634 374.403 257.761 374.732L257.991 375.331L258.741 374.67L259.492 374.009L259.284 374.839C259.169 375.295 259.202 375.668 259.357 375.668C259.615 375.668 260.275 369.755 260.034 369.608C259.976 369.573 259.39 370.051 258.73 370.67ZM326.544 376.405C326.544 379.855 326.689 382.304 326.893 382.304C327.084 382.304 328.786 381.784 330.675 381.149C332.565 380.514 335.679 379.546 337.596 378.999C339.512 378.453 341.144 377.813 341.223 377.579C341.301 377.345 340.895 376.959 340.321 376.721C339.747 376.483 336.523 374.987 333.156 373.397C329.79 371.808 326.925 370.507 326.79 370.507C326.655 370.507 326.544 373.161 326.544 376.405ZM284.772 372.995C283.763 374.176 279.637 380.558 278.739 382.328C277.641 384.491 276.321 387.925 276.513 388.117C276.857 388.461 280.312 383.586 282.341 379.892C285.453 374.225 286.669 370.778 284.772 372.995ZM388.362 375.668C389.155 376.479 389.887 377.143 389.988 377.143C390.09 377.143 389.524 376.479 388.731 375.668C387.938 374.857 387.206 374.193 387.105 374.193C387.003 374.193 387.569 374.857 388.362 375.668ZM250.703 376.257C248.704 377.274 246.467 379.251 245.705 380.674L245.227 381.567L245.738 382.58C246.019 383.138 246.288 383.655 246.336 383.73C246.383 383.804 247.227 383.039 248.212 382.03C249.196 381.02 250.66 379.779 251.464 379.272C252.269 378.764 253.158 378.072 253.439 377.733L253.951 377.118L253.464 376.208C253.196 375.709 252.881 375.304 252.762 375.309C252.644 375.314 251.718 375.741 250.703 376.257ZM306.455 376.59C306.311 376.995 305.801 378.405 305.323 379.723C304.844 381.041 304.178 383.447 303.843 385.069C303.508 386.691 302.999 388.765 302.712 389.677C301.81 392.547 301.133 395.384 301.309 395.559C301.607 395.857 304.074 394.349 304.802 393.424C305.19 392.931 305.923 391.215 306.43 389.609L307.353 386.69L307.316 382.193C307.296 379.719 307.153 377.281 306.998 376.774L306.717 375.852L306.455 376.59ZM261.072 377.822C260.962 378 261.028 379.503 261.217 381.162C261.578 384.323 263.067 387.834 264.048 387.834C264.685 387.834 264.742 388.168 263.251 383.251C262.54 380.91 261.959 378.753 261.959 378.459C261.959 377.81 261.35 377.373 261.072 377.822ZM271.991 380.331C270.44 383.414 270.132 384.74 269.824 389.632L269.63 392.719L270.039 392.467C270.264 392.328 270.447 391.946 270.447 391.617C270.447 391.289 270.609 390.51 270.808 389.888C271.931 386.358 273.868 377.856 273.608 377.596C273.519 377.508 272.791 378.738 271.991 380.331ZM289.19 380.904C286.001 384.998 282.246 390.218 280.236 393.351C277.926 396.951 275.88 401.106 276.417 401.106C277.001 401.106 281.15 396.604 283.84 393.051C285.9 390.332 292.178 378.451 291.771 378.044C291.662 377.935 290.5 379.222 289.19 380.904ZM350.735 378.221C350.5 378.601 351.48 379.459 353.059 380.259C354.588 381.034 354.822 380.851 353.862 379.632C353.078 378.637 351.045 377.72 350.735 378.221ZM175.117 379.355C174.986 380.064 174.626 382.304 174.319 384.332C173.519 389.609 172.295 394.292 169.36 403.307C167.943 407.661 166.826 411.267 166.879 411.32C166.932 411.373 167.532 410.216 168.212 408.75C169.505 405.962 169.961 405.836 169.378 408.427C169.189 409.267 169.141 409.951 169.272 409.947C169.671 409.936 174.405 402.509 175.192 400.658C176.595 397.359 176.807 387.934 175.655 380.092L175.357 378.064L175.117 379.355ZM318.697 383.533C317.555 386.686 316.804 389.485 316.554 391.521C316.343 393.244 315.69 396.557 315.103 398.883C314.516 401.209 314.097 403.173 314.171 403.247C314.721 403.796 318.169 395.889 319.353 391.36C320.324 387.65 321.142 380.512 320.724 379.397L320.455 378.68L318.697 383.533ZM382.003 379.761C382.25 380.816 386.761 392.471 388.837 397.419C390.78 402.048 392.315 406.938 393.525 412.35C394.069 414.783 394.566 416.827 394.63 416.891C394.695 416.955 394.965 416.374 395.231 415.601C395.913 413.619 395.796 406.154 395.012 401.659C393.072 390.519 389.804 384.346 383.603 380.111L381.796 378.877L382.003 379.761ZM298.762 382.027C298.658 382.483 297.899 386.037 297.076 389.924C295.271 398.446 294.755 400.507 293.167 405.53C292.494 407.659 291.853 410.124 291.743 411.008L291.543 412.615L292.649 411.561C293.997 410.276 296.056 406.104 296.816 403.122C297.124 401.912 297.703 398.682 298.103 395.945C299.134 388.887 299.641 378.174 298.762 382.027ZM148.289 384.466C147.375 386.009 145.544 389.182 144.22 391.516C142.896 393.851 140.713 397.507 139.369 399.641C134.248 407.776 131.773 413.38 130.368 420.024C129.587 423.713 129.724 433.917 130.554 433.917C130.69 433.917 131.018 432.392 131.282 430.528C132.091 424.813 135.066 414.044 136.632 411.161L137.187 410.138L137.202 413.118C137.21 414.757 137.332 416.214 137.473 416.354C137.615 416.496 138.257 414.491 138.901 411.9C140.283 406.335 142.013 401.584 145.045 395.023C148.582 387.37 150.182 383.372 150.061 382.485L149.949 381.66L148.289 384.466ZM250.391 382.364C250.017 382.575 249.471 383.321 249.179 384.021L248.646 385.294L247.942 385.071L247.238 384.848L246.637 385.764C246.306 386.268 246.089 387.147 246.155 387.718L246.274 388.756L247.874 388.683C248.754 388.643 249.688 388.432 249.95 388.215C250.632 387.649 251.33 384.898 251.191 383.324L251.072 381.981L250.391 382.364ZM240.316 383.072C238.081 383.93 235.461 386.121 234.469 387.961L233.764 389.268L234.258 390.191C235.018 391.609 235.814 391.715 236.807 390.53C239.389 387.447 240.889 386.12 242.325 385.646L243.875 385.135V383.943C243.875 383.197 243.657 382.668 243.291 382.528C242.514 382.23 242.501 382.232 240.316 383.072ZM254.866 384.055C253.993 384.979 252.733 387.457 252.733 388.248C252.733 388.426 253.291 388.571 253.974 388.571C255.498 388.571 257.072 387.401 257.76 385.756C258.388 384.253 258.391 384.322 257.689 383.62C256.839 382.772 255.948 382.909 254.866 384.055ZM340.569 384.14C338.843 384.512 336.704 385.081 335.815 385.405C334.059 386.043 330.111 388.202 330.32 388.41C330.39 388.481 331.144 388.299 331.994 388.006C332.844 387.714 334.914 387.114 336.593 386.673L339.646 385.872L344.997 385.839L350.349 385.806L352.932 386.691C358.178 388.487 361.17 391.24 368.46 400.982C370.76 404.056 372.846 406.696 373.093 406.849C374.257 407.568 367.191 395.161 361.888 387.175L360.879 385.655L358.519 384.927C353.259 383.304 345.925 382.982 340.569 384.14ZM198.565 385.767C196.636 387.961 196.168 389.174 196.339 391.535C196.423 392.694 196.777 394.078 197.126 394.609L197.76 395.576H198.87C200.341 395.576 200.611 394.743 199.687 393.057C198.483 390.862 198.404 389.883 199.231 387.431C199.649 386.189 199.936 385.005 199.867 384.8C199.799 384.595 199.213 385.03 198.565 385.767ZM258.245 389.121C257.942 389.424 256.327 390.231 254.657 390.914L251.619 392.156L250.56 393.589C247.835 397.275 245.035 399.021 242.132 398.843L240.484 398.741L239.239 400.456C237.635 402.663 234.544 404.975 232.455 405.53C231.503 405.783 230.013 405.865 228.903 405.727L226.993 405.488L226.003 407.176C225.458 408.105 224.328 409.317 223.49 409.87L221.969 410.875L219.533 410.815L217.098 410.754L216.457 413.58C215.906 416.014 213.695 421.792 213.079 422.406C212.688 422.796 212.572 422.287 212.2 418.559C211.994 416.499 211.531 413.878 211.17 412.735L210.514 410.655L209.402 410.765L208.29 410.875L207.828 413.168C207.202 416.271 206.282 417.94 204.047 420.028C202.319 421.642 198.941 423.582 197.842 423.591C197.593 423.593 196.719 423.862 195.901 424.189L194.413 424.784L195.21 426.124C196.247 427.867 200.142 431.908 201.836 432.999C202.565 433.468 203.852 434.059 204.696 434.312C205.541 434.564 206.231 434.88 206.231 435.013C206.231 435.418 201.726 435.003 199.918 434.431C198.983 434.135 197.428 433.392 196.462 432.78C195.495 432.168 194.667 431.717 194.62 431.778C194.573 431.839 194.333 434.029 194.086 436.643C193.774 439.953 193.261 442.639 192.396 445.488C191.713 447.738 191.184 449.6 191.22 449.626C191.255 449.653 193.211 450.522 195.566 451.558C202.131 454.446 206.697 455.245 210.668 454.201C212.533 453.711 217.397 451.188 221.013 448.833L223.432 447.258L223.282 444.9L223.131 442.543L224.047 439.914C226.24 433.614 229.743 428.896 239.999 418.433C244.272 414.074 248.973 409.215 250.447 407.636C254.111 403.709 260.505 395.629 261.736 393.37L262.747 391.513L261.892 390.446C261.112 389.473 259.754 388.571 259.068 388.571C258.918 388.571 258.548 388.819 258.245 389.121ZM201.802 390.166C201.802 390.963 202.093 391.662 202.633 392.164L203.463 392.936L204.466 392.741L205.468 392.545L203.947 390.743C203.11 389.751 202.285 388.94 202.113 388.94C201.943 388.94 201.802 389.492 201.802 390.166ZM238.377 391.331L236.462 393.353L236.846 394.07C237.058 394.465 237.771 395.172 238.431 395.642L239.631 396.497H241.845H244.06L245.396 395.594C246.553 394.812 248.673 392.092 248.673 391.39C248.673 390.888 246.202 391.201 244.665 391.897C243.78 392.298 242.504 392.627 241.83 392.627H240.603L240.379 391.921C240.256 391.532 240.262 390.786 240.394 390.262C240.526 389.737 240.557 389.309 240.462 389.309C240.369 389.309 239.43 390.218 238.377 391.331ZM379.699 389.413C379.693 389.572 380.085 390.484 380.569 391.441C382.816 395.885 386.924 408.22 388.023 413.825L388.529 416.405L388.37 413.429C388.146 409.241 386.87 402.355 385.738 399.218C385.21 397.757 384.121 395.469 383.319 394.134C381.822 391.643 379.717 388.897 379.699 389.413ZM229.12 390.309C227.595 390.607 224.471 392.911 223.345 394.568C222.174 396.292 221.611 397.788 222.132 397.788C222.318 397.788 222.47 398.019 222.47 398.301C222.47 399.266 223.723 399.372 224.296 398.457C224.59 397.988 225.586 396.857 226.51 395.945L228.19 394.286L230.3 393.626C231.46 393.262 232.507 392.807 232.627 392.613C232.747 392.419 232.627 391.804 232.36 391.246C231.862 390.202 230.979 389.947 229.12 390.309ZM337.303 390.625C334.233 391.45 329.593 393.613 326.452 395.682C323.664 397.52 322.575 398.689 324.607 397.663C326.186 396.867 331.281 395.292 333.852 394.806C335.329 394.527 337.953 394.441 341.049 394.572L345.92 394.777L350.099 396.12C352.398 396.858 355.553 398.067 357.111 398.805C358.67 399.544 360.11 400.214 360.313 400.295C361.237 400.662 357.063 397.239 354.408 395.453C350.822 393.039 348.209 391.799 344.605 390.802C341.441 389.926 340.031 389.892 337.303 390.625ZM274.525 393.888C274.096 394.581 272.506 396.518 270.992 398.191C269.41 399.939 267.393 402.735 266.249 404.764C263.748 409.203 262.607 411.462 262.78 411.634C262.979 411.832 268.835 406.815 271.207 404.414C272.335 403.272 273.454 401.853 273.694 401.261C274.403 399.509 275.923 392.627 275.602 392.627C275.439 392.627 274.954 393.194 274.525 393.888ZM397.786 393.226C397.779 393.656 398.093 395.979 398.485 398.387C398.876 400.795 399.477 404.839 399.82 407.373C400.906 415.404 403.31 424.075 405.7 428.58L406.878 430.801L408.202 428.58C410.816 424.196 411.691 420.018 411.061 414.931C410.268 408.517 406.745 401.747 401.2 395.979L397.8 392.442L397.786 393.226ZM164.928 394.135C164.911 394.863 164.556 397.088 164.139 399.079C163.723 401.07 163.44 403.129 163.511 403.654L163.638 404.608L164.256 402.58C165.085 399.858 165.637 395.055 165.262 393.815L164.96 392.811L164.928 394.135ZM149.478 394.199C147.57 396.227 145.415 403.255 145.326 407.742C145.232 412.455 145.342 414.378 145.705 414.378C145.908 414.378 146.074 413.796 146.074 413.084C146.074 411.511 148.327 400.914 149.566 396.656C150.06 394.959 150.418 393.525 150.362 393.469C150.306 393.413 149.908 393.741 149.478 394.199ZM133.229 396.425C130.87 398.803 130.582 399.262 131.45 399.262C132.332 399.262 136.137 394.743 135.658 394.264C135.579 394.186 134.486 395.158 133.229 396.425ZM202.596 395.103C201.625 396.916 203.087 400.101 204.977 400.293L206.049 400.402L207.516 398.901L208.983 397.4L208.593 396.783C207.862 395.625 206.317 394.758 204.649 394.57L202.983 394.382L202.596 395.103ZM214.904 396.461C212.606 397.189 210.407 398.428 210.129 399.152C209.822 399.95 211.101 401.111 212.269 401.094C212.703 401.088 213.889 400.675 214.904 400.176C215.919 399.677 217.182 399.268 217.711 399.266C218.342 399.264 219.012 398.853 219.661 398.07L220.649 396.878L219.437 396.44C217.88 395.875 216.737 395.881 214.904 396.461ZM228.19 397.492C226.782 398.291 224.315 400.46 224.315 400.898C224.315 401.796 227.1 402.949 229.267 402.949H231.351L233.162 402.033C235.051 401.076 237.098 398.835 236.688 398.172C236.28 397.513 234.528 397.772 232.988 398.719C230.533 400.229 228.56 399.656 229.328 397.655C229.598 396.954 229.232 396.901 228.19 397.492ZM197.263 398.816C197.63 401.251 199.296 403.418 201.156 403.882L202.171 404.135L202.165 403.081C202.161 402.502 201.704 401.342 201.15 400.505C200.595 399.667 199.975 398.733 199.772 398.428C199.57 398.124 198.875 397.778 198.229 397.661L197.055 397.448L197.263 398.816ZM180.884 400.28C180.649 400.836 180.092 402.159 179.645 403.221L178.834 405.151L179.062 407.645C179.187 409.016 179.394 412.83 179.522 416.121C179.658 419.625 179.895 422.017 180.095 421.894C180.282 421.778 180.366 421.491 180.28 421.256C180.092 420.741 181.017 418.366 181.528 418.05C181.729 417.926 182.127 416.039 182.414 413.856L182.936 409.887L182.609 405.957C182.43 403.796 182.064 401.407 181.797 400.649L181.312 399.27L180.884 400.28ZM306.421 402.62C304.802 404.499 302.117 407.244 300.454 408.721L297.429 411.407L298.437 412.123C298.99 412.517 300.043 412.952 300.776 413.09L302.109 413.339L303.636 411.961C304.476 411.204 305.72 409.571 306.4 408.333C307.705 405.96 309.721 400.275 309.497 399.602C309.424 399.384 308.04 400.742 306.421 402.62ZM132.27 399.908C132.121 400.06 131.305 400.355 130.456 400.564L128.913 400.944L127.139 404.435L125.365 407.926L124.807 411.188C124.499 412.981 124.323 414.524 124.415 414.615C124.789 414.989 130.653 404.771 132.221 401.014C132.79 399.65 132.803 399.366 132.27 399.908ZM284.252 407.092C279.802 414.934 275.511 423.467 275.712 424.072C275.784 424.287 276.226 423.811 276.694 423.014C278.266 420.345 281.332 415.867 281.594 415.859C281.736 415.856 281.611 416.641 281.315 417.604C280.591 419.962 278.492 430.279 278.695 430.481C278.93 430.716 281.22 426.8 282.739 423.568C284.231 420.391 286.263 413.444 287.369 407.742C288.214 403.383 288.681 400 288.438 400C288.349 400 286.465 403.191 284.252 407.092ZM156.726 402.653C155.695 406.661 156.416 417.145 157.752 417.59C158.308 417.775 158.991 414.87 158.991 412.321C158.991 410.514 157.642 401.129 157.337 400.809C157.277 400.748 157.003 401.577 156.726 402.653ZM218.041 400.983C216.401 401.539 212.874 403.528 212.874 403.897C212.874 404.674 214.379 406.253 216.057 407.235L217.709 408.202L219.443 408.007L221.178 407.812L222.562 406.255C223.323 405.399 223.946 404.553 223.946 404.376C223.946 404.2 222.825 404.053 221.455 404.05C220.085 404.047 218.59 403.945 218.133 403.823C217.071 403.539 217.061 402.466 218.111 401.489C218.953 400.705 218.948 400.675 218.041 400.983ZM258.026 405.42C253.366 410.041 250.308 414.035 248.203 418.249C246.794 421.07 244.538 428.756 245.118 428.756C245.211 428.756 246.118 427.221 247.134 425.345C249.297 421.351 252.575 416.59 253.163 416.59C253.561 416.59 253.507 417.846 252.909 422.488L252.695 424.147L253.243 423.202C253.544 422.682 254.639 419.945 255.675 417.119C256.711 414.293 258.806 409.515 260.33 406.5C261.855 403.486 263.031 400.947 262.943 400.86C262.856 400.773 260.643 402.825 258.026 405.42ZM204.168 403.133C203.809 404.561 204.268 405.744 205.809 407.362L207.224 408.848H209.126H211.029V408.133C211.029 407.74 210.347 406.631 209.514 405.67C208.681 404.708 207.824 403.537 207.61 403.067L207.22 402.212H205.81H204.4L204.168 403.133ZM187.893 410.322C186.852 413.889 185.695 419.76 185.388 423.041L185.146 425.622L185.9 424.495C187.251 422.474 188.615 417.099 188.796 413.087C188.887 411.06 188.903 408.986 188.831 408.479L188.701 407.557L187.893 410.322ZM270.626 418.296C266.975 421.641 261.636 426.535 258.76 429.171C252.468 434.94 251.784 436.013 255.021 435.044C257.255 434.375 260.769 432.015 265.422 428.057L266.117 427.465L265.839 428.387C265.525 429.425 262.853 434.858 261.167 437.884C260.556 438.982 260.14 439.965 260.244 440.068C260.495 440.319 264.42 435.006 266.474 431.634C270.685 424.72 277.572 412.524 277.375 412.327C277.313 412.265 274.276 414.951 270.626 418.296ZM294.585 413.71C293.921 414.992 290.797 419.194 287.158 423.698C285.884 425.275 284.841 426.622 284.841 426.691C284.841 427.073 288.376 426.073 289.267 425.439C292.146 423.392 294.468 418.985 295.339 413.917C295.63 412.225 295.388 412.158 294.585 413.71ZM202.484 415.211C201.337 416.071 199.389 417.355 198.156 418.064C195.587 419.542 195.054 420.277 196.555 420.274C199.406 420.269 201.922 418.71 204.038 415.637C205.798 413.081 205.453 412.986 202.484 415.211ZM309.472 416.498C306.4 421.075 304.11 425.055 301.508 430.336C298.017 437.423 295.493 442.838 295.622 442.963C295.756 443.093 299.751 437.762 301.71 434.839C303.951 431.495 306.311 426.925 308.755 421.198C310.785 416.438 311.64 414.009 311.285 414.009C311.206 414.009 310.391 415.129 309.472 416.498ZM168.218 415.045C168.218 415.209 165.624 418.236 162.453 421.773C159.283 425.309 155.821 429.364 154.76 430.783C151.767 434.789 149.347 438.415 149.539 438.607C149.884 438.952 153.004 436.501 155.122 434.22C158.8 430.259 163.107 424.601 166.096 419.802C167.669 417.277 168.956 415.106 168.956 414.978C168.956 414.851 168.79 414.746 168.587 414.746C168.384 414.746 168.218 414.881 168.218 415.045ZM377.302 417.209C377.823 418.592 378.919 422.212 379.736 425.253C383.15 437.958 385.567 445.813 386.148 446.091C386.582 446.298 386.992 443.575 387.037 440.184C387.106 434.886 383.388 424.664 379.017 418.135C377.888 416.45 376.828 414.987 376.66 414.883C376.492 414.78 376.781 415.826 377.302 417.209ZM127.098 418.384C126.939 418.641 126.909 418.95 127.031 419.072C127.361 419.402 127.721 418.917 127.543 418.382L127.387 417.917L127.098 418.384ZM139.926 422.12L140.071 425.991L141.034 428.501C141.965 430.926 144.858 435.76 145.378 435.76C145.518 435.76 145.962 435.201 146.366 434.518L147.1 433.276L145.451 430.555C143.613 427.521 142.452 425.109 140.857 421.014L139.78 418.249L139.926 422.12ZM239.184 423.393C232.49 430.684 228.876 437.141 228.134 443.133L227.883 445.161L230.572 442.765C232.051 441.447 234.113 439.686 235.154 438.853C236.195 438.019 237.432 436.919 237.901 436.408L238.754 435.479L240.758 427.786C241.86 423.554 242.721 420.002 242.672 419.891C242.624 419.781 241.054 421.357 239.184 423.393ZM170.671 421.014C170.188 422.294 168.209 430.985 167.86 433.364C167.652 434.783 167.388 436.5 167.273 437.179C167.143 437.943 167.202 438.328 167.426 438.19C168.206 437.708 170.373 433.24 170.941 430.944C171.568 428.408 171.716 422.49 171.184 421.198L170.881 420.461L170.671 421.014ZM399.22 423.974C400.018 426.074 401.849 429.059 402.944 430.05C403.348 430.415 403.678 430.599 403.678 430.46C403.678 429.623 399.184 422.12 398.683 422.12C398.59 422.12 398.831 422.954 399.22 423.974ZM123.624 424.784C122.56 426.504 120.721 432.147 120.096 435.612C119.769 437.422 119.596 440.549 119.639 443.871L119.708 449.216L120.568 451.14C121.041 452.199 121.647 453.246 121.915 453.467L122.401 453.871L124.224 451.175C125.227 449.692 126.812 447.63 127.748 446.592L129.448 444.704L128.162 442.168C126.204 438.305 125.413 434.533 124.857 426.397C124.761 424.999 124.616 423.787 124.534 423.705C124.451 423.623 124.042 424.108 123.624 424.784ZM294.579 425.872C292.963 428.43 290.053 433.909 288.544 437.235C287.762 438.958 286.196 442.324 285.063 444.714C283.93 447.104 282.891 449.504 282.754 450.048L282.506 451.035L284.286 449.034C286.547 446.491 289.349 442.21 290.924 438.894C292.759 435.03 296.256 424.332 295.684 424.332C295.612 424.332 295.115 425.025 294.579 425.872ZM135.167 425.345C135.012 425.7 134.81 428.333 134.719 431.197L134.554 436.404L135.422 438.294C135.899 439.334 136.479 440.184 136.711 440.184C136.943 440.184 137.422 439.742 137.776 439.202L138.421 438.22L137.451 433.948C136.917 431.599 136.297 428.558 136.073 427.189C135.848 425.82 135.617 424.7 135.558 424.7C135.499 424.7 135.323 424.99 135.167 425.345ZM178.183 425.871C178.183 426.698 171.556 439.688 170.287 441.348L169.012 443.016L166.493 443.42C165.107 443.642 162.853 443.729 161.483 443.612C158.474 443.357 158.268 443.785 160.711 445.215L162.431 446.222L164.125 446.196C166.277 446.163 168.219 445.35 170.687 443.448C172.736 441.869 175.685 438.164 177.058 435.445C178.487 432.614 179.558 425.438 178.552 425.438C178.349 425.438 178.183 425.633 178.183 425.871ZM396.782 427.465C397.277 428.479 398.099 430.47 398.609 431.89C400.612 437.465 403.962 444.2 406.261 447.276C407.596 449.06 408.107 449.405 408.107 448.52C408.107 447.672 405.188 439.489 404.168 437.479C402.532 434.253 399.324 429.385 397.569 427.465L395.883 425.622L396.782 427.465ZM249.478 429.578C248.428 431.133 246.723 433.533 245.69 434.912C243.378 437.996 241.21 442.481 240.392 445.868C239.69 448.774 239.198 453.407 239.634 453.002C239.793 452.854 240.404 451.278 240.991 449.5C242.017 446.394 246.403 437.235 246.865 437.235C246.988 437.235 246.853 438.106 246.566 439.17C245.692 442.407 245.452 454.215 246.277 453.391C246.361 453.307 246.928 450.758 247.537 447.726C248.145 444.693 249.319 438.908 250.145 434.871C250.971 430.833 251.588 427.355 251.517 427.141C251.446 426.927 250.528 428.024 249.478 429.578ZM273.507 427.557C273.376 427.912 271.25 431.438 268.783 435.392C264.538 442.194 261.221 447.917 261.221 448.437C261.221 448.943 265.577 445.152 267.578 442.905C270.522 439.598 271.321 438.049 272.623 433.124C273.248 430.762 273.923 428.398 274.124 427.871C274.367 427.232 274.365 426.912 274.117 426.912C273.913 426.912 273.638 427.202 273.507 427.557ZM114.38 430.312C112.098 433.088 109.397 438.165 108.623 441.134C107.503 445.429 108.177 450.537 110.195 453.052C111.193 454.297 115.028 456.942 115.357 456.613C115.44 456.531 115.091 455.745 114.581 454.868C114.072 453.99 113.357 452.276 112.993 451.06L112.331 448.848L112.374 444.792C112.425 439.818 113.478 434.822 115.278 431.006C115.986 429.506 116.501 428.215 116.424 428.138C116.346 428.061 115.426 429.039 114.38 430.312ZM185.647 434.387L182.98 437.068L182.988 438.903C182.993 439.912 183.303 441.411 183.678 442.236C184.444 443.92 186.602 446.537 187.015 446.283C187.794 445.801 189.249 431.705 188.52 431.705C188.406 431.705 187.113 432.912 185.647 434.387ZM179.889 441.336C179.31 444.232 180.097 446.497 182.15 447.841L182.98 448.385V447.361C182.98 446.799 182.561 445.454 182.05 444.373C181.538 443.292 181.019 441.907 180.896 441.296C180.609 439.861 180.181 439.878 179.889 441.336ZM280.901 443.596C279.648 445.471 277.118 448.829 275.28 451.06C273.441 453.29 271.248 455.988 270.406 457.055L268.876 458.994L268.746 461.202C268.674 462.416 268.765 463.41 268.948 463.41C269.729 463.41 273.56 459.415 275.267 456.822C278.152 452.438 283.589 441.406 283.295 440.532C283.232 440.343 282.154 441.722 280.901 443.596ZM309.338 442.869C304.759 447.712 300.112 454.081 297.561 459.01C296.631 460.807 297.42 460.2 300.629 456.651C304.101 452.813 309.574 445.052 312.046 440.461C312.448 439.713 311.65 440.423 309.338 442.869ZM142.938 444.565C139.948 448.228 136.13 454.41 134.984 457.441L134.191 459.539L134.363 461.757C134.583 464.6 135.897 467.833 137.921 470.511C138.801 471.675 139.625 472.627 139.752 472.627C139.88 472.627 139.928 471.164 139.858 469.377C139.709 465.532 140.648 456.797 141.62 453.004C141.998 451.526 143.068 448.337 143.998 445.918C144.928 443.499 145.651 441.493 145.605 441.459C145.558 441.427 144.358 442.824 142.938 444.565ZM151.94 442.49C150.255 443.939 148.353 446.599 147.121 449.231L145.924 451.784L145.784 454.924L145.644 458.064L146.532 460.653C147.021 462.077 148.072 464.218 148.87 465.411C149.666 466.603 150.603 468.002 150.95 468.52C151.668 469.589 151.534 470.01 150.696 469.316L150.134 468.85V469.608C150.134 470.875 150.855 472.376 152.094 473.689C153.334 475.003 157.556 477.87 157.837 477.589C157.928 477.499 157.061 476.439 155.91 475.234C153.179 472.374 151.492 468.845 150.666 464.266L150.029 460.732L150.286 454.79C150.547 448.715 151.114 445.551 152.384 443.063C152.779 442.291 153.057 441.66 153.002 441.661C152.947 441.662 152.469 442.035 151.94 442.49ZM392.979 443.889C392.988 445.459 394.178 454.269 394.594 455.852C394.897 457.007 396.008 459.004 397.569 461.198C398.938 463.124 400.417 465.364 400.854 466.175L401.648 467.65L401.757 464.753C401.88 461.46 400.925 457.024 399.443 454.009C398.437 451.963 393.855 444.255 393.318 443.705C393.103 443.486 392.976 443.555 392.979 443.889ZM256.415 445.806C255.562 447.195 254.112 450.901 254.334 451.124C254.417 451.206 255.004 450.838 255.639 450.305L256.792 449.335V447.917C256.792 447.137 256.954 446.074 257.152 445.554C257.649 444.249 257.297 444.37 256.415 445.806ZM135.985 447.86C135.375 448.533 133.774 452.721 134.03 452.976C134.215 453.161 137.217 448.083 137.217 447.585C137.217 446.986 136.666 447.109 135.985 447.86ZM404.432 448.368C404.423 448.509 404.821 449.919 405.315 451.501C407.301 457.856 407.905 461.272 408.472 469.36C408.676 472.272 408.949 475.387 409.079 476.284L409.316 477.913L409.831 477.21C410.114 476.824 410.696 475.427 411.125 474.106L411.905 471.705L411.908 466.912L411.91 462.12L410.908 458.617C410.323 456.57 409.392 454.349 408.668 453.272C407.321 451.268 404.457 447.952 404.432 448.368ZM164.845 450.138C162.935 452.668 161.526 455.292 161.495 456.376C161.462 457.529 163.397 461.084 164.71 462.284C165.716 463.203 169.694 465.701 169.694 465.414C169.694 465.287 169.37 464.728 168.973 464.172C168.577 463.616 167.81 461.848 167.27 460.244L166.287 457.327L166.053 453.087L165.819 448.848L164.845 450.138ZM223.81 451.705C221.875 454.247 220.624 459.619 220.624 465.389C220.624 468.815 221.447 473.364 222.066 473.364C222.197 473.364 222.33 471.498 222.363 469.216C222.431 464.497 223.059 461.397 224.923 456.595L226.213 453.272L225.803 451.889C225.577 451.129 225.242 450.507 225.057 450.507C224.873 450.507 224.311 451.046 223.81 451.705ZM264.049 454.621C263.137 456.515 262.199 458.792 261.963 459.681C261.541 461.273 261.755 464.715 262.296 465.049C262.444 465.14 263.067 464.91 263.681 464.537L264.797 463.859L265.021 458.934C265.143 456.225 265.415 453.439 265.625 452.743C266.322 450.426 265.724 451.139 264.049 454.621ZM154.569 453.825L154.563 455.852L155.62 458.064C156.611 460.135 159.628 464.003 159.979 463.652C160.066 463.565 159.355 462.284 158.397 460.805C156.559 457.968 155.304 455.105 155.295 453.728C155.292 453.275 155.128 452.654 154.932 452.35L154.574 451.797L154.569 453.825ZM190.352 452.927C190.154 453.447 189.992 453.995 189.992 454.145C189.992 454.809 192.582 456.822 194.606 457.729L196.82 458.722L199.664 458.759C201.296 458.781 202.682 458.624 202.915 458.39L203.322 457.984L202.008 457.77C200.348 457.501 197.077 455.849 193.89 453.669C192.533 452.741 191.262 451.981 191.067 451.981C190.872 451.981 190.55 452.407 190.352 452.927ZM183.079 454.286C182.186 455.788 178.209 460.716 176.929 461.907C176.4 462.399 175.968 463.02 175.968 463.288V463.776L177.882 463.049C181.472 461.686 184.457 457.82 184.457 454.531C184.457 452.773 184.024 452.696 183.079 454.286ZM218.674 454.569C214.86 457.923 211.567 462.982 210.467 467.179C209.708 470.076 209.88 473.849 210.814 474.782L211.398 475.365V474.61C211.398 472.926 213.108 468.723 216.82 461.283C218.972 456.97 220.651 453.36 220.551 453.26C220.451 453.16 219.607 453.749 218.674 454.569ZM132.844 454.562C132.631 455.17 132.599 455.668 132.771 455.668C132.944 455.668 133.259 455.17 133.471 454.562C133.683 453.954 133.716 453.456 133.543 453.456C133.371 453.456 133.056 453.954 132.844 454.562ZM251.939 455.279C249.231 456.397 247.299 456.99 246.721 456.879L245.804 456.704L245.04 459.043C244.619 460.33 244.163 462.419 244.027 463.686L243.78 465.991H244.246C245.09 465.991 257.161 454.654 257.161 453.861C257.161 453.217 256.504 453.396 251.939 455.279ZM228.383 455.023C228.393 456.568 229.489 458.927 230.725 460.064C231.259 460.556 231.696 460.786 231.696 460.576C231.696 460.094 228.767 453.825 228.541 453.825C228.45 453.825 228.378 454.364 228.383 455.023ZM289.231 455.574C288.191 456.853 287.138 458.484 286.308 460.103C285.35 461.972 283.013 468.94 283.344 468.94C283.673 468.94 285.707 465.721 287.009 463.138C288.098 460.977 290.109 455.278 289.867 455.036C289.807 454.976 289.52 455.218 289.231 455.574ZM237.328 459.438C236.553 460.402 235.062 463.697 234.45 465.8L233.817 467.974L233.993 471.314L234.168 474.654L234.967 476.216C235.512 477.281 236.25 478.025 237.29 478.555L238.813 479.331L238.551 478.652C237.774 476.636 237.191 473.055 237.001 469.124L236.787 464.7L237.373 461.96C237.98 459.121 237.971 458.639 237.328 459.438ZM254.706 464.396C252.546 468.237 251.646 471.224 251.635 474.588L251.625 477.472L252.121 476.977C252.727 476.371 253.475 475.007 253.659 474.169C253.734 473.828 254.39 470.994 255.117 467.873C255.844 464.751 256.367 462.126 256.28 462.038C256.193 461.951 255.485 463.012 254.706 464.396ZM275.755 466.459L274.323 469.493V473.4C274.323 476.069 274.489 477.617 274.846 478.285C275.134 478.823 275.466 479.262 275.584 479.262C275.702 479.262 276.269 478.426 276.843 477.404L277.888 475.546L277.769 469.629C277.704 466.375 277.546 463.648 277.418 463.569C277.291 463.49 276.542 464.791 275.755 466.459ZM130.798 465.724C130.463 467.507 131.176 472.347 132.047 474.196C132.855 475.913 135.928 479.198 136.341 478.785C136.477 478.65 136.214 477.582 135.757 476.412C135.3 475.243 134.154 472.089 133.211 469.403C132.268 466.718 131.391 464.52 131.261 464.518C131.131 464.517 130.923 465.06 130.798 465.724ZM265.834 467.162C264.025 468.171 261.22 470.921 260.515 472.375C260.092 473.25 259.745 474.6 259.745 475.377V476.788L260.973 475.168C262.339 473.368 266.834 466.722 266.674 466.739C266.618 466.745 266.24 466.936 265.834 467.162Z" fill="#A51E13"/>
</g>
<defs>
<clipPath id="clip0_172_6">
<rect width="365" height="400" fill="white" transform="translate(57.5 80)"/>
</clipPath>
</defs>
</svg>
