<svg width="365" height="400" viewBox="0 0 365 400" fill="none" xmlns="http://www.w3.org/2000/svg">
<g clip-path="url(#clip0_172_3)">
<path fill-rule="evenodd" clip-rule="evenodd" d="M84.5925 0.343397C84.6512 0.478328 85.7787 1.56146 87.0981 2.7504C88.4175 3.93897 92.0712 7.34801 95.2174 10.3261C98.3636 13.3038 102.1 16.8293 103.521 18.1602C104.942 19.491 106.022 20.6498 105.92 20.7346C105.554 21.0405 93.8212 23.5884 89.3124 24.3404C83.3872 25.3292 74.1433 25.668 68.8341 25.091C66.6035 24.8485 62.2098 23.9954 59.0698 23.1954C55.9299 22.395 53.207 21.7915 53.0187 21.8542C52.4585 22.0407 56.9503 25.8888 59.4758 27.3863C62.8187 29.3679 67.0766 30.6638 70.9517 30.8787C72.728 30.9771 74.181 31.1795 74.181 31.3288C74.181 31.7097 66.8352 34.7957 63.2937 35.9028C60.5114 36.7725 57.436 37.3797 54.0672 37.7248C51.396 37.9983 45.7309 37.2219 42.295 36.1115C37.7939 34.6568 34.0816 32.5288 31.0331 29.6562C29.6466 28.3497 28.3833 27.2809 28.2257 27.2809C27.4665 27.2809 28.8258 36.3017 30.1444 40.0157C30.8899 42.1148 34.0299 46.1727 36.4026 48.1034C39.6721 50.7637 45.0862 53.0704 48.0918 53.0829C48.662 53.0855 49.034 53.24 48.9189 53.4262C48.8037 53.6127 45.4866 55.4273 41.548 57.4593C33.5018 61.6098 28.9542 64.3279 24.7078 67.5242C21.5723 69.8844 15.0307 76.5893 15.3536 77.1113C15.4632 77.2883 16.828 76.2542 18.3866 74.8131C23.3965 70.1827 31.4826 65.2614 38.9498 62.2984C42.1285 61.0368 42.6079 60.9421 41.3247 61.8276C40.1179 62.6608 32.1551 69.3462 27.3853 73.5316C17.4296 82.2674 9.81182 87.0409 3.83232 88.2907C2.49595 88.5698 1.3312 88.8699 1.24336 88.9572C0.917482 89.2828 4.34236 89.7255 7.19666 89.7262C10.692 89.7277 13.9338 88.9373 17.6765 87.1714C20.6515 85.7679 21.3763 85.7215 19.5779 87.0494C18.2212 88.0514 13.3651 94.1771 10.9005 97.9958C7.16861 103.778 3.49352 112.777 1.99034 119.815L1.32086 122.949L1.32271 128.663C1.32492 134.782 1.97631 139.271 3.37394 142.796L4.12867 144.7L3.91093 146.359C3.07574 152.729 2.98348 154.782 3.31969 159.531C3.71348 165.091 4.42392 168.259 6.26257 172.649L7.46829 175.528L6.61724 176.433C6.14927 176.93 4.46894 178.204 2.88309 179.262C1.29724 180.321 0 181.309 0 181.46C0 182.027 5.73002 180.488 7.72885 179.383L8.62972 178.885L10.4274 181.147C11.4161 182.392 13.4146 184.33 14.8687 185.454L17.5122 187.498L17.9359 188.772C18.1692 189.473 18.8147 191.539 19.3705 193.364C21.6417 200.819 25.5349 206.102 31.8343 210.279C33.7442 211.546 37.9504 213.273 38.2925 212.931C38.3796 212.844 37.9925 212.388 37.4326 211.916C34.41 209.372 33.8173 208.783 32.8068 207.316C31.5524 205.495 31.8377 205.303 33.8114 206.641C34.5632 207.15 36.4528 208.163 38.0109 208.892L40.8435 210.216L42.4592 213.577C47.1009 223.229 55.2807 229.309 63.6274 229.309H66.0617L66.0628 232.534C66.0646 237.194 66.7061 243.554 67.7073 248.848C69.2526 257.017 72.9151 264.569 77.3833 268.802C79.1024 270.43 83.5695 273.143 85.0232 273.441L86.085 273.659L85.875 280.516C85.7484 284.661 85.4347 288.394 85.0826 289.954C83.2584 298.035 80.0018 304.69 75.0439 310.468C68.9422 317.579 60.5557 320.672 52.7733 318.68C49.027 317.721 49.4293 318.775 53.5074 320.603C57.5091 322.396 61.3093 322.818 64.9969 321.877C66.4961 321.495 67.7675 321.223 67.8221 321.274C67.8771 321.325 67.3364 322.598 66.6204 324.104C65.1586 327.179 64.2164 331.434 64.2164 334.962V337.324L61.2255 340.36C55.714 345.956 50.4774 353.734 48.6243 359.078L47.7932 361.474L47.8072 366.083L47.8216 370.691L48.6406 372.748C50.2737 376.848 53.769 379.537 58.0405 379.977L60.0704 380.186L59.1551 381.522C56.7706 385 52.7759 394.279 51.8673 398.449L51.6027 399.663L54.4621 399.555L57.3212 399.447L58.3756 395.404C59.5227 391.006 60.1305 389.841 60.1988 391.908C60.2767 394.263 60.49 395.352 61.2927 397.496L62.0921 399.631H65.3937H68.6953L67.9734 398.617C67.1157 397.413 66.1879 394.433 65.6779 391.243C65.3018 388.892 65.6915 383.776 66.4854 380.645C66.9884 378.661 70.5159 371.244 70.9565 371.244C71.1495 371.244 71.2067 371.507 71.0835 371.828C70.9602 372.148 70.5801 374.43 70.2387 376.897C69.402 382.947 69.4626 391.695 70.3719 396.129L71.0525 399.447L115.395 399.54L159.737 399.634L159.759 395.56C159.771 393.319 159.879 391.327 159.998 391.134C160.311 390.629 160.91 390.702 160.91 391.244C160.91 391.498 161.443 393.488 162.095 395.668L163.28 399.631H187.387H211.494L211.617 399.17C211.685 398.917 212.136 397.465 212.62 395.944L213.501 393.18L213.614 395.159C213.676 396.248 213.551 397.643 213.336 398.26C213.12 398.877 212.994 399.432 213.055 399.493C213.16 399.598 272.54 399.691 312.743 399.65L331.16 399.631L330.907 385.53C330.767 377.774 330.553 370.392 330.43 369.124C330.194 366.692 330.772 365.819 331.163 368.018C331.28 368.677 331.789 371.539 332.295 374.378C333.565 381.511 334.473 389.94 334.312 393.115L334.178 395.773L333.222 397.702L332.267 399.631H336.285H340.303L340.074 395.299C339.948 392.917 339.78 390.76 339.701 390.507C339.472 389.768 340.21 389.976 340.635 390.771C341.339 392.085 342.478 396.107 342.483 397.297C342.485 397.939 342.588 398.727 342.711 399.048L342.935 399.631L348.155 399.63L353.375 399.629L354.505 398.94C356.144 397.941 357.868 395.02 358.794 391.673L359.601 388.756L359.582 382.488L359.562 376.221L358.431 371.963C356.74 365.595 354.29 359.817 351.026 354.5L349.687 352.318L350.239 352.147C351.248 351.835 354.673 347.862 355.589 345.943C358.057 340.771 357.601 331.987 354.501 324.986C352.751 321.031 348.148 314.095 343.537 308.462C342.508 307.204 340.676 304.931 339.467 303.41C338.257 301.889 337.032 300.354 336.743 299.998L336.217 299.351L337.879 297.096C338.89 295.724 339.865 293.813 340.368 292.213L341.196 289.585L341.155 284.608L341.114 279.631L340.112 275.638C338.665 269.862 335.704 261.41 333.604 257.057C332.604 254.983 331.785 253.241 331.785 253.187C331.785 253.132 333.57 253.078 335.752 253.067L339.719 253.046L342.352 252.105C343.799 251.586 345.36 250.899 345.82 250.578L346.656 249.993L345.227 249.15L343.798 248.308L346.491 247.683C350.67 246.713 355.005 237.065 355.22 236.374C355.872 234.274 363.581 212.884 364.471 204.284L364.714 201.932L364.211 202.23C363.935 202.394 363.21 202.895 362.601 203.344C360.379 204.98 352.98 208.33 350.535 208.808C350.067 208.899 348.967 209.233 348.089 209.549C347.212 209.865 345.123 210.294 343.447 210.502C338.565 211.108 335.18 210.148 332.548 207.411C331.187 205.996 331.196 205.373 332.566 206.106C334.238 207 337.208 207.584 341.196 207.803C343.428 207.926 345.172 207.942 345.071 207.837C344.969 207.733 343.641 207.115 342.118 206.464C337.261 204.387 331.055 200.853 331.048 200.16C331.047 200.046 331.602 199.687 332.281 199.364C334.265 198.419 338.044 194.687 339.928 191.811C343.149 186.893 345.071 179.941 345.071 173.201V169.525L343.318 171.563C340.248 175.13 336.224 177.727 331.276 179.333C329.677 179.852 327.998 180.276 327.544 180.276H326.72L326.466 177.788C326.113 174.319 323.963 168.142 321.952 164.821C319.427 160.65 316.775 157.59 310.49 151.592L304.813 146.175L305.378 144.332C306.092 142 306.103 138.145 305.408 133.546C304.097 124.875 301.585 119.26 291.433 102.304C283.63 89.2717 279.914 82.5111 273.571 69.807C267.978 58.6051 264.687 52.4544 262.653 49.4007C257.608 41.8254 251.656 35.4667 245.536 31.1146C240.982 27.8759 238.074 26.2162 227.683 20.9263C223.101 18.5933 216.873 15.0627 213.843 13.08C210.813 11.0969 207.255 8.96643 205.935 8.34524L203.536 7.21602L200.208 7.07003C196.554 6.90967 190.29 7.6068 180.916 9.21749L174.903 10.2505L171.689 9.15962C169.922 8.5598 167.728 7.81989 166.815 7.51537C165.902 7.21049 163.493 6.87796 161.464 6.77621L157.773 6.59076L154.451 7.48109C149.776 8.73381 137.44 12.3681 133.025 13.7937L129.312 14.9919L124.491 12.6663C115.158 8.16422 103.482 3.89288 94.3855 1.65325C89.659 0.489748 84.3475 -0.221027 84.5925 0.343397ZM108.873 24.1959C93.5367 28.2354 74.7947 36.2509 69.0142 41.2422L67.7224 42.3574L71.413 40.5786C75.2162 38.7456 80.6185 36.4975 81.2212 36.4975C81.9146 36.4975 81.4987 37.1172 78.8854 39.9788L76.2108 42.9071L78.1388 41.8221C79.1995 41.2252 82.5985 39.0346 85.6931 36.9535C91.8217 32.8322 98.6932 29.2451 107.027 25.8169C112.293 23.651 112.872 23.1427 108.873 24.1959ZM158.888 36.1775C162.606 39.1014 168.368 45.6912 175.549 55.2311C179.718 60.7696 183.187 65.2429 183.258 65.1718C183.506 64.9248 181.909 59.1567 180.934 56.774C178.256 50.2328 171.219 43.0332 161.927 37.327C157.868 34.8345 156.544 34.3338 158.888 36.1775ZM195.525 37.5585C199.684 41.2193 201.344 42.9395 206.36 48.7873C214.437 58.2037 216.403 60.4496 216.491 60.3618C216.538 60.3143 216.357 59.4262 216.087 58.388C213.965 50.2125 207.126 42.868 195.474 36.2487C194.287 35.5744 193.165 35.0228 192.981 35.0228C192.796 35.0228 193.941 36.1639 195.525 37.5585ZM174.196 35.5327C174.196 35.6182 175.815 36.7246 177.794 37.9917C182.296 40.8735 186.804 44.2829 187.822 45.5766C189.159 47.2735 189.084 46.2431 187.716 44.1067C184.985 39.8413 182.673 37.9666 178.426 36.5731C175.815 35.7163 174.196 35.3181 174.196 35.5327ZM211.878 44.8846C216.543 49.6643 218.367 51.9345 224.573 60.6796L226.049 62.76L226.16 61.2861C226.222 60.4754 225.947 58.5063 225.55 56.9104C225.153 55.3148 224.885 53.9504 224.954 53.8785C225.274 53.5471 231.035 57.1991 233.503 59.2968C235.015 60.5827 236.345 61.543 236.457 61.4306C236.87 61.0184 234.217 55.2216 232.511 52.8079C231.545 51.4409 229.608 49.223 228.208 47.8796C225.777 45.5471 221.128 42.2125 220.784 42.555C220.695 42.6446 221.146 43.8254 221.786 45.1795C222.427 46.5336 222.864 47.7281 222.758 47.8335C222.653 47.9393 219.831 46.6763 216.487 45.0265C213.144 43.3771 210.112 42.0275 209.749 42.0275C209.299 42.0275 209.974 42.9336 211.878 44.8846ZM61.3765 44.0547C60.9421 44.3589 59.1647 45.1087 57.4272 45.7215C55.6893 46.3342 53.0597 47.3989 51.5838 48.0879L48.9004 49.3403L50.5877 49.3705C53.4845 49.4225 58.004 47.4177 61.2639 44.6346C62.6335 43.4656 62.6988 43.1298 61.3765 44.0547ZM240.263 45.2459C240.266 45.4018 241.189 46.6081 242.315 47.9261C243.441 49.244 245.763 52.1192 247.477 54.3154C249.19 56.5119 250.592 58.1251 250.592 57.901C250.592 57.2938 248.071 52.3991 246.823 50.5816C246.224 49.71 245.162 48.4256 244.463 47.727C243.182 46.4477 240.253 44.7176 240.263 45.2459ZM130.702 47.4652C131.214 48.0227 132.01 48.8938 132.47 49.4007C135.656 52.9115 138.868 58.8684 141.912 66.9122C143.062 69.9537 144.149 72.691 144.326 72.9952C144.97 74.0993 144.622 69.0096 143.709 63.988L143.446 62.5381L144.619 63.3727C145.49 63.9921 150.077 69.1301 151.207 70.7526C151.266 70.837 151.399 70.8216 151.502 70.7183C151.7 70.5215 149.99 66.4735 148.649 63.9629C145.79 58.6085 139.375 52.2313 132.393 47.8022C129.848 46.1875 129.457 46.1097 130.702 47.4652ZM179.358 50.4046C180.202 51.362 182.5 53.661 184.464 55.5128C186.429 57.3646 189.098 60.3139 190.397 62.0665C191.695 63.8192 192.824 65.2533 192.905 65.2533C193.141 65.2533 192.636 62.6439 192.014 60.645C191.111 57.7476 189.421 54.6468 187.769 52.8566C185.864 50.7917 181.608 48.6634 179.385 48.6634H177.824L179.358 50.4046ZM147.85 54.1012C150.336 58.4746 152.734 61.9522 154.905 64.3316C156.2 65.751 157.827 67.7417 158.52 68.7556C159.213 69.7694 160.113 71.0136 160.521 71.5205L161.263 72.4422L161.271 71.7517C161.283 70.6741 158.86 63.713 157.611 61.2429C155.98 58.0145 154.663 56.7073 150.725 54.4035C148.793 53.2743 147.133 52.35 147.034 52.35C146.935 52.35 147.302 53.1379 147.85 54.1012ZM191.173 52.4894C191.173 52.8385 195.371 58.7998 197.517 61.4988C198.696 62.9819 199.661 64.3508 199.661 64.5403C199.661 64.7294 199.823 64.8846 200.021 64.8846C200.821 64.8846 197.174 57.4848 195.541 55.7948C194.374 54.5871 191.173 52.1646 191.173 52.4894ZM98.3544 53.4103C95.8895 54.3135 92.5137 56.0396 92.7502 56.2756C92.8547 56.3799 93.3127 56.2656 93.7685 56.0219C96.2788 54.68 106.501 55.5825 113.197 57.7369C114.844 58.2667 111.728 56.211 108.504 54.6409L104.997 52.9333L102.599 52.8337C100.975 52.7666 99.6037 52.9528 98.3544 53.4103ZM237.549 54.562C240.056 59.2009 241.894 62.3039 242.135 62.3039C242.276 62.3039 242.138 61.4328 241.829 60.3685C241.187 58.158 239.383 55.2592 237.642 53.6404L236.453 52.5344L237.549 54.562ZM66.9843 56.7869C65.3605 57.581 62.122 59.1312 59.7877 60.2321C50.9014 64.4216 43.1446 69.7985 37.0303 76.0068C32.6677 80.4367 30.694 82.8341 27.6027 87.4582C23.9804 92.8765 21.3922 99.3226 20.9013 104.147L20.6766 106.359L21.0966 105.438C21.3272 104.931 22.3443 102.644 23.3563 100.356C24.3683 98.0676 25.7563 95.2669 26.4405 94.1318C27.9352 91.6522 31.0327 87.2761 31.1771 87.4402C31.2335 87.5047 31.0468 88.8846 30.7615 90.5067C30.4762 92.1288 30.2891 94.4514 30.3452 95.668L30.4474 97.88L31.2808 95.3749C33.4265 88.9241 37.0809 83.2204 42.9656 77.1371C47.3629 72.5919 51.1258 69.501 60.0722 63.0877C67.3696 57.856 70.7358 55.2868 70.2468 55.3211C70.0763 55.3329 68.6082 55.9928 66.9843 56.7869ZM131.982 62.9491C135.511 70.9941 137.083 75.9674 138.101 82.3039C138.354 83.8752 138.69 85.1611 138.848 85.1611C139.006 85.1611 139.135 82.9263 139.135 80.1945V75.2278L138.349 71.623C137.208 66.3976 135.955 64.2354 132.871 62.176C131.502 61.2614 131.313 61.4254 131.982 62.9491ZM71.3883 66.6844C71.199 66.8566 69.4663 67.8365 67.5379 68.8617C56.7621 74.5919 53.4158 76.7681 49.3189 80.7095C44.3816 85.4586 40.7095 90.8131 37.5205 97.9113C35.9424 101.424 35.0448 104.273 33.9291 109.309L33.1124 112.995L32.9928 120C32.8625 127.637 33.1261 127.721 34.1469 120.368C35.4637 110.886 37.9799 103.379 42.016 96.8934C43.3627 94.7286 44.5056 92.9985 44.5555 93.0483C44.6053 93.0981 44.3993 94.4275 44.0975 96.0028C43.5435 98.8957 43.4225 105.795 43.89 107.834L44.1436 108.94L45.5552 106.175C48.2586 100.88 55.1759 89.7406 58.3756 85.5298C61.8887 80.9067 62.577 80.1027 66.6496 75.8649C68.1531 74.3003 69.3832 72.9248 69.3832 72.8079C69.3832 72.4842 60.1696 78.7935 55.1803 82.5336C50.8952 85.7458 49.6566 86.4134 51.1627 84.6988C51.5628 84.2435 52.3614 83.1648 52.9379 82.3017C55.1335 79.0151 60.7867 74.2896 66.6666 70.8252C69.526 69.1408 72.2766 66.9307 71.9419 66.5867C71.8271 66.4684 71.578 66.5122 71.3883 66.6844ZM261.294 66.5145C261.294 67.9084 270.335 86.7957 272.217 89.3318L272.815 90.1381L272.568 89.0321C272.035 86.6498 269.599 80.374 267.862 76.9086C265.19 71.5784 261.294 65.4121 261.294 66.5145ZM119.206 69.4022C119.206 74.9945 117.854 87.1714 116.772 91.3211C116.477 92.4518 116.308 93.4487 116.396 93.5364C116.785 93.925 119.277 88.6896 119.945 86.0787L120.683 83.1998V78.8673C120.683 76.4842 120.437 73.2514 120.136 71.6831C119.561 68.6793 119.206 67.8092 119.206 69.4022ZM92.0619 75.2964C82.652 86.224 81.5755 87.7152 80.1096 91.8534L79.0271 94.9086L82.786 91.0487C84.8531 88.9255 87.5181 86.0599 88.7079 84.6804C89.8981 83.3005 90.9127 82.2221 90.9629 82.284C91.0127 82.3456 90.9345 83.3915 90.7887 84.6081C90.6429 85.8247 90.582 86.8883 90.654 86.9716C91.0038 87.3782 92.4015 85.4896 93.9109 82.5701L95.5864 79.3296V75.6094C95.5864 73.5633 95.4536 71.8892 95.2912 71.8892C95.1284 71.8892 93.6755 73.4225 92.0619 75.2964ZM252.646 76.9126C253.371 78.9148 254.792 82.7095 255.804 85.3454C256.816 87.9814 258.007 91.2164 258.45 92.5344L259.256 94.9307L259.375 93.9382C259.575 92.2674 258.011 84.4853 256.902 81.6319C255.916 79.0973 253.221 74.8418 251.916 73.7598C251.508 73.421 251.73 74.3817 252.646 76.9126ZM104.279 75.2993C104.2 75.553 103.775 77.0044 103.333 78.5251C102.891 80.0459 102.036 82.572 101.433 84.1384C100.83 85.7049 100.351 87.0752 100.368 87.1836C100.385 87.292 100.14 87.9183 99.8233 88.5749L99.2472 89.7694L101.127 87.7417C104.498 84.1049 106.083 79.811 105.398 76.165C105.152 74.8588 104.557 74.398 104.279 75.2993ZM77.9949 79.6975C75.9934 82.1956 73.9123 84.8201 73.3698 85.5298C72.8273 86.2394 71.9504 87.3178 71.4208 87.9261L70.4583 89.0321L70.6889 87.4789C71.0709 84.9071 70.5118 84.9535 68.9307 87.6256C65.4202 93.5592 63.4129 99.3329 62.9306 104.885L62.7062 107.465L63.7381 105.546C66.1008 101.152 66.9282 99.7845 71.1004 93.3827C77.7472 83.1829 82.1781 75.6997 81.7969 75.3189C81.7069 75.2289 79.9959 77.1994 77.9949 79.6975ZM128.685 76.6357C128.546 77.32 128.433 78.5642 128.433 79.4007C128.432 81.8605 127.116 89.2105 126.049 92.7028C125.506 94.4813 124.175 98.2402 123.091 101.056C122.007 103.871 121.196 106.175 121.288 106.175C121.646 106.175 123.377 104.039 124.93 101.68C127.078 98.4186 128.589 95.3852 129.403 92.6995L130.068 90.5067L130.029 85.5298C130.008 82.7924 129.754 79.3915 129.464 77.9722L128.937 75.3915L128.685 76.6357ZM244.511 80.0603C244.943 81.4686 250.266 93.0251 250.852 93.8247L251.392 94.562L251.145 92.5344C250.806 89.7381 250.015 86.3559 249.308 84.6756C248.682 83.1884 246.138 80.2096 244.952 79.5755L244.248 79.1991L244.511 80.0603ZM188.232 79.7845C188.221 80.1137 190.364 87.1275 192.748 94.562C194.112 98.816 199.118 109.138 201.778 113.18C204.512 117.334 209.841 123.779 210.225 123.396C210.319 123.301 209.48 121.918 208.359 120.321C204.838 115.309 200.323 107.952 198.876 104.87C198.111 103.24 196.5 99.0099 195.297 95.4693C194.093 91.929 192.759 88.1613 192.331 87.0973C190.859 83.4354 188.266 78.8094 188.232 79.7845ZM145.252 86.3397C145.542 89.6293 146.453 93.7996 147.482 96.5421C148.542 99.369 151.924 105.123 153.702 107.124L154.987 108.571L154.298 106.51C153.919 105.376 152.993 103.053 152.24 101.349C150.62 97.6787 147.25 89.0977 146.355 86.3637C145.452 83.6083 145.011 83.5987 145.252 86.3397ZM166.636 85.8063C166.784 86.1609 167.188 87.198 167.534 88.1104C168.851 91.5788 171.474 95.1596 176.718 100.647C179.627 103.691 182.354 106.367 182.777 106.593L183.547 107.005L182.506 105.207C181.933 104.219 180.681 102.249 179.724 100.829C178.767 99.4099 177.193 97.0044 176.228 95.4837C175.262 93.9629 172.801 91.0181 170.758 88.9399C167.167 85.2868 166.072 84.4544 166.636 85.8063ZM60.5926 86.9012C59.2311 87.8486 56.6562 91.7528 55.5405 94.562L54.5153 97.1427L54.385 100.645L54.2544 104.147L55.1084 101.567C56.1927 98.2903 60.8273 87.7661 61.5614 86.9122C62.2497 86.1122 61.7348 86.1063 60.5926 86.9012ZM219.189 88.4791C221.954 96.0039 225.445 102.73 228.678 106.761C229.639 107.959 230.468 108.999 230.521 109.07C230.573 109.142 230.782 109.142 230.985 109.07C231.418 108.917 229.345 102.356 228.09 99.9076C226.651 97.0992 224.059 93.5898 219.682 88.52L218.851 87.5574L219.189 88.4791ZM137.524 91.6182C136.755 93.6197 137.801 98.9347 139.342 100.851L139.917 101.567L139.694 99.7233C139.362 96.976 138.296 91.6558 138.009 91.3115C137.87 91.1456 137.652 91.2839 137.524 91.6182ZM16.7424 96.9447C11.6804 102.397 8.59577 108.518 6.2264 117.814L5.01183 122.58L4.99707 128.848C4.98415 134.378 5.6193 140.5 6.15112 139.969C6.51021 139.61 7.83403 133.296 8.5024 128.752C10.3802 115.989 12.9736 106.683 16.8166 98.9196C17.8972 96.7371 18.749 94.9407 18.7095 94.9274C18.67 94.9145 17.7846 95.8221 16.7424 96.9447ZM212.578 95.8052C212.578 96.43 214.392 101.667 215.733 104.914C217.954 110.291 221.711 117.549 224.21 121.29C226.617 124.893 230.964 129.553 233.246 130.977L234.537 131.783L233.029 129.947C230.588 126.975 226.094 120.243 224.297 116.866C223.38 115.143 221.096 110.746 219.221 107.097C215.73 100.299 213.046 95.4837 212.747 95.4837C212.654 95.4837 212.578 95.6286 212.578 95.8052ZM106.465 99.2625C106.371 99.5161 105.534 102.792 104.604 106.544C102.111 116.597 98.5485 127.208 95.8968 132.474C95.2676 133.724 93.7559 136.204 92.5373 137.985C91.3186 139.766 90.4041 141.306 90.5049 141.406C90.7569 141.658 94.6262 137.442 96.6169 134.746C98.3182 132.443 100.432 128.453 101.792 124.977C104.146 118.961 106.397 108.206 106.751 101.29C106.875 98.8488 106.804 98.3434 106.465 99.2625ZM282.903 100.553C283.199 101.516 283.612 102.924 283.821 103.683C284.194 105.033 288.874 116.14 289.217 116.491C289.437 116.716 289.037 113.242 288.547 110.668C288.341 109.591 287.748 107.766 287.229 106.613C286.063 104.026 282.987 98.8017 282.629 98.8017C282.484 98.8017 282.608 99.5899 282.903 100.553ZM276.449 101.935C276.429 102.686 277.536 110.107 277.933 111.889C279.419 118.554 282.38 124.526 288.625 133.456C291.377 137.391 295.905 145.902 299.217 153.364C302.298 160.306 306.921 172.249 307.637 175.115C307.967 176.433 308.366 177.648 308.524 177.815C309.076 178.401 309.322 174.008 308.895 171.192C308.327 167.45 306.594 161.359 305.01 157.536C303.128 152.994 299.011 146.432 292.554 137.683C287.97 131.472 285.405 126.14 281.033 113.733C278.735 107.209 276.464 101.365 276.449 101.935ZM132.483 104.896C131.566 105.999 129.324 106.856 125.343 107.624C123.165 108.043 120.985 108.387 120.498 108.387H119.613L118.084 111.323C115.099 117.053 110.877 123.063 103.24 132.45C99.8823 136.577 95.1857 140.774 90.355 143.964C89.6088 144.456 86.7855 147.063 84.081 149.757C80.8964 152.928 78.2104 155.239 76.4596 156.313L73.7555 157.972L73.9703 161.106C74.3537 166.704 76.5249 173.546 79.109 177.298C79.8494 178.373 80.455 179.488 80.455 179.776V180.298L79.4401 179.601C78.8821 179.217 77.5948 178.391 76.5799 177.766C71.7662 174.802 66.5854 167.727 64.5566 161.348C64.1595 160.1 63.6181 158.694 63.3535 158.224L62.8726 157.37L62.2275 160.04C61.8728 161.509 61.3942 164.117 61.1639 165.836L60.745 168.963L62.2423 170.288C63.0657 171.017 64.5076 171.837 65.4461 172.112C66.3846 172.386 68.0218 173.218 69.0839 173.959C72.9517 176.658 80.3967 186.111 82.9222 191.528L83.9496 193.733L83.929 196.129C83.8976 199.786 81.5386 204.228 77.4667 208.295L75.5967 210.163L75.8569 211.717C76.3503 214.664 79.7715 220.742 82.9414 224.302C83.8293 225.3 84.7188 226.42 84.9173 226.791L85.2786 227.465H84.7896C83.9434 227.465 78.5005 223.244 76.4212 220.975C73.4635 217.748 71.8323 213.667 72.4759 211.105C72.6029 210.599 73.606 209.065 74.7043 207.696L76.7017 205.209L75.4989 203.71C73.3657 201.052 71.8411 198.612 69.725 194.47C68.5831 192.234 67.4224 190.415 67.1386 190.415H66.6234L66.5016 193.121L66.3794 195.828L67.1305 198.298C67.8435 200.643 70.0793 204.596 71.6714 206.328C72.17 206.87 72.325 207.379 72.1549 207.914L71.9046 208.702L71.3983 208.283C71.1196 208.051 70.738 207.957 70.5498 208.074C70.362 208.19 69.7508 207.925 69.192 207.486L68.176 206.688L68.4428 209.243C68.5894 210.648 69.2038 214.783 69.808 218.433C73.096 238.297 76.5105 245.634 88.1551 257.857C94.659 264.684 100.109 271.612 101.911 275.344C102.832 277.253 104.025 279.036 105.038 280.02L106.676 281.61L108.738 282.071L110.8 282.532L113.196 282.122L115.591 281.712L118.783 279.775C123.615 276.844 134.751 269.271 144.671 262.171C154.368 255.232 177.696 237.677 181.872 234.178C182.947 233.276 183.902 232.614 183.994 232.705C184.292 233.004 182.29 237.497 179.926 241.833C178.651 244.171 176.616 247.991 175.403 250.322C171.396 258.021 166.137 267.574 161.136 276.236C159.941 278.306 158.057 281.13 156.95 282.511C154.351 285.752 148.413 290.507 146.964 290.507C146.626 290.507 146.401 290.075 142.296 281.55C140.949 278.753 139.591 276.366 139.279 276.246C138.966 276.127 137.935 276.39 136.986 276.831C136.037 277.272 134.264 277.943 133.046 278.322L130.832 279.011L132.788 279.045C136.523 279.109 136.939 279.591 140.442 287.922C145.522 300.003 151.726 313.429 152.94 314.966L153.478 315.647L155.979 314.647C158.417 313.673 161.045 313.375 162.666 313.888L163.426 314.129L164.474 312.668C166.335 310.076 170.693 307.834 173.871 307.834H174.862L175.254 306.712C176.243 303.876 179.173 301.626 182.99 300.771L184.956 300.331L186.68 298.429C188.738 296.16 191.117 294.503 193.387 293.758L195.048 293.213L195.28 289.693C195.408 287.757 195.805 285.292 196.163 284.215C197.775 279.367 201.482 272.665 205.37 267.567C206.493 266.095 207.412 264.707 207.412 264.483C207.412 264.26 207.054 263.761 206.618 263.375C205.469 262.359 203.88 258.63 203.398 255.822C202.519 250.687 203.106 244.229 204.993 238.293L205.899 235.444L204.973 231.916C203.767 227.318 203.075 221.683 202.758 213.873C202.616 210.399 202.374 207.557 202.22 207.557C201.786 207.557 199.557 210.773 198.004 213.64C196.12 217.117 192.829 221.79 188.316 227.396C187.157 228.836 187.602 227.215 189.283 223.867C190.987 220.476 196.15 206.645 197.642 201.474C198.357 198.997 200.613 194.286 201.084 194.286C201.252 194.286 201.587 194.942 201.827 195.744C202.992 199.628 207.248 201.855 209.4 199.706L210.247 198.86L210.507 195.415C210.78 191.803 211.204 190.572 212.636 189.241C215.391 186.679 219.463 187.389 220.324 190.581C220.545 191.401 220.646 192.736 220.548 193.547C220.368 195.039 220.883 195.588 221.326 194.378C221.747 193.23 224.278 189.708 225.499 188.571C226.152 187.963 228.386 185.474 230.461 183.041C239.132 172.876 240.996 169.159 240.996 162.027C240.996 154.728 238.476 149.894 230.366 141.641L228.12 139.355H226.832C224.811 139.355 220.34 140.401 218.222 141.37C215.489 142.62 213.531 144.053 210.432 147.07L207.732 149.699L206.671 151.992C205.238 155.092 204.535 158.796 203.701 167.641C203.314 171.742 202.804 175.89 202.567 176.858C201.678 180.486 199.984 183.018 196.429 186.03C194.036 188.058 192.872 188.621 193.804 187.3C194.082 186.905 194.769 185.94 195.329 185.154C196.753 183.16 199.148 177.143 199.829 173.851C200.426 170.961 200.536 165.632 200.03 164.055L199.735 163.133L199.698 163.901C199.649 164.929 196.606 174.125 195.454 176.727C194.948 177.868 194.6 178.802 194.68 178.802C195.008 178.802 192.984 183.78 191.727 186.063C190.071 189.073 186.766 193.529 184.532 195.765C182.494 197.805 178.256 201.044 177.982 200.771C177.872 200.662 178.452 199.696 179.27 198.627C182.159 194.849 183.747 190.623 184.714 184.147C185.277 180.372 185.364 176.893 184.944 174.932L184.708 173.828L183.568 176.052C181.038 180.99 175.658 186.91 172.079 188.695C170.076 189.693 167.922 190.421 167.922 190.099C167.922 190.019 169.096 189.062 170.532 187.973C173.465 185.745 174.64 184.168 176.992 179.299C179.533 174.038 180.806 167.359 180.83 159.156C180.84 155.555 180.29 149.664 179.7 147.058L179.315 145.36L176.294 144.767C174.474 144.409 172.1 143.587 170.321 142.698C166.555 140.816 158.497 134.732 156.081 131.945C154.619 130.26 149.632 123.024 146.277 117.721L145.853 117.05L146.32 119.337C147.269 123.985 150.194 128.849 155.278 134.232C156.548 135.578 157.588 136.784 157.588 136.911C157.588 138.245 152.638 134.844 148.318 130.54C143.056 125.299 138.09 117.105 134.667 108.018C133.274 104.319 133.131 104.116 132.483 104.896ZM160.541 105.306C160.541 106.008 164.023 111.075 166.405 113.84C169.422 117.341 174.234 121.586 182.229 127.798C185.829 130.595 190.85 134.71 193.387 136.943L198.001 141.004L196.372 138.981C194.417 136.552 185.782 128.037 182.92 125.714C181.795 124.802 180.867 123.943 180.857 123.806C180.838 123.54 183.254 124.475 188.036 126.584C192.82 128.694 200.003 130.547 205.197 131.011L207.227 131.192L205.382 130.656C197.349 128.322 192.326 126.419 186.929 123.664C175.107 117.631 170.223 114.325 163.586 107.865C161.911 106.235 160.541 105.083 160.541 105.306ZM147.993 107.38C147.993 107.699 149.981 112.38 150.847 114.1C151.757 115.909 155.651 122.027 155.891 122.027C156.123 122.027 154.712 118.092 153.898 116.468C152.118 112.92 147.993 106.572 147.993 107.38ZM23.3176 112.994C21.6317 116.82 21.3435 122.517 22.5732 127.696L23.3718 131.06L23.6874 129.876C23.8608 129.224 23.9582 124.911 23.9036 120.29L23.8043 111.889L23.3176 112.994ZM62.4464 116.032C61.8164 117.403 60.8624 120.184 60.3265 122.212L59.3522 125.898L59.2931 131.244L59.2341 136.59L59.9235 139.989C60.3029 141.859 60.8011 143.644 61.0307 143.956L61.4484 144.524L61.4765 137.055C61.5049 129.607 62.1685 122.308 63.341 116.551C63.6447 115.06 63.8252 113.772 63.7425 113.689C63.6595 113.606 63.0764 114.661 62.4464 116.032ZM293.088 119.319L293.22 124.813L296.78 131.07C298.738 134.512 300.852 138.322 301.477 139.539L302.613 141.751L302.621 139.256C302.64 133.278 299.955 125.09 295.745 118.285C294.659 116.53 293.771 114.923 293.771 114.712C293.771 114.502 293.588 114.216 293.364 114.077L292.956 113.825L293.088 119.319ZM264.985 116.667C264.985 116.761 265.31 118.23 265.707 119.931C266.733 124.328 269.89 131.201 272.174 134.009L272.773 134.746L272.588 134.009C270.875 127.203 269.452 123.53 266.8 119.071C265.414 116.74 264.985 116.172 264.985 116.667ZM212.58 119.676C212.585 120.8 217.623 127.099 220.938 130.124C222.08 131.168 223.781 132.406 224.717 132.877C226.738 133.894 231.095 134.932 233.318 134.927L234.906 134.924L230.719 132.903C226.144 130.694 219.775 126.156 215.26 121.888C213.785 120.494 212.579 119.498 212.58 119.676ZM162.019 120.089C162.024 120.844 164.748 127.545 166.142 130.23L167.721 133.272L170.682 136.249C173.041 138.622 176.528 141.198 177.38 141.198C177.738 141.198 177.413 140.003 176.225 136.956C174.149 131.63 173.475 130.568 170.52 127.967C168.997 126.627 166.461 124.243 164.884 122.67C163.307 121.097 162.018 119.935 162.019 120.089ZM124.373 124.397C116.894 125.97 111.692 128.913 101.901 137.111C96.9778 141.233 89.008 149.511 86.1474 153.473L84.1408 156.252L84.7601 158.83L85.3794 161.407L88.9629 161.864L92.5465 162.32L94.2346 161.504L95.9227 160.687L97.7344 158.224C98.7308 156.869 101.483 152.88 103.85 149.359C110.115 140.044 114.37 135.167 119.391 131.547C123.405 128.652 129.496 126.208 134.434 125.509C136.429 125.227 136.933 124.809 135.718 124.444C133.982 123.922 126.772 123.892 124.373 124.397ZM16.2944 125.991C15.626 127.262 14.0663 131.475 13.3253 134.011C12.3129 137.475 11.8261 141.056 11.8173 145.103L11.8099 148.455L12.6565 150.055C13.1223 150.934 13.6703 151.71 13.8741 151.778C14.1114 151.857 14.2487 149.811 14.2564 146.089L14.2678 140.276L15.0794 135.115C15.5256 132.276 16.1072 128.917 16.3711 127.65C16.8738 125.24 16.8586 124.917 16.2944 125.991ZM85.455 131.502C82.3058 137.149 76.9224 147.978 76.6943 149.124L76.5478 149.862L76.0326 148.94L75.5177 148.018L75.562 143.963C75.6107 139.522 75.3155 139.445 74.3404 143.644C73.7082 146.367 73.2941 154.47 73.7868 154.47C74.8468 154.47 80.424 146.332 82.8827 141.198C85.7864 135.135 88.8932 127.016 88.471 126.594C88.3724 126.496 87.0154 128.704 85.455 131.502ZM249.484 133.917C252.646 142.782 255.71 149.389 260.469 157.604C263.475 162.792 268.044 169.449 268.226 168.905C268.431 168.291 266.799 160.969 265.831 158.156C265.307 156.636 263.968 153.401 262.854 150.968C260.899 146.694 256.555 138.249 256.313 138.249C256.153 138.249 257.046 141.489 257.572 142.816C258.083 144.108 257.793 144.544 257.072 143.567C256.784 143.177 254.683 139.747 252.405 135.945C250.126 132.143 248.145 129.032 248.001 129.032C247.858 129.032 248.525 131.23 249.484 133.917ZM276.453 129.403C276.408 130.304 279.615 141.278 281.78 147.63C282.883 150.864 283.713 153.581 283.625 153.668C283.372 153.921 279.545 150.548 275.52 146.523C273.481 144.484 271.495 142.576 271.106 142.283L270.4 141.751L270.889 142.673C272.599 145.892 276.615 152.301 279.091 155.76C282.109 159.976 291.569 171.539 291.807 171.302C291.929 171.18 289.07 163.453 287.591 159.904C287.273 159.142 287.123 158.408 287.258 158.273C287.392 158.139 289.577 160.138 292.113 162.716C294.649 165.294 296.724 167.309 296.724 167.193C296.724 166.746 294.306 162.211 292.004 158.341C287.056 150.023 285.05 146.321 280.82 137.696C278.434 132.829 276.469 129.098 276.453 129.403ZM51.9234 131.152C51.6706 131.595 50.9697 134.907 50.5582 137.602C50.0338 141.036 50.0249 150.331 50.5427 154.03C51.496 160.843 53.7565 166.809 56.8263 170.615C57.6925 171.689 58.4602 172.509 58.5329 172.436C58.6052 172.364 58.0804 170.822 57.3666 169.009C54.0004 160.464 51.8385 147.045 52.0939 136.281C52.1644 133.307 52.1902 130.875 52.1515 130.875C52.1127 130.875 52.0101 131 51.9234 131.152ZM202.245 134.384C202.245 134.423 203.253 135.161 204.484 136.025C205.716 136.888 207.502 138.266 208.452 139.088C210.398 140.771 210.628 140.557 209.905 137.73L209.441 135.921L208.089 135.456C206.902 135.048 202.245 134.193 202.245 134.384ZM134.21 139.814C131.533 143.235 126.461 147.823 125.346 147.831C125.171 147.833 125.094 146.673 125.174 145.254L125.32 142.674L123.647 144.291L121.974 145.909L120.218 146.157C117.994 146.472 114.081 147.796 111.456 149.122C108.213 150.76 105.365 153.233 103.324 156.182C100.267 160.599 99.0973 164.203 99.9912 166.451L100.284 167.189L101.256 164.13C102.332 160.745 103.188 158.894 103.677 158.894C104.032 158.894 106.289 161.357 106.289 161.744C106.289 162.195 102.18 168.029 100.304 170.243C99.7391 170.909 99.277 171.69 99.277 171.978V172.502L100.833 171.953C101.69 171.651 103.101 170.988 103.97 170.479L105.551 169.554V172.27C105.551 174.898 106.496 182.818 106.852 183.174C106.948 183.27 107.027 183.187 107.027 182.989C107.027 182.791 107.609 181.665 108.319 180.486C109.029 179.308 109.611 178.097 109.611 177.795C109.611 177.011 112.175 168.878 112.838 167.557C113.654 165.932 115.86 163.318 116.415 163.318C116.728 163.318 116.982 164.068 117.139 165.458C117.424 167.978 118.914 171.293 121.194 174.482C122.634 176.495 123.69 177.483 126.334 179.29L127.003 179.747L123.275 181.544C117.757 184.204 117.895 184.324 124.927 182.99L127.879 182.43L131.066 180.72L134.253 179.01L134.888 179.536C135.236 179.825 135.692 180.483 135.901 180.999L136.279 181.935L136.628 180.672L136.976 179.409L136.526 178.569L136.076 177.729L136.692 176.791C137.03 176.274 137.457 175.852 137.639 175.852C137.822 175.852 138.162 175.23 138.395 174.47C138.984 172.549 144.36 161.843 144.734 161.843C145.309 161.843 145.042 165.036 144.268 167.404C143.843 168.705 142.665 171.369 141.65 173.324C139.706 177.069 139.539 178.173 140.886 178.366L141.706 178.483L142.615 176.43C143.632 174.132 144.136 173.942 146.077 175.125C147.905 176.237 148.131 175.672 146.683 173.614L145.39 171.777L146.046 170.877C146.406 170.382 146.796 169.972 146.913 169.965C147.03 169.959 147.943 170.535 148.943 171.245C149.942 171.955 150.82 172.358 150.892 172.141C150.965 171.923 150.489 170.886 149.835 169.836L148.646 167.926L149.478 166.359L150.31 164.792L152.196 164.791L154.082 164.789L152.653 163.478L151.224 162.167L151.482 159.895C151.791 157.161 152.498 155.867 154.35 154.643C155.116 154.137 155.743 153.492 155.743 153.211C155.743 152.93 154.913 152.402 153.898 152.038C152.883 151.673 152.053 151.283 152.054 151.171C152.054 151.059 152.522 150.655 153.094 150.272C154.616 149.254 160.148 140.682 159.622 140.157C159.55 140.085 158.606 140.678 157.525 141.475C154.462 143.733 147.938 146.796 147.38 146.238C147.284 146.142 147.643 145.201 148.177 144.147C148.712 143.093 149.062 142.143 148.955 142.036C148.847 141.929 147.446 142.37 145.841 143.016C141.35 144.825 137.269 145.646 135.722 145.053L135.202 144.854L135.893 141.667C136.274 139.914 136.536 138.16 136.476 137.769L136.368 137.057L134.21 139.814ZM18.3316 141.212C17.7473 149.65 17.6289 153.355 17.8791 155.358C18.0267 156.538 18.2862 157.36 18.4556 157.185C18.6253 157.01 19.1092 155.835 19.531 154.574C20.695 151.096 20.4455 143.127 19.0468 139.091L18.5729 137.724L18.3316 141.212ZM186.381 139.981C186.375 140.867 189.823 153.746 190.446 155.163C190.658 155.645 190.898 155.974 190.978 155.893C191.312 155.56 190.062 147.126 189.398 145.236C188.716 143.291 187.586 140.927 186.764 139.723L186.387 139.17L186.381 139.981ZM246.163 144.929C246.162 146.277 248.503 153.26 249.836 155.889C251.188 158.553 257.532 167.567 257.84 167.26C258.001 167.1 254.598 159.717 252.539 155.76C249.908 150.702 246.163 144.342 246.163 144.929ZM224.019 145.517C221.868 145.897 217.768 148.264 215.289 150.557C211.509 154.053 209.269 158.625 209.261 162.865L209.257 164.808L210.22 166.262C210.75 167.062 211.76 168.156 212.466 168.693C214.166 169.988 215.161 171.688 215.148 173.272L215.137 174.562L214.387 173.662L213.637 172.761L212.785 173.293C212.316 173.585 210.998 174.683 209.857 175.733C207.605 177.803 207.361 178.585 208.348 180.562C209.085 182.037 208.82 182.986 206.824 186.023C205.929 187.383 205.197 188.638 205.197 188.81C205.197 189.421 206.198 189.111 207.81 187.999C208.707 187.38 211.426 185.504 213.852 183.829L218.263 180.784L219.141 179.148L220.018 177.511L219.873 175.394L219.728 173.276L218.369 170.631C217.622 169.175 217.051 167.945 217.101 167.896C217.151 167.847 217.773 167.704 218.483 167.578L219.775 167.349L220.955 168.081C221.603 168.483 222.422 169.253 222.775 169.79L223.416 170.767L223.393 173.586L223.371 176.405L222.438 179.169C221.925 180.689 221.561 182.025 221.631 182.136C221.7 182.248 223.128 181.05 224.804 179.474C227.649 176.798 228.508 175.372 226.472 176.705C225.358 177.434 225.058 177.168 225.569 175.907C225.787 175.37 225.984 173.514 226.007 171.782L226.049 168.634L225.398 167.64C224.4 166.116 222.016 165.09 218.872 164.834L216.11 164.608L215.002 162.958L213.894 161.309L213.747 158.995L213.6 156.682H214.046C214.658 156.682 218.483 158.994 218.483 159.364C218.483 159.751 222.905 161.842 223.722 161.843L224.348 161.843L223.788 159.908C222.365 154.997 220.982 150.959 220.654 150.756C220.104 150.417 220.99 149.86 223.552 148.937L225.852 148.108L226.947 148.561C228.307 149.124 231.19 152.134 233.052 154.935C233.825 156.099 234.694 157.051 234.984 157.051H235.51L235.273 156.221C235.142 155.765 234.39 154.02 233.601 152.344C230.673 146.122 228.669 144.694 224.019 145.517ZM264.621 146.073C264.605 147.963 268.765 156.548 272.171 161.655C274.118 164.574 279.604 170.588 279.979 170.214C280.182 170.011 277.857 166.238 270.152 154.262C267.614 150.318 265.333 146.719 265.083 146.264L264.626 145.438L264.621 146.073ZM117.546 148.167C113.078 149.891 108.131 152.868 106.686 154.702C105.726 155.921 105.72 156.313 106.658 156.313C107.064 156.313 107.396 156.46 107.396 156.64C107.396 156.82 107.936 157.052 108.596 157.156L109.795 157.345L111.641 155.589C112.655 154.623 114.648 152.989 116.069 151.957C122.692 147.149 123.136 146.01 117.546 148.167ZM42.4751 152.258C42.4489 155.118 43.5424 159.71 44.9766 162.765C46.0623 165.078 48.6923 169.366 48.8952 169.155C49.1207 168.92 44.1672 153.487 43.1763 151.336L42.4965 149.862L42.4751 152.258ZM7.25128 153.456C6.59842 158.885 7.39374 167.768 8.8829 171.68L9.25675 172.662L9.76089 172.137C10.523 171.344 11.4408 168.281 11.4408 166.531C11.4408 165.676 11.0194 163.484 10.5042 161.659C9.98897 159.834 9.24088 157.18 8.8423 155.76C8.44335 154.341 8.11747 152.806 8.11821 152.35C8.12042 150.733 7.48047 151.55 7.25128 153.456ZM13.3577 155.806C13.4729 158.071 13.7619 159.589 14.2966 160.737L15.0691 162.396L15.0724 158.894C15.0753 155.331 14.5465 152.985 13.6748 152.694L13.1913 152.534L13.3577 155.806ZM309.951 155.945C310.144 156.451 310.915 158.193 311.665 159.815C314.466 165.879 316.456 172.236 316.962 176.743L317.207 178.924L319.052 179.571C320.067 179.928 321.188 180.232 321.543 180.248L322.189 180.276V177.596C322.189 172.896 320.254 167.547 316.825 162.765C314.807 159.95 309.456 154.641 309.951 155.945ZM134.844 158.362C134.503 158.88 134.15 160.089 134.058 161.049L133.89 162.794L134.483 163.286C134.887 163.62 135.743 163.723 137.161 163.605C139.538 163.408 140.243 162.779 140.243 160.853V159.636L138.711 158.527C136.82 157.159 135.665 157.11 134.844 158.362ZM123.172 160.194C121.985 161.38 121.706 162.445 122.402 163.14C123.486 164.222 125.566 163.373 126.252 161.57L126.608 160.634L125.987 159.948C125.139 159.013 124.28 159.087 123.172 160.194ZM247.111 161.106C247.474 164.536 248.744 169.873 249.838 172.558C251.121 175.707 254.703 181.902 257.883 186.471C260.19 189.787 261.217 190.732 260.039 188.457C259.724 187.849 258.815 185.719 258.018 183.722C254.15 174.027 248.586 161.422 247.528 159.953L246.897 159.078L247.111 161.106ZM186.744 165.161V169.733L187.206 169.268C187.804 168.666 187.768 161.613 187.164 161.009L186.744 160.59V165.161ZM234.057 163.41C233.663 164.475 233.212 165.76 233.057 166.267C232.56 167.889 229.318 174.174 228.346 175.4C228.141 175.659 228.056 175.953 228.158 176.054C228.494 176.39 231.421 173.264 232.876 171.017C234.471 168.551 235.283 166.304 235.626 163.41L235.855 161.474H235.315C235.001 161.474 234.475 162.284 234.057 163.41ZM35.4297 165.948V170.201L36.2066 172.566C36.634 173.866 37.2381 175.423 37.5492 176.025C38.3427 177.559 42.164 183.258 42.3046 183.117C42.3688 183.053 41.9211 181.683 41.31 180.072C40.6992 178.461 39.702 175.235 39.0945 172.903C37.5566 167 36.1649 162.461 35.7663 162.046C35.5626 161.834 35.4297 163.376 35.4297 165.948ZM19.8189 165.084C17.7141 169.372 17.1661 173.428 18.2168 176.939C18.9043 179.236 19.5605 179.306 19.5579 177.081C19.5568 176.101 19.8085 173.474 20.1171 171.244C20.4256 169.014 20.8087 166.235 20.9685 165.069C21.1283 163.903 21.1674 162.956 21.0556 162.965C20.9434 162.973 20.3869 163.927 19.8189 165.084ZM123.751 167.376C122.758 167.776 122.33 168.571 122.02 170.599L121.781 172.166H122.402C122.744 172.166 123.327 171.891 123.698 171.556L124.373 170.945V172.413V173.88L125.244 174.698C126.492 175.869 129.656 176.99 130.97 176.728C132.221 176.478 132.48 175.839 132.487 172.979L132.492 171.026L131.586 170.121L130.681 169.216H129.144H127.608L126.346 168.11C124.976 166.909 124.938 166.898 123.751 167.376ZM29.8938 171.308C29.8938 176.422 31.7938 181.975 35.6501 188.134C37.0078 190.302 37.771 190.799 36.7975 188.882C36.2306 187.766 33.5844 178.91 33.5844 178.13C33.5844 177.644 30.3389 168.801 30.057 168.519C29.9673 168.429 29.8938 169.685 29.8938 171.308ZM11.7143 175.017C10.5274 176.327 10.9489 179.1 12.6381 181.1L13.4895 182.109L13.2241 179.441C13.078 177.974 12.8233 176.219 12.6576 175.541L12.3569 174.308L11.7143 175.017ZM264.247 175.392C264.247 176.305 266.713 183 267.675 184.7C270.237 189.226 276.384 197.759 275.51 195.576C275.348 195.17 274.819 193.782 274.334 192.49C272.909 188.69 270.325 183.816 267.352 179.318C264.723 175.342 264.247 174.739 264.247 175.392ZM54.6286 175.76C54.633 175.912 55.029 177.364 55.5088 178.986C56.6363 182.797 57.9398 185.689 59.2042 187.184L60.2132 188.376L61.1078 187.314C61.9983 186.257 62.298 185.069 61.6739 185.069C61.4938 185.069 61.2429 184.53 61.117 183.871C60.6882 181.625 59.1614 178.989 57.2744 177.235C55.5217 175.606 54.6101 175.097 54.6286 175.76ZM61.8743 176.172L61.193 176.44L62.4563 178.082L63.7196 179.723L64.6139 179.67C65.1058 179.64 66.795 179.557 68.3679 179.486C69.9412 179.414 71.2281 179.253 71.2281 179.128C71.2285 178.725 68.3546 176.899 66.9113 176.385C65.3948 175.844 62.9686 175.742 61.8743 176.172ZM277.697 178.304C277.979 178.882 278.951 181.097 279.855 183.226C284.746 194.736 293.293 210.468 295.97 212.889L296.714 213.561L295.016 209.73C294.082 207.623 292.326 203.659 291.114 200.921C286.955 191.529 284.611 187.09 281.463 182.642C279.73 180.192 278.057 177.978 277.747 177.72L277.183 177.253L277.697 178.304ZM293.307 181.014C293.724 181.723 295.325 184.513 296.867 187.213C298.408 189.914 299.92 192.481 300.226 192.917C300.533 193.355 300.784 193.845 300.784 194.006C300.784 194.568 297.626 192.703 293.643 189.79C291.441 188.18 289.567 186.934 289.478 187.023C289.39 187.111 291.048 189.487 293.164 192.301C298.799 199.797 305.459 206.924 309.637 209.928L310.186 210.322L309.637 209.512C308.518 207.863 306.83 205.469 305.267 203.318C304.383 202.101 303.428 200.659 303.146 200.113L302.632 199.119L304.937 200.427C307.829 202.067 315.81 206.083 316.179 206.083C316.329 206.083 315.031 204.631 313.294 202.857C309.959 199.453 304.458 193.194 299.426 187.078C297.766 185.06 295.54 182.58 294.479 181.567L292.549 179.723L293.307 181.014ZM65.4158 181.463C64.9589 181.683 64.5854 182.069 64.5854 182.319V182.775L68.5528 182.959C70.7347 183.06 72.9162 183.27 73.4001 183.425L74.2799 183.706L74.1127 183.206C74.0212 182.931 73.2251 182.325 72.3446 181.859L70.7432 181.014L68.4949 181.039C67.2582 181.052 65.8727 181.244 65.4158 181.463ZM245.994 183.041C246.267 185.309 248.09 194.543 249.337 199.967C249.846 202.179 250.747 206.659 251.338 209.921C252.808 218.024 254.074 222.149 256.496 226.728C258.422 230.369 257.815 226.678 253.682 209.605C252.254 203.708 252.164 202.902 253.085 204.284C253.439 204.816 254.821 206.889 256.156 208.892C258.336 212.162 260.647 215.366 263.057 218.46L263.898 219.539L263.658 218.617C263.527 218.11 262.443 215.434 261.25 212.669C260.056 209.904 259.08 207.553 259.08 207.444C259.08 207.105 252.866 193.905 250.976 190.23C249.303 186.975 247.071 183.046 246.162 181.751L245.773 181.198L245.994 183.041ZM112.102 184.954C111.499 185.112 111.155 186.175 111.707 186.175C112.316 186.175 114.408 185.261 114.408 184.995C114.408 184.687 113.208 184.666 112.102 184.954ZM29.1638 187.865C29.1779 189.12 30.5437 194.779 31.3494 196.92C32.747 200.635 37.6212 207.189 38.9864 207.189C39.6403 207.189 39.6902 207.482 38.156 202.295C36.5509 196.87 36.2634 196.285 33.621 193.058C32.4843 191.67 31.1077 189.868 30.5615 189.053C29.2668 187.12 29.1542 187.025 29.1638 187.865ZM310.748 187.843C310.748 188.168 312.797 191.786 313.925 193.452C316.566 197.356 319.909 200.37 324.219 202.733L326.433 203.947L324.379 201.789C323.25 200.602 321.859 198.993 321.289 198.213C319.159 195.3 310.748 187.025 310.748 187.843ZM52.4065 188.301C52.4065 188.457 52.8117 189.18 53.3066 189.908C54.2758 191.332 56.0797 192.366 58.1952 192.709L59.5175 192.923L59.3477 192.415C59.2544 192.134 57.8686 191.216 56.2679 190.374C54.6673 189.531 53.2959 188.656 53.2206 188.43C53.066 187.967 52.4065 187.863 52.4065 188.301ZM75.8292 190.013L75.2033 190.968L75.8078 191.889C76.2164 192.512 76.75 192.811 77.4538 192.811C78.4613 192.811 79.7169 191.855 79.7169 191.088C79.7169 190.506 78.5293 189.576 77.4402 189.305L76.4551 189.059L75.8292 190.013ZM214.613 190.377C214.126 190.862 213.428 192.231 213.061 193.418L212.394 195.576L212.404 200.184L212.415 204.792L213.79 207.624C215.619 211.39 217.445 212.783 219.784 212.196C221.355 211.803 223.484 209.545 224.59 207.101L225.634 204.792L225.791 201.645C225.932 198.794 225.229 194.265 224.537 193.574C224.427 193.464 224.021 193.787 223.633 194.291L222.928 195.207L222.92 199.093C222.912 203.078 222.243 206.646 221.21 208.225L220.652 209.077L219.66 208.962L218.668 208.848L217.574 206.82L216.481 204.792L216.335 201.272L216.189 197.751L216.967 194.981C217.395 193.457 217.745 191.799 217.745 191.294C217.745 189.402 216.077 188.913 214.613 190.377ZM256.997 191.094C257.129 191.467 257.343 192.214 257.472 192.753C257.963 194.807 262.411 203.529 265.477 208.451C267.236 211.275 268.675 213.419 268.675 213.216C268.675 211.82 261.98 198.102 259.219 193.839C257.286 190.854 256.623 190.035 256.997 191.094ZM233.057 192.442C233.161 193.152 233.411 195.143 233.613 196.866C234.007 200.235 234.992 203.871 235.511 203.871C235.686 203.871 235.829 202.564 235.829 200.965V198.06L234.888 195.561C234.37 194.187 233.704 192.633 233.408 192.107L232.869 191.152L233.057 192.442ZM51.3008 193.45C51.3015 193.605 51.6281 194.267 52.0267 194.92C53.0641 196.62 55.5165 198.272 57.3271 198.491C60.342 198.855 62.1795 198.993 61.723 198.821C61.468 198.725 61.3532 198.495 61.468 198.309C61.5828 198.124 61.406 197.972 61.0753 197.972C60.046 197.972 55.0345 195.734 53.1228 194.42C52.1197 193.731 51.3 193.295 51.3008 193.45ZM333.267 194.675C332.559 195.069 331.611 195.392 331.159 195.392C329.391 195.392 324.772 196.237 324.772 196.561C324.772 197.229 327.43 198.04 328.8 197.79C330.219 197.531 332.392 196.343 334.184 194.846C335.493 193.751 335.068 193.672 333.267 194.675ZM75.1675 198.123C74.8287 199.005 77.6675 201.659 78.9496 201.659C80.9451 201.659 81.4862 199.762 79.8335 198.558C79.3017 198.17 78.0864 197.778 77.1327 197.687L75.3993 197.52L75.1675 198.123ZM45.3943 199.972C45.3943 200.111 45.8221 201.749 46.345 203.614C47.5124 207.777 50.8003 215.326 52.9667 218.817C55.807 223.394 60.8919 227.442 64.6932 228.152L66.3603 228.463L66.5798 227.365C66.7009 226.761 66.7939 224.505 66.7865 222.35L66.7732 218.433L65.9495 217.428C65.1549 216.459 57.9283 211.504 57.6763 211.756C57.1817 212.249 61.0949 218.544 63.8104 221.623C64.6426 222.567 65.3236 223.432 65.3236 223.547C65.3236 224.07 63.6635 223.044 61.6581 221.28C58.0974 218.15 55.755 215.107 47.7227 203.178C46.4421 201.276 45.3943 199.833 45.3943 199.972ZM267.955 202.814C267.926 203.203 273.068 213.04 275.252 216.774C277.502 220.62 281.774 229.355 282.164 230.907C282.3 231.448 282.559 231.889 282.74 231.889C283.222 231.889 283.251 232.003 280.892 224.725C278.551 217.505 276.972 214.024 274.192 209.954C272.514 207.498 267.992 202.32 267.955 202.814ZM239.419 207.281C240.176 216.409 243.314 230.783 244.55 230.783C244.688 230.783 244.694 228.544 244.562 225.806C244.431 223.069 244.398 220.829 244.489 220.829C244.581 220.829 245.109 221.618 245.663 222.58C247.838 226.357 251.545 231.497 252.107 231.514C252.23 231.518 251.354 229.115 250.16 226.175C248.111 221.125 245.425 212.679 245.425 211.285C245.425 210.763 239.945 205.345 239.417 205.345C239.33 205.345 239.331 206.216 239.419 207.281ZM230.287 218.832C230.28 226.794 229.774 231.774 228.62 235.244C228.281 236.264 227.939 237.034 227.859 236.954C227.78 236.875 227.395 234.694 227.005 232.107C226.614 229.52 226.211 227.32 226.107 227.216C226.004 227.113 225.816 227.832 225.688 228.814C224.252 239.884 222.392 246.241 218.058 254.883C217.461 256.073 217.048 257.122 217.139 257.213C217.416 257.49 221.067 252.917 223.189 249.638C224.285 247.943 225.612 245.538 226.139 244.292C226.665 243.046 227.242 241.862 227.42 241.661C227.606 241.449 227.697 244.143 227.634 248.02C227.574 251.72 227.609 254.747 227.712 254.747C228.09 254.746 230.96 249.636 231.899 247.291C232.433 245.959 233.155 243.732 233.503 242.342L234.137 239.815L234.113 233.917L234.088 228.018L232.926 221.751C231.759 215.46 230.888 211.716 230.501 211.329C230.387 211.215 230.29 214.591 230.287 218.832ZM280.273 214.47C282.891 220.516 285.765 226.669 287.378 229.677C289.193 233.063 293.974 240 294.492 240C294.666 240 293.934 237.967 292.864 235.484C290.875 230.865 288.586 224.885 288.807 224.885C288.875 224.885 290.82 226.262 293.13 227.946C297.162 230.887 300.343 232.82 300.647 232.517C300.86 232.305 279.828 211.613 279.401 211.613C279.201 211.613 279.594 212.898 280.273 214.47ZM210.778 215.772C210.104 217.147 209.322 219.138 209.04 220.196C208.495 222.241 208.379 227.896 208.856 229.118L209.142 229.849L209.403 228.381C209.546 227.573 210.248 224.134 210.963 220.738C211.679 217.341 212.205 214.272 212.134 213.917C212.053 213.514 211.545 214.208 210.778 215.772ZM316.825 214.516C318.521 216.335 321.177 217.398 325.147 217.846L328.648 218.242L331.969 217.65C333.796 217.324 335.423 216.936 335.585 216.788C335.747 216.639 334.086 216.416 331.895 216.293C328.511 216.102 318.61 214.37 316.41 213.585L315.731 213.342L316.825 214.516ZM303.617 215.945C306.497 220.473 308.742 223.691 310.627 225.991C312.623 228.427 315.177 230.731 315.177 230.097C315.177 229.526 312.66 225.252 310.918 222.866C309.287 220.631 302.956 213.825 302.509 213.825C302.377 213.825 302.875 214.778 303.617 215.945ZM215.456 221.031C213.734 226.115 213.507 227.021 212.591 232.442C211.782 237.232 211.635 242.521 212.237 245.161C212.636 246.912 214.183 249.585 214.798 249.585C215.005 249.585 215.164 248.356 215.167 246.728C215.172 244.101 215.563 238.165 216.658 224.125C217.242 216.634 217.083 216.224 215.456 221.031ZM91.5268 219.725C90.6134 219.836 89.6405 220.068 89.3652 220.24L88.8644 220.553L89.3652 220.87C89.9417 221.234 92.7934 221.293 94.0179 220.966C94.4748 220.843 94.8483 220.533 94.8483 220.276C94.8483 219.675 93.6186 219.47 91.5268 219.725ZM315.656 224.579C316.948 226.673 318.966 230.184 320.142 232.38L322.279 236.374L323.791 237.468C325.852 238.959 327.715 239.735 331.416 240.643C334.768 241.465 337.623 242.005 337.321 241.759C337.219 241.676 334.977 239.625 332.338 237.2C321.909 227.616 315.478 222.017 313.781 221.043C313.521 220.893 314.365 222.485 315.656 224.579ZM270.948 225.49C271.11 226.836 271.49 228.899 271.791 230.074C272.409 232.486 274.535 238.156 274.821 238.156C275.055 238.156 274.622 233.745 274.171 231.521C273.763 229.512 271.277 223.041 270.913 223.041C270.77 223.041 270.785 224.143 270.948 225.49ZM266.246 232.757C266.609 233.878 268.286 242.136 268.916 245.898C269.287 248.119 269.488 251.425 269.464 254.931L269.427 260.461L270.317 262.619C271.32 265.051 274.987 271.321 275.411 271.33C275.87 271.34 275.715 264.109 275.139 258.689C274.332 251.098 272.721 245.152 269.645 238.422C268.453 235.814 265.81 231.41 266.246 232.757ZM282.7 232.404C282.7 233.118 284.321 237.489 284.45 237.122C284.608 236.674 283.146 232.258 282.839 232.258C282.762 232.258 282.7 232.324 282.7 232.404ZM240.105 239.723C240.996 245.654 241.73 256.123 241.493 259.539C240.844 268.912 239.697 273.755 235.302 285.684C234.375 288.202 233.676 290.322 233.749 290.395C234.253 290.898 243.007 280.352 244.72 277.18L245.187 276.313L245.504 277.522C245.678 278.187 245.773 282.454 245.715 287.003L245.609 295.274L246.027 294.826C246.692 294.111 248.306 288.775 248.948 285.161C250.043 279.008 249.629 266.173 248.133 259.908L247.913 258.986L247.077 262.889C246.288 266.572 243.983 272.442 243.327 272.443C243.161 272.443 243.079 267.782 243.144 262.086L243.263 251.728L242.49 246.406C242.065 243.478 241.309 239.803 240.808 238.237C240.308 236.672 239.896 235.101 239.894 234.746C239.891 234.392 239.747 234.101 239.574 234.101C239.402 234.101 239.64 236.631 240.105 239.723ZM115.885 236.541C114.056 237.344 109.759 238.118 108.179 237.929C107.444 237.841 105.431 237.525 103.706 237.227C101.98 236.928 99.5623 236.684 98.3326 236.683L96.0965 236.682L95.1956 238.617L94.2947 240.553H91.6183H88.9423L88.9426 241.165C88.9452 243.493 91.8682 249.714 92.7934 249.359C93.1138 249.237 93.8788 249.918 94.8254 251.171L96.3438 253.18L98.4563 254.118C101.76 255.585 101.473 255.65 105.294 252.58C106.677 251.47 109.607 247.623 109.61 246.914C109.611 246.527 105.926 247.968 104.813 248.79C101.614 251.15 99.7136 251.192 95.8666 248.985L93.3791 247.557L93.3754 246.798C93.3736 246.381 93.6079 245.717 93.8958 245.324L94.4195 244.608L95.6488 245.077L96.8782 245.546L98.1699 244.084C100.51 241.435 102.643 240.75 110.753 240.045C114.889 239.685 117.354 238.81 118.087 237.442C118.945 235.841 118.185 235.53 115.885 236.541ZM246.738 237.296C247.164 239.182 249.909 247.181 250.254 247.539C250.719 248.022 250.685 246.377 250.18 243.981C249.768 242.031 247.463 236.844 246.834 236.456C246.648 236.341 246.606 236.709 246.738 237.296ZM300.274 239.798C300.483 240.342 307.216 246.636 307.589 246.636C307.906 246.636 306.752 244.466 305.698 243.082C304.781 241.876 302.505 240.215 300.972 239.633L300.081 239.294L300.274 239.798ZM276.134 242.613L276.25 245.411L278.723 250.355C281.659 256.221 286.874 264.34 287.38 263.834C287.515 263.7 286.64 261.692 283.905 255.852C283.098 254.129 281.328 250.23 279.971 247.189C278.615 244.147 277.171 241.244 276.762 240.737L276.018 239.815L276.134 242.613ZM309.272 241.083C309.272 241.241 311.908 244.102 315.13 247.441C318.352 250.778 322.22 255.163 323.725 257.184C326.474 260.873 330.841 268.227 331.414 270.132L331.721 271.152L331.753 269.441C331.8 266.909 330.765 261.956 329.509 258.701C327.653 253.893 321.977 247.165 317.627 244.618C315.417 243.325 309.272 240.724 309.272 241.083ZM207.054 242.649C207.048 243.396 206.859 244.474 206.636 245.045C205.587 247.721 206.402 257.518 207.989 261.313L208.519 262.579L209.056 262.134C209.351 261.889 210.367 260.368 211.314 258.756L213.035 255.823L212.48 255.192C211.052 253.572 208.844 248.19 208.137 244.608C207.569 241.73 207.069 240.825 207.054 242.649ZM71.5976 243.956C71.5976 244.128 71.8603 246.157 72.1814 248.465C72.9446 253.947 74.1814 258.12 76.4134 262.745L78.2277 266.503L80.5133 268.944C82.4704 271.033 84.2973 272.442 85.0498 272.442C85.4642 272.442 85.2317 270.653 84.566 268.721C83.5271 265.706 81.3699 261.61 78.6625 257.511C76.6061 254.399 72.3357 245.58 72.3357 244.446C72.3357 244.255 72.1696 243.996 71.9666 243.871C71.7636 243.745 71.5976 243.784 71.5976 243.956ZM253.685 244.608C253.868 246.033 256.877 259.674 257.046 259.842C257.116 259.912 257.288 259.051 257.429 257.929L257.684 255.888L256.909 252.291C256.471 250.26 255.57 247.566 254.838 246.099L253.543 243.502L253.685 244.608ZM287.867 249.28C287.867 249.666 289.836 254.312 290.859 256.339C292.296 259.188 297.457 267.04 297.72 266.778C298.019 266.479 296.067 260.415 294.975 258.249C293.673 255.668 287.867 248.342 287.867 249.28ZM261.907 253.18C262.01 254.751 262.515 259.769 263.03 264.332C263.545 268.894 264.071 275.696 264.199 279.447L264.431 286.267L265.063 285.114C267.873 279.988 268.197 270.061 265.855 260.855C265.336 258.813 262.097 250.322 261.838 250.322C261.773 250.322 261.804 251.608 261.907 253.18ZM311.855 252.404C311.855 252.597 312.008 252.913 312.195 253.106C312.381 253.298 313.86 256.608 315.481 260.461C317.101 264.313 318.867 268.443 319.404 269.638C320.886 272.933 327.38 285.851 327.749 286.238C328.231 286.743 330.271 282.125 330.686 279.59C330.882 278.396 331.043 276.531 331.044 275.445L331.047 273.472L329.75 271.021C328.404 268.478 324.363 263.115 321.696 260.332C320.85 259.451 318.582 257.471 316.653 255.933C314.725 254.395 312.856 252.892 312.501 252.594C312.146 252.295 311.855 252.21 311.855 252.404ZM296.373 255.659C296.363 255.856 297.667 258.926 299.271 262.479C300.876 266.033 303.056 271.014 304.118 273.548C306.624 279.531 311.481 289.401 311.919 289.401C312.638 289.401 311.229 281.165 309.846 277.281C309.53 276.394 309.272 275.511 309.272 275.321C309.272 274.708 313.716 278.437 316.387 281.29C319.094 284.18 323.639 289.77 325.082 291.981L325.924 293.272L325.674 291.981C325.274 289.914 322.083 283.531 320.118 280.869C317.324 277.084 296.413 254.882 296.373 255.659ZM220.226 259.078C217.151 263.226 215.044 266.559 212.594 271.152L210.627 274.839L212.184 273.364C213.801 271.832 218.126 265.55 220.447 261.365C221.684 259.133 223.054 255.852 222.748 255.852C222.676 255.852 221.541 257.304 220.226 259.078ZM233.296 258.973C233.041 260.487 232.099 264.304 231.201 267.455C228.957 275.339 226.72 285.217 227.095 285.591C227.332 285.828 229.253 282.545 230.418 279.915C233.173 273.694 233.996 269.894 234.255 262.212C234.473 255.719 234.071 254.362 233.296 258.973ZM86.3751 259.62C86.3666 259.766 87.2734 262.731 88.3898 266.208C89.5062 269.685 90.4196 272.727 90.4196 272.969C90.4196 273.21 90.6676 273.729 90.9703 274.123L91.5213 274.839L91.3279 272.627C90.9071 267.808 89.2777 262.729 87.4778 260.626C86.8796 259.927 86.3832 259.474 86.3751 259.62ZM254.849 269.309C254.978 271.133 255.315 274.368 255.598 276.497C255.881 278.627 256.4 282.567 256.751 285.253C257.103 287.94 257.51 290.138 257.655 290.138C258.165 290.138 258.44 285.919 258.242 281.138L258.042 276.313L256.714 271.761C255.983 269.257 255.212 266.934 255.001 266.6L254.616 265.991L254.849 269.309ZM283.501 271.981C287.456 278.33 291.941 282.801 300.968 289.397C307.145 293.911 313.769 299.608 316.641 302.876C318.36 304.832 319.83 306.241 319.907 306.009C320.118 305.378 316.126 298.44 313.853 295.484C312.761 294.064 310.578 291.477 309.002 289.734C305.344 285.692 293.758 274.654 293.172 274.654C292.986 274.654 295.014 278.537 296.889 281.77C297.454 282.744 297.829 283.627 297.723 283.733C297.523 283.933 293.599 280.345 286.515 273.483C284.25 271.288 282.296 269.493 282.173 269.493C282.051 269.493 282.648 270.613 283.501 271.981ZM204.839 272.683C204.411 273.463 203.42 275.162 202.638 276.459C201.199 278.845 200.616 280.957 200.211 285.253C199.971 287.797 200.062 287.882 202.022 286.948C203.491 286.249 203.57 286.022 204.127 280.913C204.352 278.838 204.839 275.877 205.207 274.332C205.575 272.788 205.819 271.466 205.747 271.394C205.676 271.323 205.267 271.903 204.839 272.683ZM217.539 278.064L215.745 281.843L215.597 284.529C215.336 289.257 216.206 293.176 216.74 289.681C217.224 286.516 218.254 281.511 219.064 278.393C220.057 274.566 220.097 274.286 219.646 274.286C219.474 274.286 218.525 275.986 217.539 278.064ZM334.573 276.732C334.109 281.138 333.611 283.019 332.162 285.836C331.345 287.424 330.677 288.892 330.677 289.098C330.677 289.785 334.675 295.609 335.42 296.007L336.154 296.4L336.723 294.836C338.631 289.584 338.467 283.892 336.223 277.429C335.153 274.347 334.838 274.215 334.573 276.732ZM208.171 281.751C206.392 285.379 205.792 288.716 205.998 293.836L206.141 297.385L207.321 299.779C207.97 301.096 208.822 302.464 209.214 302.818L209.928 303.463L209.869 291.087C209.837 284.279 209.777 278.71 209.736 278.71C209.695 278.71 208.991 280.078 208.171 281.751ZM275.319 281.817V283.597L276.495 285.669C277.844 288.044 281.923 292.302 283.755 293.246C284.614 293.689 284.903 293.734 284.695 293.394C282.106 289.155 277.55 282.623 275.621 280.387C275.454 280.194 275.319 280.838 275.319 281.817ZM91.3939 283.686C90.5355 289.142 87.8893 297.077 85.0505 302.708L83.7297 305.328L84.5833 304.731C85.8078 303.876 89.8568 298.729 90.8433 296.774L91.6803 295.115L91.8279 289.401C91.9091 286.258 91.9099 283.272 91.8298 282.765L91.684 281.843L91.3939 283.686ZM98.1699 288.345C98.1699 295.313 100.249 309.202 101.493 310.541C101.651 310.711 101.959 310.297 102.177 309.619C103.437 305.706 103.752 297.405 102.783 293.64C102.11 291.022 99.1065 284.608 98.5548 284.608C98.3131 284.608 98.1699 285.996 98.1699 288.345ZM120.463 287.834C120.945 289.395 121.804 295.904 122.154 300.645C122.547 305.98 123.078 310.385 123.597 312.627L123.896 313.917L124.227 312.811C124.409 312.203 124.546 308.553 124.532 304.7L124.507 297.696L123.699 294.824C122.865 291.858 120.906 287.189 120.496 287.189C120.368 287.189 120.353 287.479 120.463 287.834ZM252.2 290.599C252.332 292.475 252.682 295.502 252.977 297.327L253.515 300.645L254.306 301.288C254.741 301.642 255.243 301.841 255.421 301.731C255.919 301.424 255.539 295.378 254.87 292.962C254.073 290.082 252.803 287.189 252.337 287.189C252.089 287.189 252.042 288.36 252.2 290.599ZM108.74 291.101C108.61 292.047 108.519 296.49 108.539 300.973L108.574 309.124L109.445 305.622C110.479 301.459 110.609 296.722 109.803 292.513C109.502 290.944 109.193 289.598 109.116 289.521C109.039 289.444 108.869 290.155 108.74 291.101ZM201.23 290.67L200.03 291.797V292.965C200.03 293.608 200.134 294.403 200.261 294.732L200.491 295.331L201.241 294.67L201.992 294.009L201.784 294.839C201.669 295.295 201.702 295.668 201.857 295.668C202.115 295.668 202.775 289.755 202.534 289.608C202.476 289.573 201.89 290.051 201.23 290.67ZM269.044 296.405C269.044 299.855 269.189 302.304 269.393 302.304C269.584 302.304 271.286 301.784 273.175 301.149C275.065 300.514 278.179 299.546 280.096 298.999C282.012 298.453 283.644 297.813 283.723 297.579C283.801 297.345 283.395 296.959 282.821 296.721C282.247 296.483 279.023 294.987 275.656 293.397C272.29 291.808 269.425 290.507 269.29 290.507C269.155 290.507 269.044 293.161 269.044 296.405ZM227.272 292.995C226.263 294.176 222.137 300.558 221.239 302.328C220.141 304.491 218.821 307.925 219.013 308.117C219.357 308.461 222.812 303.586 224.841 299.892C227.953 294.225 229.169 290.778 227.272 292.995ZM330.862 295.668C331.655 296.479 332.387 297.143 332.488 297.143C332.59 297.143 332.024 296.479 331.231 295.668C330.438 294.857 329.706 294.193 329.605 294.193C329.503 294.193 330.069 294.857 330.862 295.668ZM193.203 296.257C191.204 297.274 188.967 299.251 188.205 300.674L187.727 301.567L188.238 302.58C188.519 303.138 188.788 303.655 188.836 303.73C188.883 303.804 189.727 303.039 190.712 302.03C191.696 301.02 193.16 299.779 193.964 299.272C194.769 298.764 195.658 298.072 195.939 297.733L196.451 297.118L195.964 296.208C195.696 295.709 195.381 295.304 195.262 295.309C195.144 295.314 194.218 295.741 193.203 296.257ZM248.955 296.59C248.811 296.995 248.301 298.405 247.823 299.723C247.344 301.041 246.678 303.447 246.343 305.069C246.008 306.691 245.499 308.765 245.212 309.677C244.31 312.547 243.633 315.384 243.809 315.559C244.107 315.857 246.574 314.349 247.302 313.424C247.69 312.931 248.423 311.215 248.93 309.609L249.853 306.69L249.816 302.193C249.796 299.719 249.653 297.281 249.498 296.774L249.217 295.852L248.955 296.59ZM203.572 297.822C203.462 298 203.528 299.503 203.717 301.162C204.078 304.323 205.567 307.834 206.548 307.834C207.185 307.834 207.242 308.168 205.751 303.251C205.04 300.91 204.459 298.753 204.459 298.459C204.459 297.81 203.85 297.373 203.572 297.822ZM214.491 300.331C212.94 303.414 212.632 304.74 212.324 309.632L212.13 312.719L212.539 312.467C212.764 312.328 212.947 311.946 212.947 311.617C212.947 311.289 213.109 310.51 213.308 309.888C214.431 306.358 216.368 297.856 216.108 297.596C216.019 297.508 215.291 298.738 214.491 300.331ZM231.69 300.904C228.501 304.998 224.746 310.218 222.736 313.351C220.426 316.951 218.38 321.106 218.917 321.106C219.501 321.106 223.65 316.604 226.34 313.051C228.4 310.332 234.678 298.451 234.271 298.044C234.162 297.935 233 299.222 231.69 300.904ZM293.235 298.221C293 298.601 293.98 299.459 295.559 300.259C297.088 301.034 297.322 300.851 296.362 299.632C295.578 298.637 293.545 297.72 293.235 298.221ZM117.617 299.355C117.486 300.064 117.126 302.304 116.819 304.332C116.019 309.609 114.795 314.292 111.86 323.307C110.443 327.661 109.326 331.267 109.379 331.32C109.432 331.373 110.032 330.216 110.712 328.75C112.005 325.962 112.461 325.836 111.878 328.427C111.689 329.267 111.641 329.951 111.772 329.947C112.171 329.936 116.905 322.509 117.692 320.658C119.095 317.359 119.307 307.934 118.155 300.092L117.857 298.064L117.617 299.355ZM261.197 303.533C260.055 306.686 259.304 309.485 259.054 311.521C258.843 313.244 258.19 316.557 257.603 318.883C257.016 321.209 256.597 323.173 256.671 323.247C257.221 323.796 260.669 315.889 261.853 311.36C262.824 307.65 263.642 300.512 263.224 299.397L262.955 298.68L261.197 303.533ZM324.503 299.761C324.75 300.816 329.261 312.471 331.337 317.419C333.28 322.048 334.815 326.938 336.025 332.35C336.569 334.783 337.066 336.827 337.13 336.891C337.195 336.955 337.465 336.374 337.731 335.601C338.413 333.619 338.296 326.154 337.512 321.659C335.572 310.519 332.304 304.346 326.103 300.111L324.296 298.877L324.503 299.761ZM241.262 302.027C241.158 302.483 240.399 306.037 239.576 309.924C237.771 318.446 237.255 320.507 235.667 325.53C234.994 327.659 234.353 330.124 234.243 331.008L234.043 332.615L235.149 331.561C236.497 330.276 238.556 326.104 239.316 323.122C239.624 321.912 240.203 318.682 240.603 315.945C241.634 308.887 242.141 298.174 241.262 302.027ZM90.7887 304.466C89.8753 306.009 88.0443 309.182 86.7202 311.516C85.396 313.851 83.213 317.507 81.8692 319.641C76.7482 327.776 74.2733 333.38 72.8675 340.024C72.0866 343.713 72.2235 353.917 73.0535 353.917C73.1901 353.917 73.5178 352.392 73.782 350.528C74.5914 344.813 77.5664 334.044 79.1319 331.161L79.6874 330.138L79.7021 333.118C79.7102 334.757 79.8324 336.214 79.9734 336.354C80.1147 336.496 80.7569 334.491 81.4009 331.9C82.7834 326.335 84.5132 321.584 87.5454 315.023C91.0821 307.37 92.6816 303.372 92.5613 302.485L92.4494 301.66L90.7887 304.466ZM192.891 302.364C192.517 302.575 191.971 303.321 191.679 304.021L191.146 305.294L190.442 305.071L189.738 304.848L189.137 305.764C188.806 306.268 188.589 307.147 188.655 307.718L188.774 308.756L190.374 308.683C191.254 308.643 192.188 308.432 192.45 308.215C193.132 307.649 193.83 304.898 193.691 303.324L193.572 301.981L192.891 302.364ZM182.816 303.072C180.581 303.93 177.961 306.121 176.969 307.961L176.264 309.268L176.758 310.191C177.518 311.609 178.314 311.715 179.307 310.53C181.889 307.447 183.389 306.12 184.825 305.646L186.375 305.135V303.943C186.375 303.197 186.157 302.668 185.791 302.528C185.014 302.23 185.001 302.232 182.816 303.072ZM197.366 304.055C196.493 304.979 195.233 307.457 195.233 308.248C195.233 308.426 195.791 308.571 196.474 308.571C197.998 308.571 199.572 307.401 200.26 305.756C200.888 304.253 200.891 304.322 200.189 303.62C199.339 302.772 198.448 302.909 197.366 304.055ZM283.069 304.14C281.343 304.512 279.204 305.081 278.315 305.405C276.559 306.043 272.611 308.202 272.82 308.41C272.89 308.481 273.644 308.299 274.494 308.006C275.344 307.714 277.414 307.114 279.093 306.673L282.146 305.872L287.497 305.839L292.849 305.806L295.432 306.691C300.678 308.487 303.67 311.24 310.96 320.982C313.26 324.056 315.346 326.696 315.593 326.849C316.757 327.568 309.691 315.161 304.388 307.175L303.379 305.655L301.019 304.927C295.759 303.304 288.425 302.982 283.069 304.14ZM141.065 305.767C139.136 307.961 138.668 309.174 138.839 311.535C138.923 312.694 139.277 314.078 139.626 314.609L140.26 315.576H141.37C142.841 315.576 143.111 314.743 142.187 313.057C140.983 310.862 140.904 309.883 141.731 307.431C142.149 306.189 142.436 305.005 142.367 304.8C142.299 304.595 141.713 305.03 141.065 305.767ZM200.745 309.121C200.442 309.424 198.827 310.231 197.157 310.914L194.119 312.156L193.06 313.589C190.335 317.275 187.535 319.021 184.632 318.843L182.984 318.741L181.739 320.456C180.135 322.663 177.044 324.975 174.955 325.53C174.003 325.783 172.513 325.865 171.403 325.727L169.493 325.488L168.503 327.176C167.958 328.105 166.828 329.317 165.99 329.87L164.469 330.875L162.033 330.815L159.598 330.754L158.957 333.58C158.406 336.014 156.195 341.792 155.579 342.406C155.188 342.796 155.072 342.287 154.7 338.559C154.494 336.499 154.031 333.878 153.67 332.735L153.014 330.655L151.902 330.765L150.79 330.875L150.328 333.168C149.702 336.271 148.782 337.94 146.547 340.028C144.819 341.642 141.441 343.582 140.342 343.591C140.093 343.593 139.219 343.862 138.401 344.189L136.913 344.784L137.71 346.124C138.747 347.867 142.642 351.908 144.336 352.999C145.065 353.468 146.352 354.059 147.196 354.312C148.041 354.564 148.731 354.88 148.731 355.013C148.731 355.418 144.226 355.003 142.418 354.431C141.483 354.135 139.928 353.392 138.962 352.78C137.995 352.168 137.167 351.717 137.12 351.778C137.073 351.839 136.833 354.029 136.586 356.643C136.274 359.953 135.761 362.639 134.896 365.488C134.213 367.738 133.684 369.6 133.72 369.626C133.755 369.653 135.711 370.522 138.066 371.558C144.631 374.446 149.197 375.245 153.168 374.201C155.033 373.711 159.897 371.188 163.513 368.833L165.932 367.258L165.782 364.9L165.631 362.543L166.547 359.914C168.74 353.614 172.243 348.896 182.499 338.433C186.772 334.074 191.473 329.215 192.947 327.636C196.611 323.709 203.005 315.629 204.236 313.37L205.247 311.513L204.392 310.446C203.612 309.473 202.254 308.571 201.568 308.571C201.418 308.571 201.048 308.819 200.745 309.121ZM144.302 310.166C144.302 310.963 144.593 311.662 145.133 312.164L145.963 312.936L146.966 312.741L147.968 312.545L146.447 310.743C145.61 309.751 144.785 308.94 144.613 308.94C144.443 308.94 144.302 309.492 144.302 310.166ZM180.877 311.331L178.962 313.353L179.346 314.07C179.558 314.465 180.271 315.172 180.931 315.642L182.131 316.497H184.345H186.56L187.896 315.594C189.053 314.812 191.173 312.092 191.173 311.39C191.173 310.888 188.702 311.201 187.165 311.897C186.28 312.298 185.004 312.627 184.33 312.627H183.103L182.879 311.921C182.756 311.532 182.762 310.786 182.894 310.262C183.026 309.737 183.057 309.309 182.962 309.309C182.869 309.309 181.93 310.218 180.877 311.331ZM322.199 309.413C322.193 309.572 322.585 310.484 323.069 311.441C325.316 315.885 329.424 328.22 330.523 333.825L331.029 336.405L330.87 333.429C330.646 329.241 329.37 322.355 328.238 319.218C327.71 317.757 326.621 315.469 325.819 314.134C324.322 311.643 322.217 308.897 322.199 309.413ZM171.62 310.309C170.095 310.607 166.971 312.911 165.845 314.568C164.674 316.292 164.111 317.788 164.632 317.788C164.818 317.788 164.97 318.019 164.97 318.301C164.97 319.266 166.223 319.372 166.796 318.457C167.09 317.988 168.086 316.857 169.01 315.945L170.69 314.286L172.8 313.626C173.96 313.262 175.007 312.807 175.127 312.613C175.247 312.419 175.127 311.804 174.86 311.246C174.362 310.202 173.479 309.947 171.62 310.309ZM279.803 310.625C276.733 311.45 272.093 313.613 268.952 315.682C266.164 317.52 265.075 318.689 267.107 317.663C268.686 316.867 273.781 315.292 276.352 314.806C277.829 314.527 280.453 314.441 283.549 314.572L288.42 314.777L292.599 316.12C294.898 316.858 298.053 318.067 299.611 318.805C301.17 319.544 302.61 320.214 302.813 320.295C303.737 320.662 299.563 317.239 296.908 315.453C293.322 313.039 290.709 311.799 287.105 310.802C283.941 309.926 282.531 309.892 279.803 310.625ZM217.025 313.888C216.596 314.581 215.006 316.518 213.492 318.191C211.91 319.939 209.893 322.735 208.749 324.764C206.248 329.203 205.107 331.462 205.28 331.634C205.479 331.832 211.335 326.815 213.707 324.414C214.835 323.272 215.954 321.853 216.194 321.261C216.903 319.509 218.423 312.627 218.102 312.627C217.939 312.627 217.454 313.194 217.025 313.888ZM340.286 313.226C340.279 313.656 340.593 315.979 340.985 318.387C341.376 320.795 341.977 324.839 342.32 327.373C343.406 335.404 345.81 344.075 348.2 348.58L349.378 350.801L350.702 348.58C353.316 344.196 354.191 340.018 353.561 334.931C352.768 328.517 349.245 321.747 343.7 315.979L340.3 312.442L340.286 313.226ZM107.428 314.135C107.411 314.863 107.056 317.088 106.639 319.079C106.223 321.07 105.94 323.129 106.011 323.654L106.138 324.608L106.756 322.58C107.585 319.858 108.137 315.055 107.762 313.815L107.46 312.811L107.428 314.135ZM91.9778 314.199C90.0697 316.227 87.9152 323.255 87.8259 327.742C87.7318 332.455 87.8417 334.378 88.2053 334.378C88.4082 334.378 88.5743 333.796 88.5743 333.084C88.5743 331.511 90.8267 320.914 92.0664 316.656C92.5602 314.959 92.9182 313.525 92.8621 313.469C92.806 313.413 92.4077 313.741 91.9778 314.199ZM75.7288 316.425C73.3702 318.803 73.0816 319.262 73.9496 319.262C74.8324 319.262 78.6374 314.743 78.1576 314.264C78.079 314.186 76.9862 315.158 75.7288 316.425ZM145.096 315.103C144.125 316.916 145.587 320.101 147.477 320.293L148.549 320.402L150.016 318.901L151.483 317.4L151.093 316.783C150.362 315.625 148.817 314.758 147.149 314.57L145.483 314.382L145.096 315.103ZM157.404 316.461C155.106 317.189 152.907 318.428 152.629 319.152C152.322 319.95 153.601 321.111 154.769 321.094C155.203 321.088 156.389 320.675 157.404 320.176C158.419 319.677 159.682 319.268 160.211 319.266C160.842 319.264 161.512 318.853 162.161 318.07L163.149 316.878L161.937 316.44C160.38 315.875 159.237 315.881 157.404 316.461ZM170.69 317.492C169.282 318.291 166.815 320.46 166.815 320.898C166.815 321.796 169.6 322.949 171.767 322.949H173.851L175.662 322.033C177.551 321.076 179.598 318.835 179.188 318.172C178.78 317.513 177.028 317.772 175.488 318.719C173.033 320.229 171.06 319.656 171.828 317.655C172.098 316.954 171.732 316.901 170.69 317.492ZM139.763 318.816C140.13 321.251 141.796 323.418 143.656 323.882L144.671 324.135L144.665 323.081C144.661 322.502 144.204 321.342 143.65 320.505C143.095 319.667 142.475 318.733 142.272 318.428C142.07 318.124 141.375 317.778 140.729 317.661L139.555 317.448L139.763 318.816ZM123.384 320.28C123.149 320.836 122.592 322.159 122.145 323.221L121.334 325.151L121.562 327.645C121.687 329.016 121.894 332.83 122.022 336.121C122.158 339.625 122.395 342.017 122.595 341.894C122.782 341.778 122.866 341.491 122.78 341.256C122.592 340.741 123.517 338.366 124.028 338.05C124.229 337.926 124.627 336.039 124.914 333.856L125.436 329.887L125.109 325.957C124.93 323.796 124.564 321.407 124.297 320.649L123.812 319.27L123.384 320.28ZM248.921 322.62C247.302 324.499 244.617 327.244 242.954 328.721L239.929 331.407L240.937 332.123C241.49 332.517 242.543 332.952 243.276 333.09L244.609 333.339L246.136 331.961C246.976 331.204 248.22 329.571 248.9 328.333C250.205 325.96 252.221 320.275 251.997 319.602C251.924 319.384 250.54 320.742 248.921 322.62ZM74.7704 319.908C74.6209 320.06 73.8046 320.355 72.9557 320.564L71.413 320.944L69.639 324.435L67.8649 327.926L67.3065 331.188C66.9995 332.981 66.8231 334.524 66.9146 334.615C67.2888 334.989 73.1532 324.771 74.7213 321.014C75.29 319.65 75.3029 319.366 74.7704 319.908ZM226.752 327.092C222.302 334.934 218.011 343.467 218.212 344.072C218.284 344.287 218.726 343.811 219.194 343.014C220.766 340.345 223.832 335.867 224.094 335.859C224.236 335.856 224.111 336.641 223.815 337.604C223.091 339.962 220.992 350.279 221.195 350.481C221.43 350.716 223.72 346.8 225.239 343.568C226.731 340.391 228.763 333.444 229.869 327.742C230.714 323.383 231.181 320 230.938 320C230.849 320 228.965 323.191 226.752 327.092ZM99.2265 322.653C98.1953 326.661 98.9157 337.145 100.252 337.59C100.808 337.775 101.491 334.87 101.491 332.321C101.491 330.514 100.142 321.129 99.8365 320.809C99.7775 320.748 99.5029 321.577 99.2265 322.653ZM160.541 320.983C158.901 321.539 155.374 323.528 155.374 323.897C155.374 324.674 156.879 326.253 158.557 327.235L160.209 328.202L161.943 328.007L163.678 327.812L165.062 326.255C165.823 325.399 166.446 324.553 166.446 324.376C166.446 324.2 165.325 324.053 163.955 324.05C162.585 324.047 161.09 323.945 160.633 323.823C159.571 323.539 159.561 322.466 160.611 321.489C161.453 320.705 161.448 320.675 160.541 320.983ZM200.526 325.42C195.866 330.041 192.808 334.035 190.703 338.249C189.294 341.07 187.038 348.756 187.618 348.756C187.711 348.756 188.618 347.221 189.634 345.345C191.797 341.351 195.075 336.59 195.663 336.59C196.061 336.59 196.007 337.846 195.409 342.488L195.195 344.147L195.743 343.202C196.044 342.682 197.139 339.945 198.175 337.119C199.211 334.293 201.306 329.515 202.83 326.5C204.355 323.486 205.531 320.947 205.443 320.86C205.356 320.773 203.143 322.825 200.526 325.42ZM146.668 323.133C146.309 324.561 146.768 325.744 148.309 327.362L149.724 328.848H151.626H153.529V328.133C153.529 327.74 152.847 326.631 152.014 325.67C151.181 324.708 150.324 323.537 150.11 323.067L149.72 322.212H148.31H146.9L146.668 323.133ZM130.393 330.322C129.352 333.889 128.195 339.76 127.888 343.041L127.646 345.622L128.4 344.495C129.751 342.474 131.115 337.099 131.296 333.087C131.387 331.06 131.403 328.986 131.331 328.479L131.201 327.557L130.393 330.322ZM213.126 338.296C209.475 341.641 204.136 346.535 201.26 349.171C194.968 354.94 194.284 356.013 197.521 355.044C199.755 354.375 203.269 352.015 207.922 348.057L208.617 347.465L208.339 348.387C208.025 349.425 205.353 354.858 203.667 357.884C203.056 358.982 202.64 359.965 202.744 360.068C202.995 360.319 206.92 355.006 208.974 351.634C213.185 344.72 220.072 332.524 219.875 332.327C219.813 332.265 216.776 334.951 213.126 338.296ZM237.085 333.71C236.421 334.992 233.297 339.194 229.658 343.698C228.384 345.275 227.341 346.622 227.341 346.691C227.341 347.073 230.876 346.073 231.767 345.439C234.646 343.392 236.968 338.985 237.839 333.917C238.13 332.225 237.888 332.158 237.085 333.71ZM144.984 335.211C143.837 336.071 141.889 337.355 140.656 338.064C138.087 339.542 137.554 340.277 139.055 340.274C141.906 340.269 144.422 338.71 146.538 335.637C148.298 333.081 147.953 332.986 144.984 335.211ZM251.972 336.498C248.9 341.075 246.61 345.055 244.008 350.336C240.517 357.423 237.993 362.838 238.122 362.963C238.256 363.093 242.251 357.762 244.21 354.839C246.451 351.495 248.811 346.925 251.255 341.198C253.285 336.438 254.14 334.009 253.785 334.009C253.706 334.009 252.891 335.129 251.972 336.498ZM110.718 335.045C110.718 335.209 108.124 338.236 104.953 341.773C101.783 345.309 98.3208 349.364 97.2601 350.783C94.2671 354.789 91.8471 358.415 92.039 358.607C92.3845 358.952 95.5038 356.501 97.6222 354.22C101.3 350.259 105.607 344.601 108.596 339.802C110.169 337.277 111.456 335.106 111.456 334.978C111.456 334.851 111.29 334.746 111.087 334.746C110.884 334.746 110.718 334.881 110.718 335.045ZM319.802 337.209C320.323 338.592 321.419 342.212 322.236 345.253C325.65 357.958 328.067 365.813 328.648 366.091C329.082 366.298 329.492 363.575 329.537 360.184C329.606 354.886 325.888 344.664 321.517 338.135C320.388 336.45 319.328 334.987 319.16 334.883C318.992 334.78 319.281 335.826 319.802 337.209ZM69.5984 338.384C69.4393 338.641 69.409 338.95 69.5308 339.072C69.8611 339.402 70.2214 338.917 70.0427 338.382L69.8874 337.917L69.5984 338.384ZM82.4258 342.12L82.5708 345.991L83.5344 348.501C84.4652 350.926 87.3579 355.76 87.8779 355.76C88.0178 355.76 88.4625 355.201 88.8659 354.518L89.5996 353.276L87.951 350.555C86.1127 347.521 84.9516 345.109 83.3569 341.014L82.2804 338.249L82.4258 342.12ZM181.684 343.393C174.99 350.684 171.376 357.141 170.634 363.133L170.383 365.161L173.072 362.765C174.551 361.447 176.613 359.686 177.654 358.853C178.695 358.019 179.932 356.919 180.401 356.408L181.254 355.479L183.258 347.786C184.36 343.554 185.221 340.002 185.172 339.891C185.124 339.781 183.554 341.357 181.684 343.393ZM113.171 341.014C112.688 342.294 110.709 350.985 110.36 353.364C110.152 354.783 109.888 356.5 109.773 357.179C109.643 357.943 109.702 358.328 109.926 358.19C110.706 357.708 112.873 353.24 113.441 350.944C114.068 348.408 114.216 342.49 113.684 341.198L113.381 340.461L113.171 341.014ZM341.72 343.974C342.518 346.074 344.349 349.059 345.444 350.05C345.848 350.415 346.178 350.599 346.178 350.46C346.178 349.623 341.684 342.12 341.183 342.12C341.09 342.12 341.331 342.954 341.72 343.974ZM66.1241 344.784C65.0597 346.504 63.2214 352.147 62.5958 355.612C62.2692 357.422 62.0961 360.549 62.1393 363.871L62.2083 369.216L63.0682 371.14C63.5414 372.199 64.147 373.246 64.4146 373.467L64.901 373.871L66.7238 371.175C67.7265 369.692 69.312 367.63 70.2476 366.592L71.9482 364.704L70.662 362.168C68.7038 358.305 67.9129 354.533 67.3571 346.397C67.2615 344.999 67.1157 343.787 67.0338 343.705C66.9515 343.623 66.5422 344.108 66.1241 344.784ZM237.079 345.872C235.463 348.43 232.553 353.909 231.044 357.235C230.262 358.958 228.696 362.324 227.563 364.714C226.43 367.104 225.391 369.504 225.254 370.048L225.006 371.035L226.786 369.034C229.047 366.491 231.849 362.21 233.424 358.894C235.259 355.03 238.756 344.332 238.184 344.332C238.112 344.332 237.615 345.025 237.079 345.872ZM77.6675 345.345C77.5121 345.7 77.3102 348.333 77.2191 351.197L77.0537 356.404L77.9218 358.294C78.3993 359.334 78.9795 360.184 79.2109 360.184C79.4427 360.184 79.9221 359.742 80.2764 359.202L80.9208 358.22L79.9505 353.948C79.4168 351.599 78.7968 348.558 78.5728 347.189C78.3484 345.82 78.1166 344.7 78.0576 344.7C77.9989 344.7 77.8232 344.99 77.6675 345.345ZM120.683 345.871C120.683 346.698 114.056 359.688 112.787 361.348L111.512 363.016L108.993 363.42C107.607 363.642 105.353 363.729 103.983 363.612C100.974 363.357 100.768 363.785 103.211 365.215L104.931 366.222L106.625 366.196C108.777 366.163 110.719 365.35 113.187 363.448C115.236 361.869 118.185 358.164 119.558 355.445C120.987 352.614 122.058 345.438 121.052 345.438C120.849 345.438 120.683 345.633 120.683 345.871ZM339.282 347.465C339.777 348.479 340.599 350.47 341.109 351.89C343.112 357.465 346.462 364.2 348.761 367.276C350.096 369.06 350.607 369.405 350.607 368.52C350.607 367.672 347.688 359.489 346.668 357.479C345.032 354.253 341.824 349.385 340.069 347.465L338.383 345.622L339.282 347.465ZM191.978 349.578C190.928 351.133 189.223 353.533 188.19 354.912C185.878 357.996 183.71 362.481 182.892 365.868C182.19 368.774 181.698 373.407 182.134 373.002C182.293 372.854 182.904 371.278 183.491 369.5C184.517 366.394 188.903 357.235 189.365 357.235C189.488 357.235 189.353 358.106 189.066 359.17C188.192 362.407 187.952 374.215 188.777 373.391C188.861 373.307 189.428 370.758 190.037 367.726C190.645 364.693 191.819 358.908 192.645 354.871C193.471 350.833 194.088 347.355 194.017 347.141C193.946 346.927 193.028 348.024 191.978 349.578ZM216.007 347.557C215.876 347.912 213.75 351.438 211.283 355.392C207.038 362.194 203.721 367.917 203.721 368.437C203.721 368.943 208.077 365.152 210.078 362.905C213.022 359.598 213.821 358.049 215.123 353.124C215.748 350.762 216.423 348.398 216.624 347.871C216.867 347.232 216.865 346.912 216.617 346.912C216.413 346.912 216.138 347.202 216.007 347.557ZM56.8798 350.312C54.5979 353.088 51.8972 358.165 51.1229 361.134C50.0032 365.429 50.6771 370.537 52.6951 373.052C53.6934 374.297 57.5283 376.942 57.8571 376.613C57.9398 376.531 57.5907 375.745 57.0814 374.868C56.572 373.99 55.8572 372.276 55.4933 371.06L54.8312 368.848L54.8736 364.792C54.9253 359.818 55.9782 354.822 57.7781 351.006C58.4856 349.506 59.0012 348.215 58.9237 348.138C58.8458 348.061 57.9265 349.039 56.8798 350.312ZM128.147 354.387L125.48 357.068L125.488 358.903C125.493 359.912 125.803 361.411 126.178 362.236C126.944 363.92 129.102 366.537 129.515 366.283C130.294 365.801 131.749 351.705 131.02 351.705C130.906 351.705 129.613 352.912 128.147 354.387ZM122.389 361.336C121.81 364.232 122.597 366.497 124.65 367.841L125.48 368.385V367.361C125.48 366.799 125.061 365.454 124.55 364.373C124.038 363.292 123.519 361.907 123.396 361.296C123.109 359.861 122.681 359.878 122.389 361.336ZM223.401 363.596C222.148 365.471 219.618 368.829 217.78 371.06C215.941 373.29 213.748 375.988 212.906 377.055L211.376 378.994L211.246 381.202C211.174 382.416 211.265 383.41 211.448 383.41C212.229 383.41 216.06 379.415 217.767 376.822C220.652 372.438 226.089 361.406 225.795 360.532C225.732 360.343 224.654 361.722 223.401 363.596ZM251.838 362.869C247.259 367.712 242.612 374.081 240.061 379.01C239.131 380.807 239.92 380.2 243.129 376.651C246.601 372.813 252.074 365.052 254.546 360.461C254.948 359.713 254.15 360.423 251.838 362.869ZM85.4377 364.565C82.4483 368.228 78.63 374.41 77.4841 377.441L76.691 379.539L76.8629 381.757C77.0829 384.6 78.3971 387.833 80.4207 390.511C81.3005 391.675 82.1246 392.627 82.2523 392.627C82.3804 392.627 82.428 391.164 82.3582 389.377C82.2088 385.532 83.1484 376.797 84.1198 373.004C84.498 371.526 85.5683 368.337 86.4984 365.918C87.428 363.499 88.151 361.493 88.1049 361.459C88.0584 361.427 86.8582 362.824 85.4377 364.565ZM94.4398 362.49C92.755 363.939 90.8533 366.599 89.6206 369.231L88.4245 371.784L88.2842 374.924L88.144 378.064L89.0323 380.653C89.5206 382.077 90.5724 384.218 91.3696 385.411C92.1664 386.603 93.1027 388.002 93.45 388.52C94.1678 389.589 94.0338 390.01 93.1964 389.316L92.634 388.85V389.608C92.634 390.875 93.3551 392.376 94.594 393.689C95.8345 395.003 100.056 397.87 100.337 397.589C100.428 397.499 99.5609 396.439 98.4105 395.234C95.6787 392.374 93.9917 388.845 93.1662 384.266L92.5292 380.732L92.7857 374.79C93.0473 368.715 93.6138 365.551 94.8841 363.063C95.2786 362.291 95.5565 361.66 95.5016 361.661C95.4469 361.662 94.969 362.035 94.4398 362.49ZM335.479 363.889C335.488 365.459 336.678 374.269 337.094 375.852C337.397 377.007 338.508 379.004 340.069 381.198C341.438 383.124 342.917 385.364 343.354 386.175L344.148 387.65L344.257 384.753C344.38 381.46 343.425 377.024 341.943 374.009C340.937 371.963 336.355 364.255 335.818 363.705C335.603 363.486 335.476 363.555 335.479 363.889ZM198.915 365.806C198.062 367.195 196.612 370.901 196.834 371.124C196.917 371.206 197.504 370.838 198.139 370.305L199.292 369.335V367.917C199.292 367.137 199.454 366.074 199.652 365.554C200.149 364.249 199.797 364.37 198.915 365.806ZM78.4853 367.86C77.8753 368.533 76.2743 372.721 76.5297 372.976C76.7146 373.161 79.7169 368.083 79.7169 367.585C79.7169 366.986 79.1655 367.109 78.4853 367.86ZM346.932 368.368C346.923 368.509 347.321 369.919 347.815 371.501C349.801 377.856 350.405 381.272 350.972 389.36C351.176 392.272 351.449 395.387 351.579 396.284L351.816 397.913L352.331 397.21C352.614 396.824 353.196 395.427 353.625 394.106L354.405 391.705L354.408 386.912L354.41 382.12L353.408 378.617C352.823 376.57 351.892 374.349 351.168 373.272C349.821 371.268 346.957 367.952 346.932 368.368ZM107.345 370.138C105.435 372.668 104.026 375.292 103.995 376.376C103.962 377.529 105.897 381.084 107.21 382.284C108.216 383.203 112.194 385.701 112.194 385.414C112.194 385.287 111.87 384.728 111.473 384.172C111.077 383.616 110.31 381.848 109.77 380.244L108.787 377.327L108.553 373.087L108.319 368.848L107.345 370.138ZM166.31 371.705C164.375 374.247 163.124 379.619 163.124 385.389C163.124 388.815 163.947 393.364 164.566 393.364C164.697 393.364 164.83 391.498 164.863 389.216C164.931 384.497 165.559 381.397 167.423 376.595L168.713 373.272L168.303 371.889C168.077 371.129 167.742 370.507 167.557 370.507C167.373 370.507 166.811 371.046 166.31 371.705ZM206.549 374.621C205.637 376.515 204.699 378.792 204.463 379.681C204.041 381.273 204.255 384.715 204.796 385.049C204.944 385.14 205.567 384.91 206.181 384.537L207.297 383.859L207.521 378.934C207.643 376.225 207.915 373.439 208.125 372.743C208.822 370.426 208.224 371.139 206.549 374.621ZM97.0686 373.825L97.0634 375.852L98.1204 378.064C99.1106 380.135 102.128 384.003 102.479 383.652C102.566 383.565 101.855 382.284 100.897 380.805C99.0593 377.968 97.8045 375.105 97.7953 373.728C97.7919 373.275 97.6285 372.654 97.4317 372.35L97.0741 371.797L97.0686 373.825ZM132.852 372.927C132.654 373.447 132.492 373.995 132.492 374.145C132.492 374.809 135.082 376.822 137.106 377.729L139.32 378.722L142.164 378.759C143.796 378.781 145.182 378.624 145.415 378.39L145.822 377.984L144.508 377.77C142.848 377.501 139.577 375.849 136.39 373.669C135.033 372.741 133.762 371.981 133.567 371.981C133.372 371.981 133.05 372.407 132.852 372.927ZM125.579 374.286C124.686 375.788 120.709 380.716 119.429 381.907C118.9 382.399 118.468 383.02 118.468 383.288V383.776L120.382 383.049C123.972 381.686 126.957 377.82 126.957 374.531C126.957 372.773 126.524 372.696 125.579 374.286ZM161.174 374.569C157.36 377.923 154.067 382.982 152.967 387.179C152.208 390.076 152.38 393.849 153.314 394.782L153.898 395.365V394.61C153.898 392.926 155.608 388.723 159.32 381.283C161.472 376.97 163.151 373.36 163.051 373.26C162.951 373.16 162.107 373.749 161.174 374.569ZM75.3435 374.562C75.1313 375.17 75.0988 375.668 75.2712 375.668C75.4439 375.668 75.7587 375.17 75.9709 374.562C76.1831 373.954 76.2156 373.456 76.0433 373.456C75.8705 373.456 75.5557 373.954 75.3435 374.562ZM194.439 375.279C191.731 376.397 189.799 376.99 189.221 376.879L188.304 376.704L187.54 379.043C187.119 380.33 186.663 382.419 186.527 383.686L186.28 385.991H186.746C187.59 385.991 199.661 374.654 199.661 373.861C199.661 373.217 199.004 373.396 194.439 375.279ZM170.883 375.023C170.893 376.568 171.989 378.927 173.225 380.064C173.759 380.556 174.196 380.786 174.196 380.576C174.196 380.094 171.267 373.825 171.041 373.825C170.95 373.825 170.878 374.364 170.883 375.023ZM231.731 375.574C230.691 376.853 229.638 378.484 228.808 380.103C227.85 381.972 225.513 388.94 225.844 388.94C226.173 388.94 228.207 385.721 229.509 383.138C230.598 380.977 232.609 375.278 232.367 375.036C232.307 374.976 232.02 375.218 231.731 375.574ZM179.828 379.438C179.053 380.402 177.562 383.697 176.95 385.8L176.317 387.974L176.493 391.314L176.668 394.654L177.467 396.216C178.012 397.281 178.75 398.025 179.79 398.555L181.313 399.331L181.051 398.652C180.274 396.636 179.691 393.055 179.501 389.124L179.287 384.7L179.873 381.96C180.48 379.121 180.471 378.639 179.828 379.438ZM197.206 384.396C195.046 388.237 194.146 391.224 194.135 394.588L194.125 397.472L194.621 396.977C195.227 396.371 195.975 395.007 196.159 394.169C196.234 393.828 196.89 390.994 197.617 387.873C198.344 384.751 198.867 382.126 198.78 382.038C198.693 381.951 197.985 383.012 197.206 384.396ZM218.255 386.459L216.823 389.493V393.4C216.823 396.069 216.989 397.617 217.346 398.285C217.634 398.823 217.966 399.262 218.084 399.262C218.202 399.262 218.769 398.426 219.343 397.404L220.388 395.546L220.269 389.629C220.204 386.375 220.046 383.648 219.918 383.569C219.791 383.49 219.042 384.791 218.255 386.459ZM73.2982 385.724C72.9631 387.507 73.6765 392.347 74.5467 394.196C75.3546 395.913 78.4281 399.198 78.8411 398.785C78.9769 398.65 78.7141 397.582 78.2569 396.412C77.8 395.243 76.6544 392.089 75.7111 389.403C74.7682 386.718 73.8905 384.52 73.7606 384.518C73.6311 384.517 73.4229 385.06 73.2982 385.724ZM208.334 387.162C206.525 388.171 203.72 390.921 203.015 392.375C202.592 393.25 202.245 394.6 202.245 395.377V396.788L203.473 395.168C204.839 393.368 209.334 386.722 209.174 386.739C209.118 386.745 208.74 386.936 208.334 387.162Z" fill="#A51E13"/>
</g>
<defs>
<clipPath id="clip0_172_3">
<rect width="365" height="400" fill="white"/>
</clipPath>
</defs>
</svg>
